<?xml version="1.0" encoding="UTF-8" standalone="no"?>
<!DOCTYPE svg PUBLIC "-//W3C//DTD SVG 1.1//EN"
 "http://www.w3.org/Graphics/SVG/1.1/DTD/svg11.dtd">
<!-- Generated by graphviz version 2.43.0 (0)
 -->
<!-- Title: core/src/Arcade.cpp Pages: 1 -->
<svg width="831pt" height="412pt"
 viewBox="0.00 0.00 830.50 412.00" xmlns="http://www.w3.org/2000/svg" xmlns:xlink="http://www.w3.org/1999/xlink">
<g id="graph0" class="graph" transform="scale(1 1) rotate(0) translate(4 408)">
<title>core/src/Arcade.cpp</title>
<!-- Node1 -->
<g id="Node000001" class="node">
<title>Node1</title>
<g id="a_Node000001"><a xlink:title=" ">
<polygon fill="#999999" stroke="#666666" points="539.5,-404 427.5,-404 427.5,-385 539.5,-385 539.5,-404"/>
<text text-anchor="middle" x="483.5" y="-392" font-family="Helvetica,sans-Serif" font-size="10.00">core/src/Arcade.cpp</text>
</a>
</g>
</g>
<!-- Node2 -->
<g id="Node000002" class="node">
<title>Node2</title>
<g id="a_Node000002"><a xlink:href="Arcade_8hpp.html" target="_top" xlink:title=" ">
<polygon fill="white" stroke="#666666" points="441,-349 370,-349 370,-330 441,-330 441,-349"/>
<text text-anchor="middle" x="405.5" y="-337" font-family="Helvetica,sans-Serif" font-size="10.00">Arcade.hpp</text>
</a>
</g>
</g>
<!-- Node1&#45;&gt;Node2 -->
<g id="edge1_Node000001_Node000002" class="edge">
<title>Node1&#45;&gt;Node2</title>
<g id="a_edge1_Node000001_Node000002"><a xlink:title=" ">
<path fill="none" stroke="#63b8ff" d="M470.97,-384.98C459.1,-376.92 441.04,-364.65 426.89,-355.03"/>
<polygon fill="#63b8ff" stroke="#63b8ff" points="428.5,-351.9 418.26,-349.17 424.56,-357.69 428.5,-351.9"/>
</a>
</g>
</g>
<!-- Node3 -->
<g id="Node000003" class="node">
<title>Node3</title>
<g id="a_Node000003"><a xlink:href="Display_8hpp.html" target="_top" xlink:title=" ">
<polygon fill="white" stroke="#666666" points="520,-294 447,-294 447,-275 520,-275 520,-294"/>
<text text-anchor="middle" x="483.5" y="-282" font-family="Helvetica,sans-Serif" font-size="10.00">Display.hpp</text>
</a>
</g>
</g>
<!-- Node1&#45;&gt;Node3 -->
<g id="edge27_Node000001_Node000003" class="edge">
<title>Node1&#45;&gt;Node3</title>
<g id="a_edge27_Node000001_Node000003"><a xlink:title=" ">
<path fill="none" stroke="#63b8ff" d="M483.5,-384.66C483.5,-367.17 483.5,-327.8 483.5,-304.27"/>
<polygon fill="#63b8ff" stroke="#63b8ff" points="487,-304.16 483.5,-294.16 480,-304.16 487,-304.16"/>
</a>
</g>
</g>
<!-- Node5 -->
<g id="Node000005" class="node">
<title>Node5</title>
<g id="a_Node000005"><a xlink:href="gfx_8hpp.html" target="_top" xlink:title=" ">
<polygon fill="white" stroke="#666666" points="209,-129 156,-129 156,-110 209,-110 209,-129"/>
<text text-anchor="middle" x="182.5" y="-117" font-family="Helvetica,sans-Serif" font-size="10.00">gfx.hpp</text>
</a>
</g>
</g>
<!-- Node1&#45;&gt;Node5 -->
<g id="edge29_Node000001_Node000005" class="edge">
<title>Node1&#45;&gt;Node5</title>
<g id="a_edge29_Node000001_Node000005"><a xlink:title=" ">
<path fill="none" stroke="#63b8ff" d="M427.14,-387.32C330.74,-375.17 144.5,-344.1 144.5,-285.5 144.5,-285.5 144.5,-285.5 144.5,-228.5 144.5,-195.02 160.95,-158.84 172.2,-138.01"/>
<polygon fill="#63b8ff" stroke="#63b8ff" points="175.37,-139.53 177.22,-129.1 169.26,-136.1 175.37,-139.53"/>
</a>
</g>
</g>
<!-- Node9 -->
<g id="Node000009" class="node">
<title>Node9</title>
<g id="a_Node000009"><a xlink:title=" ">
<polygon fill="#e0e0e0" stroke="#999999" points="374.5,-19 330.5,-19 330.5,0 374.5,0 374.5,-19"/>
<text text-anchor="middle" x="352.5" y="-7" font-family="Helvetica,sans-Serif" font-size="10.00">string</text>
</a>
</g>
</g>
<!-- Node1&#45;&gt;Node9 -->
<g id="edge32_Node000001_Node000009" class="edge">
<title>Node1&#45;&gt;Node9</title>
<g id="a_edge32_Node000001_Node000009"><a xlink:title=" ">
<path fill="none" stroke="#63b8ff" d="M539.64,-386.52C597.25,-375.84 678.5,-349.45 678.5,-285.5 678.5,-285.5 678.5,-285.5 678.5,-118.5 678.5,-57.03 466.97,-24.51 384.7,-14.19"/>
<polygon fill="#63b8ff" stroke="#63b8ff" points="385,-10.7 374.65,-12.96 384.15,-17.65 385,-10.7"/>
</a>
</g>
</g>
<!-- Node11 -->
<g id="Node000011" class="node">
<title>Node11</title>
<g id="a_Node000011"><a xlink:title=" ">
<polygon fill="#e0e0e0" stroke="#999999" points="51,-74 0,-74 0,-55 51,-55 51,-74"/>
<text text-anchor="middle" x="25.5" y="-62" font-family="Helvetica,sans-Serif" font-size="10.00">variant</text>
</a>
</g>
</g>
<!-- Node1&#45;&gt;Node11 -->
<g id="edge34_Node000001_Node000011" class="edge">
<title>Node1&#45;&gt;Node11</title>
<g id="a_edge34_Node000001_Node000011"><a xlink:title=" ">
<path fill="none" stroke="#63b8ff" d="M427.13,-390.7C313.03,-383.49 65.5,-359.33 65.5,-285.5 65.5,-285.5 65.5,-285.5 65.5,-173.5 65.5,-139.67 48.03,-103.38 36.18,-82.66"/>
<polygon fill="#63b8ff" stroke="#63b8ff" points="39.18,-80.86 31.06,-74.06 33.16,-84.44 39.18,-80.86"/>
</a>
</g>
</g>
<!-- Node12 -->
<g id="Node000012" class="node">
<title>Node12</title>
<g id="a_Node000012"><a xlink:title=" ">
<polygon fill="#e0e0e0" stroke="#999999" points="588,-129 541,-129 541,-110 588,-110 588,-129"/>
<text text-anchor="middle" x="564.5" y="-117" font-family="Helvetica,sans-Serif" font-size="10.00">queue</text>
</a>
</g>
</g>
<!-- Node1&#45;&gt;Node12 -->
<g id="edge31_Node000001_Node000012" class="edge">
<title>Node1&#45;&gt;Node12</title>
<g id="a_edge31_Node000001_Node000012"><a xlink:title=" ">
<path fill="none" stroke="#63b8ff" d="M521.91,-384.96C568.39,-372.1 640.5,-342.9 640.5,-285.5 640.5,-285.5 640.5,-285.5 640.5,-228.5 640.5,-189.47 606.89,-154.58 584.37,-135.6"/>
<polygon fill="#63b8ff" stroke="#63b8ff" points="586.35,-132.7 576.38,-129.12 581.94,-138.14 586.35,-132.7"/>
</a>
</g>
</g>
<!-- Node16 -->
<g id="Node000016" class="node">
<title>Node16</title>
<g id="a_Node000016"><a xlink:href="Game_8hpp.html" target="_top" xlink:title=" ">
<polygon fill="white" stroke="#666666" points="364,-294 297,-294 297,-275 364,-275 364,-294"/>
<text text-anchor="middle" x="330.5" y="-282" font-family="Helvetica,sans-Serif" font-size="10.00">Game.hpp</text>
</a>
</g>
</g>
<!-- Node1&#45;&gt;Node16 -->
<g id="edge28_Node000001_Node000016" class="edge">
<title>Node1&#45;&gt;Node16</title>
<g id="a_edge28_Node000001_Node000016"><a xlink:title=" ">
<path fill="none" stroke="#63b8ff" d="M435.61,-384.97C411.07,-378.56 382.11,-367.56 361.5,-349 348.13,-336.96 339.91,-317.88 335.32,-303.78"/>
<polygon fill="#63b8ff" stroke="#63b8ff" points="338.67,-302.77 332.5,-294.16 331.96,-304.74 338.67,-302.77"/>
</a>
</g>
</g>
<!-- Node18 -->
<g id="Node000018" class="node">
<title>Node18</title>
<g id="a_Node000018"><a xlink:title=" ">
<polygon fill="#e0e0e0" stroke="#999999" points="756.5,-349 706.5,-349 706.5,-330 756.5,-330 756.5,-349"/>
<text text-anchor="middle" x="731.5" y="-337" font-family="Helvetica,sans-Serif" font-size="10.00">chrono</text>
</a>
</g>
</g>
<!-- Node1&#45;&gt;Node18 -->
<g id="edge30_Node000001_Node000018" class="edge">
<title>Node1&#45;&gt;Node18</title>
<g id="a_edge30_Node000001_Node000018"><a xlink:title=" ">
<path fill="none" stroke="#63b8ff" d="M523.97,-384.94C566.08,-376.03 633.93,-361.62 692.5,-349 693.76,-348.73 695.04,-348.45 696.33,-348.17"/>
<polygon fill="#63b8ff" stroke="#63b8ff" points="697.3,-351.54 706.33,-346 695.81,-344.7 697.3,-351.54"/>
</a>
</g>
</g>
<!-- Node19 -->
<g id="Node000019" class="node">
<title>Node19</title>
<g id="a_Node000019"><a xlink:title=" ">
<polygon fill="#e0e0e0" stroke="#999999" points="822.5,-349 774.5,-349 774.5,-330 822.5,-330 822.5,-349"/>
<text text-anchor="middle" x="798.5" y="-337" font-family="Helvetica,sans-Serif" font-size="10.00">thread</text>
</a>
</g>
</g>
<!-- Node1&#45;&gt;Node19 -->
<g id="edge33_Node000001_Node000019" class="edge">
<title>Node1&#45;&gt;Node19</title>
<g id="a_edge33_Node000001_Node000019"><a xlink:title=" ">
<path fill="none" stroke="#63b8ff" d="M539.7,-386.24C594.64,-378.79 680.85,-366.13 764.49,-349.04"/>
<polygon fill="#63b8ff" stroke="#63b8ff" points="765.33,-352.44 774.41,-346.99 763.91,-345.58 765.33,-352.44"/>
</a>
</g>
</g>
<!-- Node2&#45;&gt;Node3 -->
<g id="edge2_Node000002_Node000003" class="edge">
<title>Node2&#45;&gt;Node3</title>
<g id="a_edge2_Node000002_Node000003"><a xlink:title=" ">
<path fill="none" stroke="#63b8ff" d="M418.03,-329.98C429.9,-321.92 447.96,-309.65 462.11,-300.03"/>
<polygon fill="#63b8ff" stroke="#63b8ff" points="464.44,-302.69 470.74,-294.17 460.5,-296.9 464.44,-302.69"/>
</a>
</g>
</g>
<!-- Node2&#45;&gt;Node5 -->
<g id="edge23_Node000002_Node000005" class="edge">
<title>Node2&#45;&gt;Node5</title>
<g id="a_edge23_Node000002_Node000005"><a xlink:title=" ">
<path fill="none" stroke="#63b8ff" d="M369.85,-335.35C318.69,-330.06 228.2,-317.57 206.5,-294 166.9,-250.99 173.24,-174.72 178.86,-139.41"/>
<polygon fill="#63b8ff" stroke="#63b8ff" points="182.38,-139.57 180.67,-129.11 175.49,-138.36 182.38,-139.57"/>
</a>
</g>
</g>
<!-- Node2&#45;&gt;Node9 -->
<g id="edge25_Node000002_Node000009" class="edge">
<title>Node2&#45;&gt;Node9</title>
<g id="a_edge25_Node000002_Node000009"><a xlink:title=" ">
<path fill="none" stroke="#63b8ff" d="M369.8,-333.69C343.57,-328.33 308.91,-317.14 287.5,-294 270.21,-275.31 275.09,-264.2 271.5,-239 268.96,-221.15 271.59,-175.91 274.5,-165 288.79,-111.51 322.92,-54.97 340.93,-27.49"/>
<polygon fill="#63b8ff" stroke="#63b8ff" points="343.93,-29.3 346.56,-19.04 338.1,-25.41 343.93,-29.3"/>
</a>
</g>
</g>
<!-- Node2&#45;&gt;Node12 -->
<g id="edge24_Node000002_Node000012" class="edge">
<title>Node2&#45;&gt;Node12</title>
<g id="a_edge24_Node000002_Node000012"><a xlink:title=" ">
<path fill="none" stroke="#63b8ff" d="M441.24,-332.3C467.87,-326.22 503.91,-314.73 529.5,-294 571.09,-260.31 571.4,-237.05 578.5,-184 579.62,-175.63 579.78,-173.35 578.5,-165 577.15,-156.19 574.37,-146.74 571.65,-138.82"/>
<polygon fill="#63b8ff" stroke="#63b8ff" points="574.84,-137.35 568.1,-129.18 568.27,-139.77 574.84,-137.35"/>
</a>
</g>
</g>
<!-- Node2&#45;&gt;Node16 -->
<g id="edge19_Node000002_Node000016" class="edge">
<title>Node2&#45;&gt;Node16</title>
<g id="a_edge19_Node000002_Node000016"><a xlink:title=" ">
<path fill="none" stroke="#63b8ff" d="M393.45,-329.98C382.04,-321.92 364.67,-309.65 351.07,-300.03"/>
<polygon fill="#63b8ff" stroke="#63b8ff" points="352.96,-297.08 342.77,-294.17 348.92,-302.8 352.96,-297.08"/>
</a>
</g>
</g>
<!-- Node17 -->
<g id="Node000017" class="node">
<title>Node17</title>
<g id="a_Node000017"><a xlink:title=" ">
<polygon fill="#e0e0e0" stroke="#999999" points="429,-294 382,-294 382,-275 429,-275 429,-294"/>
<text text-anchor="middle" x="405.5" y="-282" font-family="Helvetica,sans-Serif" font-size="10.00">vector</text>
</a>
</g>
</g>
<!-- Node2&#45;&gt;Node17 -->
<g id="edge26_Node000002_Node000017" class="edge">
<title>Node2&#45;&gt;Node17</title>
<g id="a_edge26_Node000002_Node000017"><a xlink:title=" ">
<path fill="none" stroke="#63b8ff" d="M405.5,-329.75C405.5,-322.8 405.5,-312.85 405.5,-304.13"/>
<polygon fill="#63b8ff" stroke="#63b8ff" points="409,-304.09 405.5,-294.09 402,-304.09 409,-304.09"/>
</a>
</g>
</g>
<!-- Node4 -->
<g id="Node000004" class="node">
<title>Node4</title>
<g id="a_Node000004"><a xlink:href="IDisplay_8hpp.html" target="_top" xlink:title=" ">
<polygon fill="white" stroke="#666666" points="536.5,-239 460.5,-239 460.5,-220 536.5,-220 536.5,-239"/>
<text text-anchor="middle" x="498.5" y="-227" font-family="Helvetica,sans-Serif" font-size="10.00">IDisplay.hpp</text>
</a>
</g>
</g>
<!-- Node3&#45;&gt;Node4 -->
<g id="edge3_Node000003_Node000004" class="edge">
<title>Node3&#45;&gt;Node4</title>
<g id="a_edge3_Node000003_Node000004"><a xlink:title=" ">
<path fill="none" stroke="#63b8ff" d="M485.98,-274.75C487.96,-267.72 490.82,-257.62 493.31,-248.84"/>
<polygon fill="#63b8ff" stroke="#63b8ff" points="496.71,-249.66 496.07,-239.09 489.98,-247.76 496.71,-249.66"/>
</a>
</g>
</g>
<!-- Node3&#45;&gt;Node12 -->
<g id="edge18_Node000003_Node000012" class="edge">
<title>Node3&#45;&gt;Node12</title>
<g id="a_edge18_Node000003_Node000012"><a xlink:title=" ">
<path fill="none" stroke="#63b8ff" d="M502.66,-274.87C516.85,-267.45 535.4,-255.34 545.5,-239 564.7,-207.94 566.52,-163.87 565.75,-139.16"/>
<polygon fill="#63b8ff" stroke="#63b8ff" points="569.24,-138.82 565.25,-129.01 562.25,-139.17 569.24,-138.82"/>
</a>
</g>
</g>
<!-- Node14 -->
<g id="Node000014" class="node">
<title>Node14</title>
<g id="a_Node000014"><a xlink:href="DlLoader_8hpp.html" target="_top" xlink:title=" ">
<polygon fill="white" stroke="#666666" points="442.5,-239 362.5,-239 362.5,-220 442.5,-220 442.5,-239"/>
<text text-anchor="middle" x="402.5" y="-227" font-family="Helvetica,sans-Serif" font-size="10.00">DlLoader.hpp</text>
</a>
</g>
</g>
<!-- Node3&#45;&gt;Node14 -->
<g id="edge15_Node000003_Node000014" class="edge">
<title>Node3&#45;&gt;Node14</title>
<g id="a_edge15_Node000003_Node000014"><a xlink:title=" ">
<path fill="none" stroke="#63b8ff" d="M470.49,-274.98C458.04,-266.84 439.04,-254.41 424.29,-244.76"/>
<polygon fill="#63b8ff" stroke="#63b8ff" points="426.04,-241.72 415.75,-239.17 422.2,-247.57 426.04,-241.72"/>
</a>
</g>
</g>
<!-- Node15 -->
<g id="Node000015" class="node">
<title>Node15</title>
<g id="a_Node000015"><a xlink:title=" ">
<polygon fill="#e0e0e0" stroke="#999999" points="344.5,-239 286.5,-239 286.5,-220 344.5,-220 344.5,-239"/>
<text text-anchor="middle" x="315.5" y="-227" font-family="Helvetica,sans-Serif" font-size="10.00">memory</text>
</a>
</g>
</g>
<!-- Node3&#45;&gt;Node15 -->
<g id="edge17_Node000003_Node000015" class="edge">
<title>Node3&#45;&gt;Node15</title>
<g id="a_edge17_Node000003_Node000015"><a xlink:title=" ">
<path fill="none" stroke="#63b8ff" d="M456.51,-274.98C428.3,-266.09 383.86,-252.07 352.42,-242.15"/>
<polygon fill="#63b8ff" stroke="#63b8ff" points="353.29,-238.75 342.7,-239.08 351.19,-245.43 353.29,-238.75"/>
</a>
</g>
</g>
<!-- Node4&#45;&gt;Node5 -->
<g id="edge4_Node000004_Node000005" class="edge">
<title>Node4&#45;&gt;Node5</title>
<g id="a_edge4_Node000004_Node000005"><a xlink:title=" ">
<path fill="none" stroke="#63b8ff" d="M482.6,-219.83C457.64,-206.51 407.46,-180.88 362.5,-165 314.16,-147.92 256.29,-134.87 219.47,-127.44"/>
<polygon fill="#63b8ff" stroke="#63b8ff" points="219.69,-123.92 209.2,-125.41 218.33,-130.79 219.69,-123.92"/>
</a>
</g>
</g>
<!-- Node4&#45;&gt;Node12 -->
<g id="edge11_Node000004_Node000012" class="edge">
<title>Node4&#45;&gt;Node12</title>
<g id="a_edge11_Node000004_Node000012"><a xlink:title=" ">
<path fill="none" stroke="#63b8ff" d="M503.9,-219.66C514.83,-201.77 539.75,-161 553.99,-137.69"/>
<polygon fill="#63b8ff" stroke="#63b8ff" points="556.98,-139.52 559.21,-129.16 551.01,-135.87 556.98,-139.52"/>
</a>
</g>
</g>
<!-- Node13 -->
<g id="Node000013" class="node">
<title>Node13</title>
<g id="a_Node000013"><a xlink:href="IGame_8hpp.html" target="_top" xlink:title=" ">
<polygon fill="white" stroke="#666666" points="353.5,-184 283.5,-184 283.5,-165 353.5,-165 353.5,-184"/>
<text text-anchor="middle" x="318.5" y="-172" font-family="Helvetica,sans-Serif" font-size="10.00">IGame.hpp</text>
</a>
</g>
</g>
<!-- Node4&#45;&gt;Node13 -->
<g id="edge12_Node000004_Node000013" class="edge">
<title>Node4&#45;&gt;Node13</title>
<g id="a_edge12_Node000004_Node000013"><a xlink:title=" ">
<path fill="none" stroke="#63b8ff" d="M469.58,-219.98C439.23,-211.05 391.33,-196.94 357.62,-187.02"/>
<polygon fill="#63b8ff" stroke="#63b8ff" points="358.23,-183.55 347.65,-184.08 356.25,-190.26 358.23,-183.55"/>
</a>
</g>
</g>
<!-- Node6 -->
<g id="Node000006" class="node">
<title>Node6</title>
<g id="a_Node000006"><a xlink:title=" ">
<polygon fill="#e0e0e0" stroke="#999999" points="282,-74 229,-74 229,-55 282,-55 282,-74"/>
<text text-anchor="middle" x="255.5" y="-62" font-family="Helvetica,sans-Serif" font-size="10.00">cstddef</text>
</a>
</g>
</g>
<!-- Node5&#45;&gt;Node6 -->
<g id="edge5_Node000005_Node000006" class="edge">
<title>Node5&#45;&gt;Node6</title>
<g id="a_edge5_Node000005_Node000006"><a xlink:title=" ">
<path fill="none" stroke="#63b8ff" d="M194.23,-109.98C205.23,-102 221.92,-89.88 235.1,-80.31"/>
<polygon fill="#63b8ff" stroke="#63b8ff" points="237.52,-82.88 243.56,-74.17 233.41,-77.21 237.52,-82.88"/>
</a>
</g>
</g>
<!-- Node7 -->
<g id="Node000007" class="node">
<title>Node7</title>
<g id="a_Node000007"><a xlink:href="shape_8hpp.html" target="_top" xlink:title=" ">
<polygon fill="white" stroke="#666666" points="136,-74 69,-74 69,-55 136,-55 136,-74"/>
<text text-anchor="middle" x="102.5" y="-62" font-family="Helvetica,sans-Serif" font-size="10.00">shape.hpp</text>
</a>
</g>
</g>
<!-- Node5&#45;&gt;Node7 -->
<g id="edge6_Node000005_Node000007" class="edge">
<title>Node5&#45;&gt;Node7</title>
<g id="a_edge6_Node000005_Node000007"><a xlink:title=" ">
<path fill="none" stroke="#63b8ff" d="M169.65,-109.98C157.36,-101.84 138.59,-89.41 124.02,-79.76"/>
<polygon fill="#63b8ff" stroke="#63b8ff" points="125.86,-76.78 115.59,-74.17 121.99,-82.61 125.86,-76.78"/>
</a>
</g>
</g>
<!-- Node10 -->
<g id="Node000010" class="node">
<title>Node10</title>
<g id="a_Node000010"><a xlink:title=" ">
<polygon fill="#e0e0e0" stroke="#999999" points="210.5,-74 154.5,-74 154.5,-55 210.5,-55 210.5,-74"/>
<text text-anchor="middle" x="182.5" y="-62" font-family="Helvetica,sans-Serif" font-size="10.00">optional</text>
</a>
</g>
</g>
<!-- Node5&#45;&gt;Node10 -->
<g id="edge9_Node000005_Node000010" class="edge">
<title>Node5&#45;&gt;Node10</title>
<g id="a_edge9_Node000005_Node000010"><a xlink:title=" ">
<path fill="none" stroke="#63b8ff" d="M182.5,-109.75C182.5,-102.8 182.5,-92.85 182.5,-84.13"/>
<polygon fill="#63b8ff" stroke="#63b8ff" points="186,-84.09 182.5,-74.09 179,-84.09 186,-84.09"/>
</a>
</g>
</g>
<!-- Node5&#45;&gt;Node11 -->
<g id="edge10_Node000005_Node000011" class="edge">
<title>Node5&#45;&gt;Node11</title>
<g id="a_edge10_Node000005_Node000011"><a xlink:title=" ">
<path fill="none" stroke="#63b8ff" d="M157.28,-109.98C131.14,-101.16 90.1,-87.31 60.77,-77.41"/>
<polygon fill="#63b8ff" stroke="#63b8ff" points="61.52,-73.96 50.92,-74.08 59.28,-80.6 61.52,-73.96"/>
</a>
</g>
</g>
<!-- Node8 -->
<g id="Node000008" class="node">
<title>Node8</title>
<g id="a_Node000008"><a xlink:title=" ">
<polygon fill="#e0e0e0" stroke="#999999" points="135,-19 70,-19 70,0 135,0 135,-19"/>
<text text-anchor="middle" x="102.5" y="-7" font-family="Helvetica,sans-Serif" font-size="10.00">functional</text>
</a>
</g>
</g>
<!-- Node7&#45;&gt;Node8 -->
<g id="edge7_Node000007_Node000008" class="edge">
<title>Node7&#45;&gt;Node8</title>
<g id="a_edge7_Node000007_Node000008"><a xlink:title=" ">
<path fill="none" stroke="#63b8ff" d="M102.5,-54.75C102.5,-47.8 102.5,-37.85 102.5,-29.13"/>
<polygon fill="#63b8ff" stroke="#63b8ff" points="106,-29.09 102.5,-19.09 99,-29.09 106,-29.09"/>
</a>
</g>
</g>
<!-- Node7&#45;&gt;Node9 -->
<g id="edge8_Node000007_Node000009" class="edge">
<title>Node7&#45;&gt;Node9</title>
<g id="a_edge8_Node000007_Node000009"><a xlink:title=" ">
<path fill="none" stroke="#63b8ff" d="M136.22,-56.35C184.54,-46.11 272.89,-27.38 320.34,-17.32"/>
<polygon fill="#63b8ff" stroke="#63b8ff" points="321.31,-20.69 330.37,-15.19 319.86,-13.84 321.31,-20.69"/>
</a>
</g>
</g>
<!-- Node13&#45;&gt;Node5 -->
<g id="edge13_Node000013_Node000005" class="edge">
<title>Node13&#45;&gt;Node5</title>
<g id="a_edge13_Node000013_Node000005"><a xlink:title=" ">
<path fill="none" stroke="#63b8ff" d="M296.65,-164.98C274.38,-156.3 239.6,-142.75 214.28,-132.88"/>
<polygon fill="#63b8ff" stroke="#63b8ff" points="215.34,-129.54 204.75,-129.17 212.79,-136.06 215.34,-129.54"/>
</a>
</g>
</g>
<!-- Node13&#45;&gt;Node12 -->
<g id="edge14_Node000013_Node000012" class="edge">
<title>Node13&#45;&gt;Node12</title>
<g id="a_edge14_Node000013_Node000012"><a xlink:title=" ">
<path fill="none" stroke="#63b8ff" d="M353.75,-165.91C401.05,-155.71 484.49,-137.74 530.93,-127.73"/>
<polygon fill="#63b8ff" stroke="#63b8ff" points="531.76,-131.13 540.8,-125.61 530.28,-124.29 531.76,-131.13"/>
</a>
</g>
</g>
<!-- Node14&#45;&gt;Node9 -->
<g id="edge16_Node000014_Node000009" class="edge">
<title>Node14&#45;&gt;Node9</title>
<g id="a_edge16_Node000014_Node000009"><a xlink:title=" ">
<path fill="none" stroke="#63b8ff" d="M400.54,-219.95C393.18,-187.88 367.11,-74.2 356.77,-29.12"/>
<polygon fill="#63b8ff" stroke="#63b8ff" points="360.15,-28.19 354.5,-19.22 353.33,-29.75 360.15,-28.19"/>
</a>
</g>
</g>
<!-- Node16&#45;&gt;Node13 -->
<g id="edge20_Node000016_Node000013" class="edge">
<title>Node16&#45;&gt;Node13</title>
<g id="a_edge20_Node000016_Node000013"><a xlink:title=" ">
<path fill="none" stroke="#63b8ff" d="M313.92,-274.87C301.33,-267.3 284.96,-255.01 277.5,-239 269.34,-221.5 284.1,-203.14 298.13,-190.69"/>
<polygon fill="#63b8ff" stroke="#63b8ff" points="300.64,-193.16 306.13,-184.09 296.19,-187.76 300.64,-193.16"/>
</a>
</g>
</g>
<!-- Node16&#45;&gt;Node14 -->
<g id="edge21_Node000016_Node000014" class="edge">
<title>Node16&#45;&gt;Node14</title>
<g id="a_edge21_Node000016_Node000014"><a xlink:title=" ">
<path fill="none" stroke="#63b8ff" d="M342.07,-274.98C352.92,-267 369.38,-254.88 382.38,-245.31"/>
<polygon fill="#63b8ff" stroke="#63b8ff" points="384.74,-247.92 390.72,-239.17 380.59,-242.28 384.74,-247.92"/>
</a>
</g>
</g>
<!-- Node16&#45;&gt;Node15 -->
<g id="edge22_Node000016_Node000015" class="edge">
<title>Node16&#45;&gt;Node15</title>
<g id="a_edge22_Node000016_Node000015"><a xlink:title=" ">
<path fill="none" stroke="#63b8ff" d="M328.02,-274.75C326.04,-267.72 323.18,-257.62 320.69,-248.84"/>
<polygon fill="#63b8ff" stroke="#63b8ff" points="324.02,-247.76 317.93,-239.09 317.29,-249.66 324.02,-247.76"/>
</a>
</g>
</g>
</g>
</svg>
