<?xml version="1.0" encoding="UTF-8" standalone="no"?>
<!DOCTYPE svg PUBLIC "-//W3C//DTD SVG 1.1//EN"
 "http://www.w3.org/Graphics/SVG/1.1/DTD/svg11.dtd">
<!-- Generated by graphviz version 2.43.0 (0)
 -->
<!-- Title: shared/include/DisplayVariable.hpp Pages: 1 -->
<svg width="536pt" height="148pt"
 viewBox="0.00 0.00 535.50 148.00" xmlns="http://www.w3.org/2000/svg" xmlns:xlink="http://www.w3.org/1999/xlink">
<g id="graph0" class="graph" transform="scale(1 1) rotate(0) translate(4 144)">
<title>shared/include/DisplayVariable.hpp</title>
<!-- Node1 -->
<g id="Node000001" class="node">
<title>Node1</title>
<g id="a_Node000001"><a xlink:title=" ">
<polygon fill="#999999" stroke="#666666" points="411.5,-140 223.5,-140 223.5,-121 411.5,-121 411.5,-140"/>
<text text-anchor="middle" x="317.5" y="-128" font-family="Helvetica,sans-Serif" font-size="10.00">shared/include/DisplayVariable.hpp</text>
</a>
</g>
</g>
<!-- Node2 -->
<g id="Node000002" class="node">
<title>Node2</title>
<g id="a_Node000002"><a xlink:href="Menu_8cpp.html" target="_top" xlink:title=" ">
<polygon fill="white" stroke="#666666" points="147,-79.5 0,-79.5 0,-60.5 147,-60.5 147,-79.5"/>
<text text-anchor="middle" x="73.5" y="-67.5" font-family="Helvetica,sans-Serif" font-size="10.00">games/Menu/src/Menu.cpp</text>
</a>
</g>
</g>
<!-- Node1&#45;&gt;Node2 -->
<g id="edge1_Node000001_Node000002" class="edge">
<title>Node1&#45;&gt;Node2</title>
<g id="a_edge1_Node000001_Node000002"><a xlink:title=" ">
<path fill="none" stroke="#63b8ff" d="M272.08,-118.61C224.92,-107.3 152.14,-89.85 109.02,-79.52"/>
<polygon fill="#63b8ff" stroke="#63b8ff" points="271.48,-122.07 282.02,-120.99 273.11,-115.26 271.48,-122.07"/>
</a>
</g>
</g>
<!-- Node3 -->
<g id="Node000003" class="node">
<title>Node3</title>
<g id="a_Node000003"><a xlink:href="SDL2_8hpp.html" target="_top" xlink:title=" ">
<polygon fill="white" stroke="#666666" points="289.5,-85 165.5,-85 165.5,-55 289.5,-55 289.5,-85"/>
<text text-anchor="start" x="173.5" y="-73" font-family="Helvetica,sans-Serif" font-size="10.00">graphics/SDL2/include</text>
<text text-anchor="middle" x="227.5" y="-62" font-family="Helvetica,sans-Serif" font-size="10.00">/SDL2.hpp</text>
</a>
</g>
</g>
<!-- Node1&#45;&gt;Node3 -->
<g id="edge2_Node000001_Node000003" class="edge">
<title>Node1&#45;&gt;Node3</title>
<g id="a_edge2_Node000001_Node000003"><a xlink:title=" ">
<path fill="none" stroke="#63b8ff" d="M295.64,-115.29C281.55,-106.13 263.28,-94.26 249.21,-85.11"/>
<polygon fill="#63b8ff" stroke="#63b8ff" points="293.93,-118.35 304.22,-120.87 297.74,-112.48 293.93,-118.35"/>
</a>
</g>
</g>
<!-- Node4 -->
<g id="Node000004" class="node">
<title>Node4</title>
<g id="a_Node000004"><a xlink:href="SDL2_8cpp.html" target="_top" xlink:title=" ">
<polygon fill="white" stroke="#666666" points="350,-19 199,-19 199,0 350,0 350,-19"/>
<text text-anchor="middle" x="274.5" y="-7" font-family="Helvetica,sans-Serif" font-size="10.00">graphics/SDL2/src/SDL2.cpp</text>
</a>
</g>
</g>
<!-- Node1&#45;&gt;Node4 -->
<g id="edge4_Node000001_Node000004" class="edge">
<title>Node1&#45;&gt;Node4</title>
<g id="a_edge4_Node000001_Node000004"><a xlink:title=" ">
<path fill="none" stroke="#63b8ff" d="M313.96,-110.31C310.81,-95.02 305.62,-73.23 298.5,-55 293.39,-41.92 285.29,-27.81 279.94,-19.06"/>
<polygon fill="#63b8ff" stroke="#63b8ff" points="310.61,-111.42 315.96,-120.56 317.48,-110.08 310.61,-111.42"/>
</a>
</g>
</g>
<!-- Node5 -->
<g id="Node000005" class="node">
<title>Node5</title>
<g id="a_Node000005"><a xlink:href="SFML_8hpp.html" target="_top" xlink:title=" ">
<polygon fill="white" stroke="#666666" points="471,-85 346,-85 346,-55 471,-55 471,-85"/>
<text text-anchor="start" x="354" y="-73" font-family="Helvetica,sans-Serif" font-size="10.00">graphics/SFML/include</text>
<text text-anchor="middle" x="408.5" y="-62" font-family="Helvetica,sans-Serif" font-size="10.00">/SFML.hpp</text>
</a>
</g>
</g>
<!-- Node1&#45;&gt;Node5 -->
<g id="edge5_Node000001_Node000005" class="edge">
<title>Node1&#45;&gt;Node5</title>
<g id="a_edge5_Node000001_Node000005"><a xlink:title=" ">
<path fill="none" stroke="#63b8ff" d="M339.6,-115.29C353.85,-106.13 372.32,-94.26 386.54,-85.11"/>
<polygon fill="#63b8ff" stroke="#63b8ff" points="337.45,-112.52 330.93,-120.87 341.23,-118.4 337.45,-112.52"/>
</a>
</g>
</g>
<!-- Node6 -->
<g id="Node000006" class="node">
<title>Node6</title>
<g id="a_Node000006"><a xlink:href="SFML_8cpp.html" target="_top" xlink:title=" ">
<polygon fill="white" stroke="#666666" points="527.5,-19 373.5,-19 373.5,0 527.5,0 527.5,-19"/>
<text text-anchor="middle" x="450.5" y="-7" font-family="Helvetica,sans-Serif" font-size="10.00">graphics/SFML/src/SFML.cpp</text>
</a>
</g>
</g>
<!-- Node1&#45;&gt;Node6 -->
<g id="edge7_Node000001_Node000006" class="edge">
<title>Node1&#45;&gt;Node6</title>
<g id="a_edge7_Node000001_Node000006"><a xlink:title=" ">
<path fill="none" stroke="#63b8ff" d="M386.33,-119.1C425,-111.69 467.81,-100.33 479.5,-85 495.32,-64.25 472.26,-33.8 458.9,-19.08"/>
<polygon fill="#63b8ff" stroke="#63b8ff" points="385.28,-115.73 376.08,-120.99 386.55,-122.62 385.28,-115.73"/>
</a>
</g>
</g>
<!-- Node3&#45;&gt;Node4 -->
<g id="edge3_Node000003_Node000004" class="edge">
<title>Node3&#45;&gt;Node4</title>
<g id="a_edge3_Node000003_Node000004"><a xlink:title=" ">
<path fill="none" stroke="#63b8ff" d="M245.34,-46.8C253.04,-37.21 261.61,-26.54 267.46,-19.27"/>
<polygon fill="#63b8ff" stroke="#63b8ff" points="242.41,-44.85 238.88,-54.84 247.87,-49.24 242.41,-44.85"/>
</a>
</g>
</g>
<!-- Node5&#45;&gt;Node6 -->
<g id="edge6_Node000005_Node000006" class="edge">
<title>Node5&#45;&gt;Node6</title>
<g id="a_edge6_Node000005_Node000006"><a xlink:title=" ">
<path fill="none" stroke="#63b8ff" d="M424.65,-46.51C431.48,-36.99 439.04,-26.47 444.21,-19.27"/>
<polygon fill="#63b8ff" stroke="#63b8ff" points="421.66,-44.67 418.67,-54.84 427.34,-48.76 421.66,-44.67"/>
</a>
</g>
</g>
</g>
</svg>
