<?xml version="1.0" encoding="UTF-8" standalone="no"?>
<!DOCTYPE svg PUBLIC "-//W3C//DTD SVG 1.1//EN"
 "http://www.w3.org/Graphics/SVG/1.1/DTD/svg11.dtd">
<!-- Generated by graphviz version 2.43.0 (0)
 -->
<!-- Title: include/IGame.hpp Pages: 1 -->
<svg width="501pt" height="192pt"
 viewBox="0.00 0.00 501.00 192.00" xmlns="http://www.w3.org/2000/svg" xmlns:xlink="http://www.w3.org/1999/xlink">
<g id="graph0" class="graph" transform="scale(1 1) rotate(0) translate(4 188)">
<title>include/IGame.hpp</title>
<!-- Node1 -->
<g id="Node000001" class="node">
<title>Node1</title>
<g id="a_Node000001"><a xlink:title=" ">
<polygon fill="#999999" stroke="#666666" points="329.5,-184 221.5,-184 221.5,-165 329.5,-165 329.5,-184"/>
<text text-anchor="middle" x="275.5" y="-172" font-family="Helvetica,sans-Serif" font-size="10.00">include/IGame.hpp</text>
</a>
</g>
</g>
<!-- Node2 -->
<g id="Node000002" class="node">
<title>Node2</title>
<g id="a_Node000002"><a xlink:href="gfx_8hpp.html" target="_top" xlink:title=" ">
<polygon fill="white" stroke="#666666" points="275,-129 222,-129 222,-110 275,-110 275,-129"/>
<text text-anchor="middle" x="248.5" y="-117" font-family="Helvetica,sans-Serif" font-size="10.00">gfx.hpp</text>
</a>
</g>
</g>
<!-- Node1&#45;&gt;Node2 -->
<g id="edge1_Node000001_Node000002" class="edge">
<title>Node1&#45;&gt;Node2</title>
<g id="a_edge1_Node000001_Node000002"><a xlink:title=" ">
<path fill="none" stroke="#63b8ff" d="M271.04,-164.75C267.38,-157.57 262.09,-147.18 257.55,-138.27"/>
<polygon fill="#63b8ff" stroke="#63b8ff" points="260.53,-136.41 252.88,-129.09 254.3,-139.59 260.53,-136.41"/>
</a>
</g>
</g>
<!-- Node8 -->
<g id="Node000008" class="node">
<title>Node8</title>
<g id="a_Node000008"><a xlink:title=" ">
<polygon fill="#e0e0e0" stroke="#999999" points="493,-74 450,-74 450,-55 493,-55 493,-74"/>
<text text-anchor="middle" x="471.5" y="-62" font-family="Helvetica,sans-Serif" font-size="10.00">stack</text>
</a>
</g>
</g>
<!-- Node1&#45;&gt;Node8 -->
<g id="edge12_Node000001_Node000008" class="edge">
<title>Node1&#45;&gt;Node8</title>
<g id="a_edge12_Node000001_Node000008"><a xlink:title=" ">
<path fill="none" stroke="#63b8ff" d="M291.21,-164.84C325.27,-146.08 406.13,-101.52 446.98,-79.01"/>
<polygon fill="#63b8ff" stroke="#63b8ff" points="448.92,-81.94 455.99,-74.05 445.54,-75.81 448.92,-81.94"/>
</a>
</g>
</g>
<!-- Node3 -->
<g id="Node000003" class="node">
<title>Node3</title>
<g id="a_Node000003"><a xlink:title=" ">
<polygon fill="#e0e0e0" stroke="#999999" points="53,-74 0,-74 0,-55 53,-55 53,-74"/>
<text text-anchor="middle" x="26.5" y="-62" font-family="Helvetica,sans-Serif" font-size="10.00">cstddef</text>
</a>
</g>
</g>
<!-- Node2&#45;&gt;Node3 -->
<g id="edge2_Node000002_Node000003" class="edge">
<title>Node2&#45;&gt;Node3</title>
<g id="a_edge2_Node000002_Node000003"><a xlink:title=" ">
<path fill="none" stroke="#63b8ff" d="M221.72,-112.11C182.03,-102.63 107.48,-84.83 62.88,-74.18"/>
<polygon fill="#63b8ff" stroke="#63b8ff" points="63.57,-70.75 53.03,-71.83 61.94,-77.56 63.57,-70.75"/>
</a>
</g>
</g>
<!-- Node4 -->
<g id="Node000004" class="node">
<title>Node4</title>
<g id="a_Node000004"><a xlink:title=" ">
<polygon fill="#e0e0e0" stroke="#999999" points="199,-19 134,-19 134,0 199,0 199,-19"/>
<text text-anchor="middle" x="166.5" y="-7" font-family="Helvetica,sans-Serif" font-size="10.00">functional</text>
</a>
</g>
</g>
<!-- Node2&#45;&gt;Node4 -->
<g id="edge3_Node000002_Node000004" class="edge">
<title>Node2&#45;&gt;Node4</title>
<g id="a_edge3_Node000002_Node000004"><a xlink:title=" ">
<path fill="none" stroke="#63b8ff" d="M221.84,-119.27C187.39,-118.64 128.52,-111.68 100.5,-74 85.93,-54.4 112.6,-35.46 136.28,-23.44"/>
<polygon fill="#63b8ff" stroke="#63b8ff" points="137.94,-26.52 145.44,-19.04 134.91,-20.21 137.94,-26.52"/>
</a>
</g>
</g>
<!-- Node5 -->
<g id="Node000005" class="node">
<title>Node5</title>
<g id="a_Node000005"><a xlink:title=" ">
<polygon fill="#e0e0e0" stroke="#999999" points="147.5,-74 109.5,-74 109.5,-55 147.5,-55 147.5,-74"/>
<text text-anchor="middle" x="128.5" y="-62" font-family="Helvetica,sans-Serif" font-size="10.00">map</text>
</a>
</g>
</g>
<!-- Node2&#45;&gt;Node5 -->
<g id="edge4_Node000002_Node000005" class="edge">
<title>Node2&#45;&gt;Node5</title>
<g id="a_edge4_Node000002_Node000005"><a xlink:title=" ">
<path fill="none" stroke="#63b8ff" d="M229.22,-109.98C209.71,-101.37 179.33,-87.95 157.04,-78.1"/>
<polygon fill="#63b8ff" stroke="#63b8ff" points="158.29,-74.83 147.73,-73.99 155.47,-81.24 158.29,-74.83"/>
</a>
</g>
</g>
<!-- Node6 -->
<g id="Node000006" class="node">
<title>Node6</title>
<g id="a_Node000006"><a xlink:title=" ">
<polygon fill="#e0e0e0" stroke="#999999" points="207,-74 166,-74 166,-55 207,-55 207,-74"/>
<text text-anchor="middle" x="186.5" y="-62" font-family="Helvetica,sans-Serif" font-size="10.00">tuple</text>
</a>
</g>
</g>
<!-- Node2&#45;&gt;Node6 -->
<g id="edge5_Node000002_Node000006" class="edge">
<title>Node2&#45;&gt;Node6</title>
<g id="a_edge5_Node000002_Node000006"><a xlink:title=" ">
<path fill="none" stroke="#63b8ff" d="M238.54,-109.98C229.37,-102.15 215.56,-90.34 204.47,-80.86"/>
<polygon fill="#63b8ff" stroke="#63b8ff" points="206.52,-78.01 196.64,-74.17 201.97,-83.33 206.52,-78.01"/>
</a>
</g>
</g>
<!-- Node7 -->
<g id="Node000007" class="node">
<title>Node7</title>
<g id="a_Node000007"><a xlink:title=" ">
<polygon fill="#e0e0e0" stroke="#999999" points="272,-74 225,-74 225,-55 272,-55 272,-74"/>
<text text-anchor="middle" x="248.5" y="-62" font-family="Helvetica,sans-Serif" font-size="10.00">vector</text>
</a>
</g>
</g>
<!-- Node2&#45;&gt;Node7 -->
<g id="edge6_Node000002_Node000007" class="edge">
<title>Node2&#45;&gt;Node7</title>
<g id="a_edge6_Node000002_Node000007"><a xlink:title=" ">
<path fill="none" stroke="#63b8ff" d="M248.5,-109.75C248.5,-102.8 248.5,-92.85 248.5,-84.13"/>
<polygon fill="#63b8ff" stroke="#63b8ff" points="252,-84.09 248.5,-74.09 245,-84.09 252,-84.09"/>
</a>
</g>
</g>
<!-- Node2&#45;&gt;Node8 -->
<g id="edge7_Node000002_Node000008" class="edge">
<title>Node2&#45;&gt;Node8</title>
<g id="a_edge7_Node000002_Node000008"><a xlink:title=" ">
<path fill="none" stroke="#63b8ff" d="M275.29,-112.64C310.66,-104.84 375.09,-90.35 439.87,-74.08"/>
<polygon fill="#63b8ff" stroke="#63b8ff" points="441.01,-77.4 449.85,-71.55 439.3,-70.61 441.01,-77.4"/>
</a>
</g>
</g>
<!-- Node9 -->
<g id="Node000009" class="node">
<title>Node9</title>
<g id="a_Node000009"><a xlink:href="shape_8hpp.html" target="_top" xlink:title=" ">
<polygon fill="white" stroke="#666666" points="357,-74 290,-74 290,-55 357,-55 357,-74"/>
<text text-anchor="middle" x="323.5" y="-62" font-family="Helvetica,sans-Serif" font-size="10.00">shape.hpp</text>
</a>
</g>
</g>
<!-- Node2&#45;&gt;Node9 -->
<g id="edge8_Node000002_Node000009" class="edge">
<title>Node2&#45;&gt;Node9</title>
<g id="a_edge8_Node000002_Node000009"><a xlink:title=" ">
<path fill="none" stroke="#63b8ff" d="M260.55,-109.98C271.96,-101.92 289.33,-89.65 302.93,-80.03"/>
<polygon fill="#63b8ff" stroke="#63b8ff" points="305.08,-82.8 311.23,-74.17 301.04,-77.08 305.08,-82.8"/>
</a>
</g>
</g>
<!-- Node11 -->
<g id="Node000011" class="node">
<title>Node11</title>
<g id="a_Node000011"><a xlink:title=" ">
<polygon fill="#e0e0e0" stroke="#999999" points="431.5,-74 375.5,-74 375.5,-55 431.5,-55 431.5,-74"/>
<text text-anchor="middle" x="403.5" y="-62" font-family="Helvetica,sans-Serif" font-size="10.00">optional</text>
</a>
</g>
</g>
<!-- Node2&#45;&gt;Node11 -->
<g id="edge11_Node000002_Node000011" class="edge">
<title>Node2&#45;&gt;Node11</title>
<g id="a_edge11_Node000002_Node000011"><a xlink:title=" ">
<path fill="none" stroke="#63b8ff" d="M273.4,-109.98C299.2,-101.16 339.72,-87.31 368.68,-77.41"/>
<polygon fill="#63b8ff" stroke="#63b8ff" points="370.07,-80.63 378.4,-74.08 367.81,-74.01 370.07,-80.63"/>
</a>
</g>
</g>
<!-- Node9&#45;&gt;Node4 -->
<g id="edge9_Node000009_Node000004" class="edge">
<title>Node9&#45;&gt;Node4</title>
<g id="a_edge9_Node000009_Node000004"><a xlink:title=" ">
<path fill="none" stroke="#63b8ff" d="M298.28,-54.98C272.14,-46.16 231.1,-32.31 201.77,-22.41"/>
<polygon fill="#63b8ff" stroke="#63b8ff" points="202.52,-18.96 191.92,-19.08 200.28,-25.6 202.52,-18.96"/>
</a>
</g>
</g>
<!-- Node10 -->
<g id="Node000010" class="node">
<title>Node10</title>
<g id="a_Node000010"><a xlink:title=" ">
<polygon fill="#e0e0e0" stroke="#999999" points="345.5,-19 301.5,-19 301.5,0 345.5,0 345.5,-19"/>
<text text-anchor="middle" x="323.5" y="-7" font-family="Helvetica,sans-Serif" font-size="10.00">string</text>
</a>
</g>
</g>
<!-- Node9&#45;&gt;Node10 -->
<g id="edge10_Node000009_Node000010" class="edge">
<title>Node9&#45;&gt;Node10</title>
<g id="a_edge10_Node000009_Node000010"><a xlink:title=" ">
<path fill="none" stroke="#63b8ff" d="M323.5,-54.75C323.5,-47.8 323.5,-37.85 323.5,-29.13"/>
<polygon fill="#63b8ff" stroke="#63b8ff" points="327,-29.09 323.5,-19.09 320,-29.09 327,-29.09"/>
</a>
</g>
</g>
</g>
</svg>
