<?xml version="1.0" encoding="UTF-8" standalone="no"?>
<!DOCTYPE svg PUBLIC "-//W3C//DTD SVG 1.1//EN"
 "http://www.w3.org/Graphics/SVG/1.1/DTD/svg11.dtd">
<!-- Generated by graphviz version 2.43.0 (0)
 -->
<!-- Title: shared/include/IGame.hpp Pages: 1 -->
<svg width="1437pt" height="280pt"
 viewBox="0.00 0.00 1437.27 280.00" xmlns="http://www.w3.org/2000/svg" xmlns:xlink="http://www.w3.org/1999/xlink">
<g id="graph0" class="graph" transform="scale(1 1) rotate(0) translate(4 276)">
<title>shared/include/IGame.hpp</title>
<!-- Node1 -->
<g id="Node000001" class="node">
<title>Node1</title>
<g id="a_Node000001"><a xlink:title=" ">
<polygon fill="#999999" stroke="#666666" points="859.27,-272 715.27,-272 715.27,-253 859.27,-253 859.27,-272"/>
<text text-anchor="middle" x="787.27" y="-260" font-family="Helvetica,sans-Serif" font-size="10.00">shared/include/IGame.hpp</text>
</a>
</g>
</g>
<!-- Node2 -->
<g id="Node000002" class="node">
<title>Node2</title>
<g id="a_Node000002"><a xlink:href="Arcade_8hpp.html" target="_top" xlink:title=" ">
<polygon fill="white" stroke="#666666" points="160.27,-79.5 26.27,-79.5 26.27,-60.5 160.27,-60.5 160.27,-79.5"/>
<text text-anchor="middle" x="93.27" y="-67.5" font-family="Helvetica,sans-Serif" font-size="10.00">core/include/Arcade.hpp</text>
</a>
</g>
</g>
<!-- Node1&#45;&gt;Node2 -->
<g id="edge1_Node000001_Node000002" class="edge">
<title>Node1&#45;&gt;Node2</title>
<g id="a_edge1_Node000001_Node000002"><a xlink:title=" ">
<path fill="none" stroke="#63b8ff" d="M705.1,-260.8C541.69,-258.68 187.86,-250.27 144.27,-217 99.23,-182.63 93.79,-105.73 93.27,-79.76"/>
<polygon fill="#63b8ff" stroke="#63b8ff" points="705.06,-264.29 715.11,-260.92 705.15,-257.3 705.06,-264.29"/>
</a>
</g>
</g>
<!-- Node3 -->
<g id="Node000003" class="node">
<title>Node3</title>
<g id="a_Node000003"><a xlink:href="Arcade_8cpp.html" target="_top" xlink:title=" ">
<polygon fill="white" stroke="#666666" points="244.27,-19 132.27,-19 132.27,0 244.27,0 244.27,-19"/>
<text text-anchor="middle" x="188.27" y="-7" font-family="Helvetica,sans-Serif" font-size="10.00">core/src/Arcade.cpp</text>
</a>
</g>
</g>
<!-- Node1&#45;&gt;Node3 -->
<g id="edge8_Node000001_Node000003" class="edge">
<title>Node1&#45;&gt;Node3</title>
<g id="a_edge8_Node000001_Node000003"><a xlink:title=" ">
<path fill="none" stroke="#63b8ff" d="M705.08,-259.87C537.29,-255.99 166.84,-244.42 116.27,-217 42.09,-176.79 -34.34,-121.76 17.27,-55 31.34,-36.8 87.63,-24.65 131.83,-17.71"/>
<polygon fill="#63b8ff" stroke="#63b8ff" points="705.03,-263.37 715.11,-260.1 705.19,-256.37 705.03,-263.37"/>
</a>
</g>
</g>
<!-- Node5 -->
<g id="Node000005" class="node">
<title>Node5</title>
<g id="a_Node000005"><a xlink:href="Game_8hpp.html" target="_top" xlink:title=" ">
<polygon fill="white" stroke="#666666" points="282.77,-211.5 153.77,-211.5 153.77,-192.5 282.77,-192.5 282.77,-211.5"/>
<text text-anchor="middle" x="218.27" y="-199.5" font-family="Helvetica,sans-Serif" font-size="10.00">core/include/Game.hpp</text>
</a>
</g>
</g>
<!-- Node1&#45;&gt;Node5 -->
<g id="edge4_Node000001_Node000005" class="edge">
<title>Node1&#45;&gt;Node5</title>
<g id="a_edge4_Node000001_Node000005"><a xlink:title=" ">
<path fill="none" stroke="#63b8ff" d="M705.13,-253.06C591.11,-241.33 387.19,-220.37 283.17,-209.67"/>
<polygon fill="#63b8ff" stroke="#63b8ff" points="704.9,-256.55 715.2,-254.09 705.61,-249.59 704.9,-256.55"/>
</a>
</g>
</g>
<!-- Node6 -->
<g id="Node000006" class="node">
<title>Node6</title>
<g id="a_Node000006"><a xlink:href="Game_8cpp.html" target="_top" xlink:title=" ">
<polygon fill="white" stroke="#666666" points="304.77,-145.5 197.77,-145.5 197.77,-126.5 304.77,-126.5 304.77,-145.5"/>
<text text-anchor="middle" x="251.27" y="-133.5" font-family="Helvetica,sans-Serif" font-size="10.00">core/src/Game.cpp</text>
</a>
</g>
</g>
<!-- Node1&#45;&gt;Node6 -->
<g id="edge10_Node000001_Node000006" class="edge">
<title>Node1&#45;&gt;Node6</title>
<g id="a_edge10_Node000001_Node000006"><a xlink:title=" ">
<path fill="none" stroke="#63b8ff" d="M705.1,-254.59C641.01,-248.08 550.11,-236.36 472.27,-217 395.65,-197.94 308.59,-161.99 270.65,-145.57"/>
<polygon fill="#63b8ff" stroke="#63b8ff" points="704.85,-258.08 715.15,-255.59 705.54,-251.12 704.85,-258.08"/>
</a>
</g>
</g>
<!-- Node7 -->
<g id="Node000007" class="node">
<title>Node7</title>
<g id="a_Node000007"><a xlink:href="Display_8cpp.html" target="_top" xlink:title=" ">
<polygon fill="white" stroke="#666666" points="542.77,-79.5 429.77,-79.5 429.77,-60.5 542.77,-60.5 542.77,-79.5"/>
<text text-anchor="middle" x="486.27" y="-67.5" font-family="Helvetica,sans-Serif" font-size="10.00">core/src/Display.cpp</text>
</a>
</g>
</g>
<!-- Node1&#45;&gt;Node7 -->
<g id="edge9_Node000001_Node000007" class="edge">
<title>Node1&#45;&gt;Node7</title>
<g id="a_edge9_Node000001_Node000007"><a xlink:title=" ">
<path fill="none" stroke="#63b8ff" d="M707.76,-251.05C644.83,-238.41 559.87,-210.8 512.27,-151 494.9,-129.18 488.97,-95.39 487.09,-79.63"/>
<polygon fill="#63b8ff" stroke="#63b8ff" points="707.18,-254.5 717.66,-252.95 708.5,-247.63 707.18,-254.5"/>
</a>
</g>
</g>
<!-- Node8 -->
<g id="Node000008" class="node">
<title>Node8</title>
<g id="a_Node000008"><a xlink:href="Menu_8hpp.html" target="_top" xlink:title=" ">
<polygon fill="white" stroke="#666666" points="1013.27,-217 895.27,-217 895.27,-187 1013.27,-187 1013.27,-217"/>
<text text-anchor="start" x="903.27" y="-205" font-family="Helvetica,sans-Serif" font-size="10.00">games/Menu/include</text>
<text text-anchor="middle" x="954.27" y="-194" font-family="Helvetica,sans-Serif" font-size="10.00">/Menu.hpp</text>
</a>
</g>
</g>
<!-- Node1&#45;&gt;Node8 -->
<g id="edge11_Node000001_Node000008" class="edge">
<title>Node1&#45;&gt;Node8</title>
<g id="a_edge11_Node000001_Node000008"><a xlink:title=" ">
<path fill="none" stroke="#63b8ff" d="M821.29,-249.58C848.17,-240.16 885.76,-227 914.12,-217.06"/>
<polygon fill="#63b8ff" stroke="#63b8ff" points="819.83,-246.38 811.55,-252.99 822.15,-252.99 819.83,-246.38"/>
</a>
</g>
</g>
<!-- Node9 -->
<g id="Node000009" class="node">
<title>Node9</title>
<g id="a_Node000009"><a xlink:href="Menu_8cpp.html" target="_top" xlink:title=" ">
<polygon fill="white" stroke="#666666" points="1061.77,-145.5 914.77,-145.5 914.77,-126.5 1061.77,-126.5 1061.77,-145.5"/>
<text text-anchor="middle" x="988.27" y="-133.5" font-family="Helvetica,sans-Serif" font-size="10.00">games/Menu/src/Menu.cpp</text>
</a>
</g>
</g>
<!-- Node1&#45;&gt;Node9 -->
<g id="edge13_Node000001_Node000009" class="edge">
<title>Node1&#45;&gt;Node9</title>
<g id="a_edge13_Node000001_Node000009"><a xlink:title=" ">
<path fill="none" stroke="#63b8ff" d="M805.44,-246.16C824.75,-230.27 856.54,-205.25 886.27,-187 913.5,-170.29 947.11,-154.71 968.12,-145.51"/>
<polygon fill="#63b8ff" stroke="#63b8ff" points="802.95,-243.68 797.5,-252.77 807.42,-249.06 802.95,-243.68"/>
</a>
</g>
</g>
<!-- Node10 -->
<g id="Node000010" class="node">
<title>Node10</title>
<g id="a_Node000010"><a xlink:href="MineSweeper_8hpp.html" target="_top" xlink:title=" ">
<polygon fill="white" stroke="#666666" points="1236.77,-151 1079.77,-151 1079.77,-121 1236.77,-121 1236.77,-151"/>
<text text-anchor="start" x="1087.77" y="-139" font-family="Helvetica,sans-Serif" font-size="10.00">games/MineSweeper/include</text>
<text text-anchor="middle" x="1158.27" y="-128" font-family="Helvetica,sans-Serif" font-size="10.00">/MineSweeper.hpp</text>
</a>
</g>
</g>
<!-- Node1&#45;&gt;Node10 -->
<g id="edge14_Node000001_Node000010" class="edge">
<title>Node1&#45;&gt;Node10</title>
<g id="a_edge14_Node000001_Node000010"><a xlink:title=" ">
<path fill="none" stroke="#63b8ff" d="M869.37,-253C915.38,-246.51 973.2,-235.44 1022.27,-217 1045.54,-208.26 1104.17,-171.7 1136.33,-151.16"/>
<polygon fill="#63b8ff" stroke="#63b8ff" points="868.88,-249.54 859.45,-254.36 869.83,-256.47 868.88,-249.54"/>
</a>
</g>
</g>
<!-- Node13 -->
<g id="Node000013" class="node">
<title>Node13</title>
<g id="a_Node000013"><a xlink:href="Snake_8hpp.html" target="_top" xlink:title=" ">
<polygon fill="white" stroke="#666666" points="1413.27,-151 1293.27,-151 1293.27,-121 1413.27,-121 1413.27,-151"/>
<text text-anchor="start" x="1301.27" y="-139" font-family="Helvetica,sans-Serif" font-size="10.00">games/Snake/include</text>
<text text-anchor="middle" x="1353.27" y="-128" font-family="Helvetica,sans-Serif" font-size="10.00">/Snake.hpp</text>
</a>
</g>
</g>
<!-- Node1&#45;&gt;Node13 -->
<g id="edge17_Node000001_Node000013" class="edge">
<title>Node1&#45;&gt;Node13</title>
<g id="a_edge17_Node000001_Node000013"><a xlink:title=" ">
<path fill="none" stroke="#63b8ff" d="M869.66,-260.67C989.12,-258.34 1203.76,-249.59 1273.27,-217 1304.57,-202.33 1330.64,-170.02 1343.88,-151.26"/>
<polygon fill="#63b8ff" stroke="#63b8ff" points="869.4,-257.17 859.46,-260.86 869.52,-264.17 869.4,-257.17"/>
</a>
</g>
</g>
<!-- Node14 -->
<g id="Node000014" class="node">
<title>Node14</title>
<g id="a_Node000014"><a xlink:href="Snake_8cpp.html" target="_top" xlink:title=" ">
<polygon fill="white" stroke="#666666" points="1429.27,-79.5 1277.27,-79.5 1277.27,-60.5 1429.27,-60.5 1429.27,-79.5"/>
<text text-anchor="middle" x="1353.27" y="-67.5" font-family="Helvetica,sans-Serif" font-size="10.00">games/Snake/src/Snake.cpp</text>
</a>
</g>
</g>
<!-- Node1&#45;&gt;Node14 -->
<g id="edge19_Node000001_Node000014" class="edge">
<title>Node1&#45;&gt;Node14</title>
<g id="a_edge19_Node000001_Node000014"><a xlink:title=" ">
<path fill="none" stroke="#63b8ff" d="M869.99,-258.77C995.55,-253.9 1227.99,-241.8 1307.27,-217 1363.51,-199.41 1392.74,-202 1422.27,-151 1428.95,-139.46 1428.33,-132.88 1422.27,-121 1412.25,-101.37 1390.52,-87.65 1374.1,-79.61"/>
<polygon fill="#63b8ff" stroke="#63b8ff" points="869.52,-255.29 859.66,-259.17 869.79,-262.28 869.52,-255.29"/>
</a>
</g>
</g>
<!-- Node15 -->
<g id="Node000015" class="node">
<title>Node15</title>
<g id="a_Node000015"><a xlink:href="GameMatrix_8hpp.html" target="_top" xlink:title=" ">
<polygon fill="white" stroke="#666666" points="1264.77,-211.5 1091.77,-211.5 1091.77,-192.5 1264.77,-192.5 1264.77,-211.5"/>
<text text-anchor="middle" x="1178.27" y="-199.5" font-family="Helvetica,sans-Serif" font-size="10.00">shared/include/GameMatrix.hpp</text>
</a>
</g>
</g>
<!-- Node1&#45;&gt;Node15 -->
<g id="edge20_Node000001_Node000015" class="edge">
<title>Node1&#45;&gt;Node15</title>
<g id="a_edge20_Node000001_Node000015"><a xlink:title=" ">
<path fill="none" stroke="#63b8ff" d="M854.44,-251.45C929.73,-240.19 1050.51,-222.11 1121.35,-211.52"/>
<polygon fill="#63b8ff" stroke="#63b8ff" points="853.5,-248.05 844.12,-252.99 854.53,-254.98 853.5,-248.05"/>
</a>
</g>
</g>
<!-- Node16 -->
<g id="Node000016" class="node">
<title>Node16</title>
<g id="a_Node000016"><a xlink:href="IDisplay_8hpp.html" target="_top" xlink:title=" ">
<polygon fill="white" stroke="#666666" points="781.27,-211.5 631.27,-211.5 631.27,-192.5 781.27,-192.5 781.27,-211.5"/>
<text text-anchor="middle" x="706.27" y="-199.5" font-family="Helvetica,sans-Serif" font-size="10.00">shared/include/IDisplay.hpp</text>
</a>
</g>
</g>
<!-- Node1&#45;&gt;Node16 -->
<g id="edge24_Node000001_Node000016" class="edge">
<title>Node1&#45;&gt;Node16</title>
<g id="a_edge24_Node000001_Node000016"><a xlink:title=" ">
<path fill="none" stroke="#63b8ff" d="M766.98,-246.85C751.64,-235.77 731.09,-220.93 718.27,-211.67"/>
<polygon fill="#63b8ff" stroke="#63b8ff" points="765.16,-249.85 775.32,-252.87 769.26,-244.18 765.16,-249.85"/>
</a>
</g>
</g>
<!-- Node2&#45;&gt;Node3 -->
<g id="edge2_Node000002_Node000003" class="edge">
<title>Node2&#45;&gt;Node3</title>
<g id="a_edge2_Node000002_Node000003"><a xlink:title=" ">
<path fill="none" stroke="#63b8ff" d="M116.06,-54.97C134.15,-43.82 158.87,-28.6 174.19,-19.17"/>
<polygon fill="#63b8ff" stroke="#63b8ff" points="113.97,-52.14 107.29,-60.37 117.64,-58.1 113.97,-52.14"/>
</a>
</g>
</g>
<!-- Node4 -->
<g id="Node000004" class="node">
<title>Node4</title>
<g id="a_Node000004"><a xlink:href="main_8cpp.html" target="_top" xlink:title=" ">
<polygon fill="white" stroke="#666666" points="113.77,-19 10.77,-19 10.77,0 113.77,0 113.77,-19"/>
<text text-anchor="middle" x="62.27" y="-7" font-family="Helvetica,sans-Serif" font-size="10.00">core/src/main.cpp</text>
</a>
</g>
</g>
<!-- Node2&#45;&gt;Node4 -->
<g id="edge3_Node000002_Node000004" class="edge">
<title>Node2&#45;&gt;Node4</title>
<g id="a_edge3_Node000002_Node000004"><a xlink:title=" ">
<path fill="none" stroke="#63b8ff" d="M83.98,-51.48C78.33,-40.81 71.36,-27.65 66.86,-19.17"/>
<polygon fill="#63b8ff" stroke="#63b8ff" points="80.92,-53.17 88.69,-60.37 87.1,-49.89 80.92,-53.17"/>
</a>
</g>
</g>
<!-- Node5&#45;&gt;Node2 -->
<g id="edge5_Node000005_Node000002" class="edge">
<title>Node5&#45;&gt;Node2</title>
<g id="a_edge5_Node000005_Node000002"><a xlink:title=" ">
<path fill="none" stroke="#63b8ff" d="M197.26,-186.32C184.48,-176.92 168.19,-164.07 155.27,-151 132.04,-127.51 109.49,-95.37 99.15,-79.96"/>
<polygon fill="#63b8ff" stroke="#63b8ff" points="195.3,-189.22 205.46,-192.23 199.39,-183.54 195.3,-189.22"/>
</a>
</g>
</g>
<!-- Node5&#45;&gt;Node3 -->
<g id="edge6_Node000005_Node000003" class="edge">
<title>Node5&#45;&gt;Node3</title>
<g id="a_edge6_Node000005_Node000003"><a xlink:title=" ">
<path fill="none" stroke="#63b8ff" d="M205.08,-184.25C198.65,-175.01 191.59,-163 188.27,-151 174.92,-102.81 182.95,-41.7 186.68,-19.27"/>
<polygon fill="#63b8ff" stroke="#63b8ff" points="202.39,-186.5 211.15,-192.47 208.02,-182.34 202.39,-186.5"/>
</a>
</g>
</g>
<!-- Node5&#45;&gt;Node6 -->
<g id="edge7_Node000005_Node000006" class="edge">
<title>Node5&#45;&gt;Node6</title>
<g id="a_edge7_Node000005_Node000006"><a xlink:title=" ">
<path fill="none" stroke="#63b8ff" d="M227.45,-183.18C233.71,-171.05 241.72,-155.51 246.68,-145.91"/>
<polygon fill="#63b8ff" stroke="#63b8ff" points="224.19,-181.88 222.72,-192.37 230.41,-185.08 224.19,-181.88"/>
</a>
</g>
</g>
<!-- Node8&#45;&gt;Node9 -->
<g id="edge12_Node000008_Node000009" class="edge">
<title>Node8&#45;&gt;Node9</title>
<g id="a_edge12_Node000008_Node000009"><a xlink:title=" ">
<path fill="none" stroke="#63b8ff" d="M966.52,-177.95C972.43,-166.81 979.18,-154.11 983.57,-145.84"/>
<polygon fill="#63b8ff" stroke="#63b8ff" points="963.42,-176.32 961.81,-186.8 969.6,-179.61 963.42,-176.32"/>
</a>
</g>
</g>
<!-- Node11 -->
<g id="Node000011" class="node">
<title>Node11</title>
<g id="a_Node000011"><a xlink:href="MineSweeper_8cpp.html" target="_top" xlink:title=" ">
<polygon fill="white" stroke="#666666" points="1088.27,-85 952.27,-85 952.27,-55 1088.27,-55 1088.27,-85"/>
<text text-anchor="start" x="960.27" y="-73" font-family="Helvetica,sans-Serif" font-size="10.00">games/MineSweeper/src</text>
<text text-anchor="middle" x="1020.27" y="-62" font-family="Helvetica,sans-Serif" font-size="10.00">/MineSweeper.cpp</text>
</a>
</g>
</g>
<!-- Node10&#45;&gt;Node11 -->
<g id="edge15_Node000010_Node000011" class="edge">
<title>Node10&#45;&gt;Node11</title>
<g id="a_edge15_Node000010_Node000011"><a xlink:title=" ">
<path fill="none" stroke="#63b8ff" d="M1118.7,-116.65C1097,-106.58 1070.51,-94.3 1050.48,-85.01"/>
<polygon fill="#63b8ff" stroke="#63b8ff" points="1117.44,-119.92 1127.98,-120.95 1120.38,-113.57 1117.44,-119.92"/>
</a>
</g>
</g>
<!-- Node12 -->
<g id="Node000012" class="node">
<title>Node12</title>
<g id="a_Node000012"><a xlink:href="symEntry_8cpp.html" target="_top" xlink:title=" ">
<polygon fill="white" stroke="#666666" points="1242.27,-85 1106.27,-85 1106.27,-55 1242.27,-55 1242.27,-85"/>
<text text-anchor="start" x="1114.27" y="-73" font-family="Helvetica,sans-Serif" font-size="10.00">games/MineSweeper/src</text>
<text text-anchor="middle" x="1174.27" y="-62" font-family="Helvetica,sans-Serif" font-size="10.00">/symEntry.cpp</text>
</a>
</g>
</g>
<!-- Node10&#45;&gt;Node12 -->
<g id="edge16_Node000010_Node000012" class="edge">
<title>Node10&#45;&gt;Node12</title>
<g id="a_edge16_Node000010_Node000012"><a xlink:title=" ">
<path fill="none" stroke="#63b8ff" d="M1164.31,-110.83C1166.48,-102.17 1168.84,-92.7 1170.73,-85.16"/>
<polygon fill="#63b8ff" stroke="#63b8ff" points="1160.85,-110.25 1161.82,-120.8 1167.64,-111.94 1160.85,-110.25"/>
</a>
</g>
</g>
<!-- Node13&#45;&gt;Node14 -->
<g id="edge18_Node000013_Node000014" class="edge">
<title>Node13&#45;&gt;Node14</title>
<g id="a_edge18_Node000013_Node000014"><a xlink:title=" ">
<path fill="none" stroke="#63b8ff" d="M1353.27,-110.6C1353.27,-99.8 1353.27,-87.78 1353.27,-79.84"/>
<polygon fill="#63b8ff" stroke="#63b8ff" points="1349.77,-110.8 1353.27,-120.8 1356.77,-110.8 1349.77,-110.8"/>
</a>
</g>
</g>
<!-- Node15&#45;&gt;Node10 -->
<g id="edge21_Node000015_Node000010" class="edge">
<title>Node15&#45;&gt;Node10</title>
<g id="a_edge21_Node000015_Node000010"><a xlink:title=" ">
<path fill="none" stroke="#63b8ff" d="M1172.54,-182.67C1169.43,-172.72 1165.65,-160.61 1162.76,-151.36"/>
<polygon fill="#63b8ff" stroke="#63b8ff" points="1169.25,-183.87 1175.57,-192.37 1175.93,-181.78 1169.25,-183.87"/>
</a>
</g>
</g>
<!-- Node15&#45;&gt;Node13 -->
<g id="edge22_Node000015_Node000013" class="edge">
<title>Node15&#45;&gt;Node13</title>
<g id="a_edge22_Node000015_Node000013"><a xlink:title=" ">
<path fill="none" stroke="#63b8ff" d="M1211.28,-188.93C1240.67,-178.18 1283.69,-162.44 1314.67,-151.12"/>
<polygon fill="#63b8ff" stroke="#63b8ff" points="1210.06,-185.65 1201.87,-192.37 1212.46,-192.22 1210.06,-185.65"/>
</a>
</g>
</g>
<!-- Node15&#45;&gt;Node14 -->
<g id="edge23_Node000015_Node000014" class="edge">
<title>Node15&#45;&gt;Node14</title>
<g id="a_edge23_Node000015_Node000014"><a xlink:title=" ">
<path fill="none" stroke="#63b8ff" d="M1198.21,-186.24C1211.56,-176.32 1229.52,-162.94 1245.27,-151 1262.7,-137.79 1266.75,-134.08 1284.27,-121 1304.06,-106.22 1327.4,-89.44 1341.23,-79.57"/>
<polygon fill="#63b8ff" stroke="#63b8ff" points="1196.12,-183.43 1190.17,-192.2 1200.29,-189.05 1196.12,-183.43"/>
</a>
</g>
</g>
<!-- Node16&#45;&gt;Node7 -->
<g id="edge29_Node000016_Node000007" class="edge">
<title>Node16&#45;&gt;Node7</title>
<g id="a_edge29_Node000016_Node000007"><a xlink:title=" ">
<path fill="none" stroke="#63b8ff" d="M637.2,-190.25C606.33,-182.93 570.78,-170.84 543.27,-151 516.71,-131.85 497.93,-96.43 490.19,-79.91"/>
<polygon fill="#63b8ff" stroke="#63b8ff" points="636.52,-193.68 647.04,-192.45 638.05,-186.85 636.52,-193.68"/>
</a>
</g>
</g>
<!-- Node17 -->
<g id="Node000017" class="node">
<title>Node17</title>
<g id="a_Node000017"><a xlink:href="Display_8hpp.html" target="_top" xlink:title=" ">
<polygon fill="white" stroke="#666666" points="457.77,-145.5 322.77,-145.5 322.77,-126.5 457.77,-126.5 457.77,-145.5"/>
<text text-anchor="middle" x="390.27" y="-133.5" font-family="Helvetica,sans-Serif" font-size="10.00">core/include/Display.hpp</text>
</a>
</g>
</g>
<!-- Node16&#45;&gt;Node17 -->
<g id="edge25_Node000016_Node000017" class="edge">
<title>Node16&#45;&gt;Node17</title>
<g id="a_edge25_Node000016_Node000017"><a xlink:title=" ">
<path fill="none" stroke="#63b8ff" d="M654,-190.41C591.9,-177.84 489.53,-157.1 432.31,-145.51"/>
<polygon fill="#63b8ff" stroke="#63b8ff" points="653.48,-193.88 663.98,-192.44 654.87,-187.02 653.48,-193.88"/>
</a>
</g>
</g>
<!-- Node18 -->
<g id="Node000018" class="node">
<title>Node18</title>
<g id="a_Node000018"><a xlink:href="SDL2_8hpp.html" target="_top" xlink:title=" ">
<polygon fill="white" stroke="#666666" points="896.27,-151 772.27,-151 772.27,-121 896.27,-121 896.27,-151"/>
<text text-anchor="start" x="780.27" y="-139" font-family="Helvetica,sans-Serif" font-size="10.00">graphics/SDL2/include</text>
<text text-anchor="middle" x="834.27" y="-128" font-family="Helvetica,sans-Serif" font-size="10.00">/SDL2.hpp</text>
</a>
</g>
</g>
<!-- Node16&#45;&gt;Node18 -->
<g id="edge30_Node000016_Node000018" class="edge">
<title>Node16&#45;&gt;Node18</title>
<g id="a_edge30_Node000016_Node000018"><a xlink:title=" ">
<path fill="none" stroke="#63b8ff" d="M732.69,-187.79C754.09,-177.09 784.17,-162.05 806.04,-151.12"/>
<polygon fill="#63b8ff" stroke="#63b8ff" points="730.91,-184.77 723.53,-192.37 734.04,-191.03 730.91,-184.77"/>
</a>
</g>
</g>
<!-- Node19 -->
<g id="Node000019" class="node">
<title>Node19</title>
<g id="a_Node000019"><a xlink:href="SDL2_8cpp.html" target="_top" xlink:title=" ">
<polygon fill="white" stroke="#666666" points="897.77,-79.5 746.77,-79.5 746.77,-60.5 897.77,-60.5 897.77,-79.5"/>
<text text-anchor="middle" x="822.27" y="-67.5" font-family="Helvetica,sans-Serif" font-size="10.00">graphics/SDL2/src/SDL2.cpp</text>
</a>
</g>
</g>
<!-- Node16&#45;&gt;Node19 -->
<g id="edge32_Node000016_Node000019" class="edge">
<title>Node16&#45;&gt;Node19</title>
<g id="a_edge32_Node000016_Node000019"><a xlink:title=" ">
<path fill="none" stroke="#63b8ff" d="M717.09,-183.25C727.78,-166.38 745.13,-140.73 763.27,-121 777.99,-104.99 797.71,-89.22 810.2,-79.8"/>
<polygon fill="#63b8ff" stroke="#63b8ff" points="713.92,-181.72 711.6,-192.06 719.86,-185.42 713.92,-181.72"/>
</a>
</g>
</g>
<!-- Node20 -->
<g id="Node000020" class="node">
<title>Node20</title>
<g id="a_Node000020"><a xlink:href="SFML_8hpp.html" target="_top" xlink:title=" ">
<polygon fill="white" stroke="#666666" points="677.77,-151 552.77,-151 552.77,-121 677.77,-121 677.77,-151"/>
<text text-anchor="start" x="560.77" y="-139" font-family="Helvetica,sans-Serif" font-size="10.00">graphics/SFML/include</text>
<text text-anchor="middle" x="615.27" y="-128" font-family="Helvetica,sans-Serif" font-size="10.00">/SFML.hpp</text>
</a>
</g>
</g>
<!-- Node16&#45;&gt;Node20 -->
<g id="edge33_Node000016_Node000020" class="edge">
<title>Node16&#45;&gt;Node20</title>
<g id="a_edge33_Node000016_Node000020"><a xlink:title=" ">
<path fill="none" stroke="#63b8ff" d="M685.82,-186.62C670.74,-176.01 650.33,-161.66 635.34,-151.12"/>
<polygon fill="#63b8ff" stroke="#63b8ff" points="683.8,-189.48 694,-192.37 687.83,-183.75 683.8,-189.48"/>
</a>
</g>
</g>
<!-- Node21 -->
<g id="Node000021" class="node">
<title>Node21</title>
<g id="a_Node000021"><a xlink:href="SFML_8cpp.html" target="_top" xlink:title=" ">
<polygon fill="white" stroke="#666666" points="722.27,-79.5 568.27,-79.5 568.27,-60.5 722.27,-60.5 722.27,-79.5"/>
<text text-anchor="middle" x="645.27" y="-67.5" font-family="Helvetica,sans-Serif" font-size="10.00">graphics/SFML/src/SFML.cpp</text>
</a>
</g>
</g>
<!-- Node16&#45;&gt;Node21 -->
<g id="edge35_Node000016_Node000021" class="edge">
<title>Node16&#45;&gt;Node21</title>
<g id="a_edge35_Node000016_Node000021"><a xlink:title=" ">
<path fill="none" stroke="#63b8ff" d="M703.93,-181.99C701.31,-165.24 696.09,-140.54 686.27,-121 678.1,-104.75 663.85,-89.05 654.49,-79.7"/>
<polygon fill="#63b8ff" stroke="#63b8ff" points="700.5,-182.73 705.34,-192.15 707.43,-181.77 700.5,-182.73"/>
</a>
</g>
</g>
<!-- Node17&#45;&gt;Node2 -->
<g id="edge26_Node000017_Node000002" class="edge">
<title>Node17&#45;&gt;Node2</title>
<g id="a_edge26_Node000017_Node000002"><a xlink:title=" ">
<path fill="none" stroke="#63b8ff" d="M340.42,-124.26C281.98,-111.67 186.34,-91.06 132.78,-79.51"/>
<polygon fill="#63b8ff" stroke="#63b8ff" points="340.01,-127.75 350.52,-126.44 341.48,-120.91 340.01,-127.75"/>
</a>
</g>
</g>
<!-- Node17&#45;&gt;Node3 -->
<g id="edge27_Node000017_Node000003" class="edge">
<title>Node17&#45;&gt;Node3</title>
<g id="a_edge27_Node000017_Node000003"><a xlink:title=" ">
<path fill="none" stroke="#63b8ff" d="M367.71,-121.09C325.7,-95.2 236.66,-40.33 202.25,-19.12"/>
<polygon fill="#63b8ff" stroke="#63b8ff" points="366.03,-124.18 376.38,-126.44 369.71,-118.22 366.03,-124.18"/>
</a>
</g>
</g>
<!-- Node17&#45;&gt;Node7 -->
<g id="edge28_Node000017_Node000007" class="edge">
<title>Node17&#45;&gt;Node7</title>
<g id="a_edge28_Node000017_Node000007"><a xlink:title=" ">
<path fill="none" stroke="#63b8ff" d="M411.75,-120.68C430.61,-108.11 457.43,-90.23 473.22,-79.7"/>
<polygon fill="#63b8ff" stroke="#63b8ff" points="409.59,-117.91 403.22,-126.37 413.48,-123.73 409.59,-117.91"/>
</a>
</g>
</g>
<!-- Node18&#45;&gt;Node19 -->
<g id="edge31_Node000018_Node000019" class="edge">
<title>Node18&#45;&gt;Node19</title>
<g id="a_edge31_Node000018_Node000019"><a xlink:title=" ">
<path fill="none" stroke="#63b8ff" d="M829.76,-110.94C827.72,-100.06 825.43,-87.86 823.93,-79.84"/>
<polygon fill="#63b8ff" stroke="#63b8ff" points="826.32,-111.61 831.61,-120.8 833.2,-110.32 826.32,-111.61"/>
</a>
</g>
</g>
<!-- Node20&#45;&gt;Node21 -->
<g id="edge34_Node000020_Node000021" class="edge">
<title>Node20&#45;&gt;Node21</title>
<g id="a_edge34_Node000020_Node000021"><a xlink:title=" ">
<path fill="none" stroke="#63b8ff" d="M626.23,-111.61C631.41,-100.56 637.29,-88.03 641.12,-79.84"/>
<polygon fill="#63b8ff" stroke="#63b8ff" points="623,-110.26 621.93,-120.8 629.34,-113.23 623,-110.26"/>
</a>
</g>
</g>
</g>
</svg>
