<?xml version="1.0" encoding="UTF-8" standalone="no"?>
<!DOCTYPE svg PUBLIC "-//W3C//DTD SVG 1.1//EN"
 "http://www.w3.org/Graphics/SVG/1.1/DTD/svg11.dtd">
<!-- Generated by graphviz version 2.43.0 (0)
 -->
<!-- Title: shared/include/IGame.hpp Pages: 1 -->
<svg width="1335pt" height="269pt"
 viewBox="0.00 0.00 1335.35 269.00" xmlns="http://www.w3.org/2000/svg" xmlns:xlink="http://www.w3.org/1999/xlink">
<g id="graph0" class="graph" transform="scale(1 1) rotate(0) translate(4 265)">
<title>shared/include/IGame.hpp</title>
<!-- Node1 -->
<g id="Node000001" class="node">
<title>Node1</title>
<g id="a_Node000001"><a xlink:title=" ">
<polygon fill="#999999" stroke="#666666" points="690.85,-261 546.85,-261 546.85,-242 690.85,-242 690.85,-261"/>
<text text-anchor="middle" x="618.85" y="-249" font-family="Helvetica,sans-Serif" font-size="10.00">shared/include/IGame.hpp</text>
</a>
</g>
</g>
<!-- Node2 -->
<g id="Node000002" class="node">
<title>Node2</title>
<g id="a_Node000002"><a xlink:href="Arcade_8hpp.html" target="_top" xlink:title=" ">
<polygon fill="white" stroke="#666666" points="158.85,-74 24.85,-74 24.85,-55 158.85,-55 158.85,-74"/>
<text text-anchor="middle" x="91.85" y="-62" font-family="Helvetica,sans-Serif" font-size="10.00">core/include/Arcade.hpp</text>
</a>
</g>
</g>
<!-- Node1&#45;&gt;Node2 -->
<g id="edge1_Node000001_Node000002" class="edge">
<title>Node1&#45;&gt;Node2</title>
<g id="a_edge1_Node000001_Node000002"><a xlink:title=" ">
<path fill="none" stroke="#63b8ff" d="M536.31,-247.55C408.26,-242.26 173.22,-229.47 142.85,-206 99.73,-172.68 93.04,-99.48 92.02,-74.25"/>
<polygon fill="#63b8ff" stroke="#63b8ff" points="536.34,-251.05 546.47,-247.96 536.62,-244.06 536.34,-251.05"/>
</a>
</g>
</g>
<!-- Node3 -->
<g id="Node000003" class="node">
<title>Node3</title>
<g id="a_Node000003"><a xlink:href="Arcade_8cpp.html" target="_top" xlink:title=" ">
<polygon fill="white" stroke="#666666" points="242.85,-19 130.85,-19 130.85,0 242.85,0 242.85,-19"/>
<text text-anchor="middle" x="186.85" y="-7" font-family="Helvetica,sans-Serif" font-size="10.00">core/src/Arcade.cpp</text>
</a>
</g>
</g>
<!-- Node1&#45;&gt;Node3 -->
<g id="edge8_Node000001_Node000003" class="edge">
<title>Node1&#45;&gt;Node3</title>
<g id="a_edge8_Node000001_Node000003"><a xlink:title=" ">
<path fill="none" stroke="#63b8ff" d="M536.62,-251.24C412.71,-251.03 185.13,-245.1 114.85,-206 44.72,-166.99 -33.23,-118.49 15.85,-55 29.92,-36.8 86.21,-24.65 130.41,-17.71"/>
<polygon fill="#63b8ff" stroke="#63b8ff" points="536.82,-254.74 546.82,-251.25 536.82,-247.74 536.82,-254.74"/>
</a>
</g>
</g>
<!-- Node5 -->
<g id="Node000005" class="node">
<title>Node5</title>
<g id="a_Node000005"><a xlink:href="Game_8hpp.html" target="_top" xlink:title=" ">
<polygon fill="white" stroke="#666666" points="281.35,-200.5 152.35,-200.5 152.35,-181.5 281.35,-181.5 281.35,-200.5"/>
<text text-anchor="middle" x="216.85" y="-188.5" font-family="Helvetica,sans-Serif" font-size="10.00">core/include/Game.hpp</text>
</a>
</g>
</g>
<!-- Node1&#45;&gt;Node5 -->
<g id="edge4_Node000001_Node000005" class="edge">
<title>Node1&#45;&gt;Node5</title>
<g id="a_edge4_Node000001_Node000005"><a xlink:title=" ">
<path fill="none" stroke="#63b8ff" d="M550.27,-240.52C472.89,-229.26 348.35,-211.14 275.38,-200.52"/>
<polygon fill="#63b8ff" stroke="#63b8ff" points="550,-244.02 560.4,-241.99 551,-237.09 550,-244.02"/>
</a>
</g>
</g>
<!-- Node6 -->
<g id="Node000006" class="node">
<title>Node6</title>
<g id="a_Node000006"><a xlink:href="Game_8cpp.html" target="_top" xlink:title=" ">
<polygon fill="white" stroke="#666666" points="303.35,-134.5 196.35,-134.5 196.35,-115.5 303.35,-115.5 303.35,-134.5"/>
<text text-anchor="middle" x="249.85" y="-122.5" font-family="Helvetica,sans-Serif" font-size="10.00">core/src/Game.cpp</text>
</a>
</g>
</g>
<!-- Node1&#45;&gt;Node6 -->
<g id="edge10_Node000001_Node000006" class="edge">
<title>Node1&#45;&gt;Node6</title>
<g id="a_edge10_Node000001_Node000006"><a xlink:title=" ">
<path fill="none" stroke="#63b8ff" d="M579,-239.16C549.1,-230.5 507.24,-218.05 470.85,-206 397.64,-181.76 312.07,-149.71 272.3,-134.59"/>
<polygon fill="#63b8ff" stroke="#63b8ff" points="578.07,-242.54 588.65,-241.95 580.01,-235.82 578.07,-242.54"/>
</a>
</g>
</g>
<!-- Node7 -->
<g id="Node000007" class="node">
<title>Node7</title>
<g id="a_Node000007"><a xlink:href="Display_8cpp.html" target="_top" xlink:title=" ">
<polygon fill="white" stroke="#666666" points="541.35,-74 428.35,-74 428.35,-55 541.35,-55 541.35,-74"/>
<text text-anchor="middle" x="484.85" y="-62" font-family="Helvetica,sans-Serif" font-size="10.00">core/src/Display.cpp</text>
</a>
</g>
</g>
<!-- Node1&#45;&gt;Node7 -->
<g id="edge9_Node000001_Node000007" class="edge">
<title>Node1&#45;&gt;Node7</title>
<g id="a_edge9_Node000001_Node000007"><a xlink:title=" ">
<path fill="none" stroke="#63b8ff" d="M582.28,-238.16C565.85,-231.01 547.39,-220.51 534.85,-206 499.63,-165.26 488.64,-97.97 485.75,-74.17"/>
<polygon fill="#63b8ff" stroke="#63b8ff" points="581.07,-241.45 591.65,-241.99 583.71,-234.97 581.07,-241.45"/>
</a>
</g>
</g>
<!-- Node8 -->
<g id="Node000008" class="node">
<title>Node8</title>
<g id="a_Node000008"><a xlink:href="Menu_8hpp.html" target="_top" xlink:title=" ">
<polygon fill="white" stroke="#666666" points="1000.85,-206 882.85,-206 882.85,-176 1000.85,-176 1000.85,-206"/>
<text text-anchor="start" x="890.85" y="-194" font-family="Helvetica,sans-Serif" font-size="10.00">games/Menu/include</text>
<text text-anchor="middle" x="941.85" y="-183" font-family="Helvetica,sans-Serif" font-size="10.00">/Menu.hpp</text>
</a>
</g>
</g>
<!-- Node1&#45;&gt;Node8 -->
<g id="edge11_Node000001_Node000008" class="edge">
<title>Node1&#45;&gt;Node8</title>
<g id="a_edge11_Node000001_Node000008"><a xlink:title=" ">
<path fill="none" stroke="#63b8ff" d="M675.94,-240.16C734.1,-229.63 823.88,-213.37 882.76,-202.7"/>
<polygon fill="#63b8ff" stroke="#63b8ff" points="675.03,-236.77 665.82,-241.99 676.28,-243.66 675.03,-236.77"/>
</a>
</g>
</g>
<!-- Node9 -->
<g id="Node000009" class="node">
<title>Node9</title>
<g id="a_Node000009"><a xlink:href="Menu_8cpp.html" target="_top" xlink:title=" ">
<polygon fill="white" stroke="#666666" points="1059.35,-134.5 912.35,-134.5 912.35,-115.5 1059.35,-115.5 1059.35,-134.5"/>
<text text-anchor="middle" x="985.85" y="-122.5" font-family="Helvetica,sans-Serif" font-size="10.00">games/Menu/src/Menu.cpp</text>
</a>
</g>
</g>
<!-- Node1&#45;&gt;Node9 -->
<g id="edge13_Node000001_Node000009" class="edge">
<title>Node1&#45;&gt;Node9</title>
<g id="a_edge13_Node000001_Node000009"><a xlink:title=" ">
<path fill="none" stroke="#63b8ff" d="M653.79,-238.65C727.25,-213.73 896.22,-156.41 960.45,-134.62"/>
<polygon fill="#63b8ff" stroke="#63b8ff" points="652.42,-235.42 644.08,-241.94 654.67,-242.04 652.42,-235.42"/>
</a>
</g>
</g>
<!-- Node10 -->
<g id="Node000010" class="node">
<title>Node10</title>
<g id="a_Node000010"><a xlink:href="Snake_8hpp.html" target="_top" xlink:title=" ">
<polygon fill="white" stroke="#666666" points="1235.85,-140 1115.85,-140 1115.85,-110 1235.85,-110 1235.85,-140"/>
<text text-anchor="start" x="1123.85" y="-128" font-family="Helvetica,sans-Serif" font-size="10.00">games/Snake/include</text>
<text text-anchor="middle" x="1175.85" y="-117" font-family="Helvetica,sans-Serif" font-size="10.00">/Snake.hpp</text>
</a>
</g>
</g>
<!-- Node1&#45;&gt;Node10 -->
<g id="edge14_Node000001_Node000010" class="edge">
<title>Node1&#45;&gt;Node10</title>
<g id="a_edge14_Node000001_Node000010"><a xlink:title=" ">
<path fill="none" stroke="#63b8ff" d="M701.38,-249.96C820.41,-247.99 1033.51,-239.7 1101.85,-206 1131.72,-191.27 1155.49,-158.98 1167.44,-140.24"/>
<polygon fill="#63b8ff" stroke="#63b8ff" points="701.16,-246.46 691.21,-250.11 701.27,-253.46 701.16,-246.46"/>
</a>
</g>
</g>
<!-- Node11 -->
<g id="Node000011" class="node">
<title>Node11</title>
<g id="a_Node000011"><a xlink:href="Snake_8cpp.html" target="_top" xlink:title=" ">
<polygon fill="white" stroke="#666666" points="1251.85,-74 1099.85,-74 1099.85,-55 1251.85,-55 1251.85,-74"/>
<text text-anchor="middle" x="1175.85" y="-62" font-family="Helvetica,sans-Serif" font-size="10.00">games/Snake/src/Snake.cpp</text>
</a>
</g>
</g>
<!-- Node1&#45;&gt;Node11 -->
<g id="edge16_Node000001_Node000011" class="edge">
<title>Node1&#45;&gt;Node11</title>
<g id="a_edge16_Node000001_Node000011"><a xlink:title=" ">
<path fill="none" stroke="#63b8ff" d="M701.37,-247.42C799.62,-242.67 957.04,-231.3 1009.85,-206 1064.55,-179.79 1059.55,-147.97 1106.85,-110 1124.3,-95.99 1146.3,-82.43 1160.7,-74.03"/>
<polygon fill="#63b8ff" stroke="#63b8ff" points="701,-243.94 691.17,-247.9 701.33,-250.93 701,-243.94"/>
</a>
</g>
</g>
<!-- Node12 -->
<g id="Node000012" class="node">
<title>Node12</title>
<g id="a_Node000012"><a xlink:href="GameMatrix_8hpp.html" target="_top" xlink:title=" ">
<polygon fill="white" stroke="#666666" points="1327.35,-200.5 1154.35,-200.5 1154.35,-181.5 1327.35,-181.5 1327.35,-200.5"/>
<text text-anchor="middle" x="1240.85" y="-188.5" font-family="Helvetica,sans-Serif" font-size="10.00">shared/include/GameMatrix.hpp</text>
</a>
</g>
</g>
<!-- Node1&#45;&gt;Node12 -->
<g id="edge17_Node000001_Node000012" class="edge">
<title>Node1&#45;&gt;Node12</title>
<g id="a_edge17_Node000001_Node000012"><a xlink:title=" ">
<path fill="none" stroke="#63b8ff" d="M701.03,-244.82C803.81,-237.41 985.09,-223.32 1139.85,-206 1153.92,-204.42 1169.07,-202.47 1183.23,-200.52"/>
<polygon fill="#63b8ff" stroke="#63b8ff" points="700.75,-241.33 691.03,-245.54 701.25,-248.31 700.75,-241.33"/>
</a>
</g>
</g>
<!-- Node13 -->
<g id="Node000013" class="node">
<title>Node13</title>
<g id="a_Node000013"><a xlink:href="IDisplay_8hpp.html" target="_top" xlink:title=" ">
<polygon fill="white" stroke="#666666" points="693.85,-200.5 543.85,-200.5 543.85,-181.5 693.85,-181.5 693.85,-200.5"/>
<text text-anchor="middle" x="618.85" y="-188.5" font-family="Helvetica,sans-Serif" font-size="10.00">shared/include/IDisplay.hpp</text>
</a>
</g>
</g>
<!-- Node1&#45;&gt;Node13 -->
<g id="edge20_Node000001_Node000013" class="edge">
<title>Node1&#45;&gt;Node13</title>
<g id="a_edge20_Node000001_Node000013"><a xlink:title=" ">
<path fill="none" stroke="#63b8ff" d="M618.85,-231.66C618.85,-221.24 618.85,-208.8 618.85,-200.67"/>
<polygon fill="#63b8ff" stroke="#63b8ff" points="615.35,-231.87 618.85,-241.87 622.35,-231.87 615.35,-231.87"/>
</a>
</g>
</g>
<!-- Node2&#45;&gt;Node3 -->
<g id="edge2_Node000002_Node000003" class="edge">
<title>Node2&#45;&gt;Node3</title>
<g id="a_edge2_Node000002_Node000003"><a xlink:title=" ">
<path fill="none" stroke="#63b8ff" d="M116.11,-49.97C133.48,-40.28 156.34,-27.52 171.31,-19.17"/>
<polygon fill="#63b8ff" stroke="#63b8ff" points="114.14,-47.06 107.11,-54.98 117.55,-53.17 114.14,-47.06"/>
</a>
</g>
</g>
<!-- Node4 -->
<g id="Node000004" class="node">
<title>Node4</title>
<g id="a_Node000004"><a xlink:href="main_8cpp.html" target="_top" xlink:title=" ">
<polygon fill="white" stroke="#666666" points="112.35,-19 9.35,-19 9.35,0 112.35,0 112.35,-19"/>
<text text-anchor="middle" x="60.85" y="-7" font-family="Helvetica,sans-Serif" font-size="10.00">core/src/main.cpp</text>
</a>
</g>
</g>
<!-- Node2&#45;&gt;Node4 -->
<g id="edge3_Node000002_Node000004" class="edge">
<title>Node2&#45;&gt;Node4</title>
<g id="a_edge3_Node000002_Node000004"><a xlink:title=" ">
<path fill="none" stroke="#63b8ff" d="M81.67,-46.1C76.38,-37.04 70.13,-26.37 65.87,-19.09"/>
<polygon fill="#63b8ff" stroke="#63b8ff" points="78.66,-47.88 86.73,-54.75 84.7,-44.35 78.66,-47.88"/>
</a>
</g>
</g>
<!-- Node5&#45;&gt;Node2 -->
<g id="edge5_Node000005_Node000002" class="edge">
<title>Node5&#45;&gt;Node2</title>
<g id="a_edge5_Node000005_Node000002"><a xlink:title=" ">
<path fill="none" stroke="#63b8ff" d="M196.47,-175.51C183.68,-166.02 167.16,-153 153.85,-140 131.46,-118.13 108.88,-88.71 98.2,-74.26"/>
<polygon fill="#63b8ff" stroke="#63b8ff" points="194.49,-178.4 204.64,-181.47 198.62,-172.75 194.49,-178.4"/>
</a>
</g>
</g>
<!-- Node5&#45;&gt;Node3 -->
<g id="edge6_Node000005_Node000003" class="edge">
<title>Node5&#45;&gt;Node3</title>
<g id="a_edge6_Node000005_Node000003"><a xlink:title=" ">
<path fill="none" stroke="#63b8ff" d="M203.66,-173.25C197.23,-164.01 190.17,-152 186.85,-140 174.67,-96.02 181.81,-40.36 185.28,-19.2"/>
<polygon fill="#63b8ff" stroke="#63b8ff" points="200.97,-175.5 209.73,-181.47 206.6,-171.34 200.97,-175.5"/>
</a>
</g>
</g>
<!-- Node5&#45;&gt;Node6 -->
<g id="edge7_Node000005_Node000006" class="edge">
<title>Node5&#45;&gt;Node6</title>
<g id="a_edge7_Node000005_Node000006"><a xlink:title=" ">
<path fill="none" stroke="#63b8ff" d="M226.04,-172.18C232.29,-160.05 240.31,-144.51 245.26,-134.91"/>
<polygon fill="#63b8ff" stroke="#63b8ff" points="222.77,-170.88 221.3,-181.37 228.99,-174.08 222.77,-170.88"/>
</a>
</g>
</g>
<!-- Node8&#45;&gt;Node9 -->
<g id="edge12_Node000008_Node000009" class="edge">
<title>Node8&#45;&gt;Node9</title>
<g id="a_edge12_Node000008_Node000009"><a xlink:title=" ">
<path fill="none" stroke="#63b8ff" d="M957.47,-167.28C965.18,-156.07 974.03,-143.19 979.77,-134.84"/>
<polygon fill="#63b8ff" stroke="#63b8ff" points="954.4,-165.57 951.62,-175.8 960.16,-169.54 954.4,-165.57"/>
</a>
</g>
</g>
<!-- Node10&#45;&gt;Node11 -->
<g id="edge15_Node000010_Node000011" class="edge">
<title>Node10&#45;&gt;Node11</title>
<g id="a_edge15_Node000010_Node000011"><a xlink:title=" ">
<path fill="none" stroke="#63b8ff" d="M1175.85,-99.75C1175.85,-90.72 1175.85,-81.03 1175.85,-74.27"/>
<polygon fill="#63b8ff" stroke="#63b8ff" points="1172.35,-99.84 1175.85,-109.84 1179.35,-99.84 1172.35,-99.84"/>
</a>
</g>
</g>
<!-- Node12&#45;&gt;Node10 -->
<g id="edge18_Node000012_Node000010" class="edge">
<title>Node12&#45;&gt;Node10</title>
<g id="a_edge18_Node000012_Node000010"><a xlink:title=" ">
<path fill="none" stroke="#63b8ff" d="M1224.76,-174.16C1214.25,-163.81 1200.63,-150.4 1190.43,-140.36"/>
<polygon fill="#63b8ff" stroke="#63b8ff" points="1222.5,-176.85 1232.08,-181.37 1227.41,-171.86 1222.5,-176.85"/>
</a>
</g>
</g>
<!-- Node12&#45;&gt;Node11 -->
<g id="edge19_Node000012_Node000011" class="edge">
<title>Node12&#45;&gt;Node11</title>
<g id="a_edge19_Node000012_Node000011"><a xlink:title=" ">
<path fill="none" stroke="#63b8ff" d="M1246.97,-171.59C1251.48,-154.54 1255.22,-129.03 1244.85,-110 1235.44,-92.73 1216.12,-81.15 1200.32,-74.14"/>
<polygon fill="#63b8ff" stroke="#63b8ff" points="1243.54,-170.83 1244.03,-181.42 1250.25,-172.84 1243.54,-170.83"/>
</a>
</g>
</g>
<!-- Node13&#45;&gt;Node7 -->
<g id="edge25_Node000013_Node000007" class="edge">
<title>Node13&#45;&gt;Node7</title>
<g id="a_edge25_Node000013_Node000007"><a xlink:title=" ">
<path fill="none" stroke="#63b8ff" d="M602.09,-174.42C573.55,-147.91 516.47,-94.88 494.13,-74.12"/>
<polygon fill="#63b8ff" stroke="#63b8ff" points="599.93,-177.2 609.64,-181.44 604.7,-172.07 599.93,-177.2"/>
</a>
</g>
</g>
<!-- Node14 -->
<g id="Node000014" class="node">
<title>Node14</title>
<g id="a_Node000014"><a xlink:href="Display_8hpp.html" target="_top" xlink:title=" ">
<polygon fill="white" stroke="#666666" points="456.35,-134.5 321.35,-134.5 321.35,-115.5 456.35,-115.5 456.35,-134.5"/>
<text text-anchor="middle" x="388.85" y="-122.5" font-family="Helvetica,sans-Serif" font-size="10.00">core/include/Display.hpp</text>
</a>
</g>
</g>
<!-- Node13&#45;&gt;Node14 -->
<g id="edge21_Node000013_Node000014" class="edge">
<title>Node13&#45;&gt;Node14</title>
<g id="a_edge21_Node000013_Node000014"><a xlink:title=" ">
<path fill="none" stroke="#63b8ff" d="M578.04,-178.64C532.72,-166.03 460.6,-145.97 419.74,-134.6"/>
<polygon fill="#63b8ff" stroke="#63b8ff" points="577.26,-182.06 587.83,-181.37 579.14,-175.32 577.26,-182.06"/>
</a>
</g>
</g>
<!-- Node15 -->
<g id="Node000015" class="node">
<title>Node15</title>
<g id="a_Node000015"><a xlink:href="SDL2_8hpp.html" target="_top" xlink:title=" ">
<polygon fill="white" stroke="#666666" points="712.85,-140 588.85,-140 588.85,-110 712.85,-110 712.85,-140"/>
<text text-anchor="start" x="596.85" y="-128" font-family="Helvetica,sans-Serif" font-size="10.00">graphics/SDL2/include</text>
<text text-anchor="middle" x="650.85" y="-117" font-family="Helvetica,sans-Serif" font-size="10.00">/SDL2.hpp</text>
</a>
</g>
</g>
<!-- Node13&#45;&gt;Node15 -->
<g id="edge26_Node000013_Node000015" class="edge">
<title>Node13&#45;&gt;Node15</title>
<g id="a_edge26_Node000013_Node000015"><a xlink:title=" ">
<path fill="none" stroke="#63b8ff" d="M627.7,-172.3C632.73,-162.24 638.95,-149.81 643.67,-140.36"/>
<polygon fill="#63b8ff" stroke="#63b8ff" points="624.51,-170.86 623.17,-181.37 630.77,-173.99 624.51,-170.86"/>
</a>
</g>
</g>
<!-- Node16 -->
<g id="Node000016" class="node">
<title>Node16</title>
<g id="a_Node000016"><a xlink:href="SDL2_8cpp.html" target="_top" xlink:title=" ">
<polygon fill="white" stroke="#666666" points="718.35,-74 567.35,-74 567.35,-55 718.35,-55 718.35,-74"/>
<text text-anchor="middle" x="642.85" y="-62" font-family="Helvetica,sans-Serif" font-size="10.00">graphics/SDL2/src/SDL2.cpp</text>
</a>
</g>
</g>
<!-- Node13&#45;&gt;Node16 -->
<g id="edge28_Node000013_Node000016" class="edge">
<title>Node13&#45;&gt;Node16</title>
<g id="a_edge28_Node000013_Node000016"><a xlink:title=" ">
<path fill="none" stroke="#63b8ff" d="M601.67,-173.9C586.52,-157.66 568.49,-131.93 579.85,-110 588.6,-93.12 607.02,-81.27 621.7,-74.07"/>
<polygon fill="#63b8ff" stroke="#63b8ff" points="599.21,-176.4 608.73,-181.05 604.19,-171.48 599.21,-176.4"/>
</a>
</g>
</g>
<!-- Node17 -->
<g id="Node000017" class="node">
<title>Node17</title>
<g id="a_Node000017"><a xlink:href="SFML_8hpp.html" target="_top" xlink:title=" ">
<polygon fill="white" stroke="#666666" points="894.35,-140 769.35,-140 769.35,-110 894.35,-110 894.35,-140"/>
<text text-anchor="start" x="777.35" y="-128" font-family="Helvetica,sans-Serif" font-size="10.00">graphics/SFML/include</text>
<text text-anchor="middle" x="831.85" y="-117" font-family="Helvetica,sans-Serif" font-size="10.00">/SFML.hpp</text>
</a>
</g>
</g>
<!-- Node13&#45;&gt;Node17 -->
<g id="edge29_Node000013_Node000017" class="edge">
<title>Node13&#45;&gt;Node17</title>
<g id="a_edge29_Node000013_Node000017"><a xlink:title=" ">
<path fill="none" stroke="#63b8ff" d="M657.18,-178.48C692.98,-167.73 746.51,-151.64 784.87,-140.12"/>
<polygon fill="#63b8ff" stroke="#63b8ff" points="656.15,-175.14 647.58,-181.37 658.16,-181.84 656.15,-175.14"/>
</a>
</g>
</g>
<!-- Node18 -->
<g id="Node000018" class="node">
<title>Node18</title>
<g id="a_Node000018"><a xlink:href="SFML_8cpp.html" target="_top" xlink:title=" ">
<polygon fill="white" stroke="#666666" points="899.85,-74 745.85,-74 745.85,-55 899.85,-55 899.85,-74"/>
<text text-anchor="middle" x="822.85" y="-62" font-family="Helvetica,sans-Serif" font-size="10.00">graphics/SFML/src/SFML.cpp</text>
</a>
</g>
</g>
<!-- Node13&#45;&gt;Node18 -->
<g id="edge31_Node000013_Node000018" class="edge">
<title>Node13&#45;&gt;Node18</title>
<g id="a_edge31_Node000013_Node000018"><a xlink:title=" ">
<path fill="none" stroke="#63b8ff" d="M649.07,-177.41C670.09,-168.16 698.44,-154.68 721.85,-140 740.08,-128.57 742.61,-122.88 759.85,-110 777.01,-97.18 797.33,-83 810.16,-74.17"/>
<polygon fill="#63b8ff" stroke="#63b8ff" points="647.46,-174.29 639.67,-181.48 650.24,-180.72 647.46,-174.29"/>
</a>
</g>
</g>
<!-- Node14&#45;&gt;Node2 -->
<g id="edge22_Node000014_Node000002" class="edge">
<title>Node14&#45;&gt;Node2</title>
<g id="a_edge22_Node000014_Node000002"><a xlink:title=" ">
<path fill="none" stroke="#63b8ff" d="M335.71,-113.53C278.39,-102.24 188.23,-84.48 135.09,-74.02"/>
<polygon fill="#63b8ff" stroke="#63b8ff" points="335.18,-116.99 345.66,-115.49 336.53,-110.13 335.18,-116.99"/>
</a>
</g>
</g>
<!-- Node14&#45;&gt;Node3 -->
<g id="edge23_Node000014_Node000003" class="edge">
<title>Node14&#45;&gt;Node3</title>
<g id="a_edge23_Node000014_Node000003"><a xlink:title=" ">
<path fill="none" stroke="#63b8ff" d="M364.94,-110.56C322.97,-86.98 237.18,-38.78 202.21,-19.13"/>
<polygon fill="#63b8ff" stroke="#63b8ff" points="363.23,-113.62 373.67,-115.47 366.66,-107.52 363.23,-113.62"/>
</a>
</g>
</g>
<!-- Node14&#45;&gt;Node7 -->
<g id="edge24_Node000014_Node000007" class="edge">
<title>Node14&#45;&gt;Node7</title>
<g id="a_edge24_Node000014_Node000007"><a xlink:title=" ">
<path fill="none" stroke="#63b8ff" d="M411.63,-110.12C429.93,-98.96 455.08,-83.64 470.63,-74.17"/>
<polygon fill="#63b8ff" stroke="#63b8ff" points="409.73,-107.18 403.02,-115.37 413.38,-113.15 409.73,-107.18"/>
</a>
</g>
</g>
<!-- Node15&#45;&gt;Node16 -->
<g id="edge27_Node000015_Node000016" class="edge">
<title>Node15&#45;&gt;Node16</title>
<g id="a_edge27_Node000015_Node000016"><a xlink:title=" ">
<path fill="none" stroke="#63b8ff" d="M647.53,-99.75C646.3,-90.72 644.97,-81.03 644.05,-74.27"/>
<polygon fill="#63b8ff" stroke="#63b8ff" points="644.09,-100.41 648.91,-109.84 651.03,-99.46 644.09,-100.41"/>
</a>
</g>
</g>
<!-- Node17&#45;&gt;Node18 -->
<g id="edge30_Node000017_Node000018" class="edge">
<title>Node17&#45;&gt;Node18</title>
<g id="a_edge30_Node000017_Node000018"><a xlink:title=" ">
<path fill="none" stroke="#63b8ff" d="M828.12,-99.75C826.73,-90.72 825.24,-81.03 824.2,-74.27"/>
<polygon fill="#63b8ff" stroke="#63b8ff" points="824.69,-100.49 829.67,-109.84 831.61,-99.42 824.69,-100.49"/>
</a>
</g>
</g>
</g>
</svg>
