<?xml version="1.0" encoding="UTF-8" standalone="no"?>
<!DOCTYPE svg PUBLIC "-//W3C//DTD SVG 1.1//EN"
 "http://www.w3.org/Graphics/SVG/1.1/DTD/svg11.dtd">
<!-- Generated by graphviz version 2.43.0 (0)
 -->
<!-- Title: Graphical Class Hierarchy Pages: 1 -->
<svg width="251pt" height="101pt"
 viewBox="0.00 0.00 251.00 101.00" xmlns="http://www.w3.org/2000/svg" xmlns:xlink="http://www.w3.org/1999/xlink">
<g id="graph0" class="graph" transform="scale(1 1) rotate(0) translate(4 97)">
<title>Graphical Class Hierarchy</title>
<!-- Node0 -->
<g id="Node000000" class="node">
<title>Node0</title>
<g id="a_Node000000"><a xlink:href="structGfxInstruction.html" target="_top" xlink:title=" ">
<polygon fill="white" stroke="#666666" points="114,-56 0,-56 0,-37 114,-37 114,-56"/>
<text text-anchor="middle" x="57" y="-44" font-family="Helvetica,sans-Serif" font-size="10.00">GfxInstruction&lt; T &gt;</text>
</a>
</g>
</g>
<!-- Node1 -->
<g id="Node000001" class="node">
<title>Node1</title>
<g id="a_Node000001"><a xlink:href="structcircleInstr.html" target="_top" xlink:title=" ">
<polygon fill="white" stroke="#666666" points="243,-93 150,-93 150,-74 243,-74 243,-93"/>
<text text-anchor="middle" x="196.5" y="-81" font-family="Helvetica,sans-Serif" font-size="10.00">circleInstr&lt; T &gt;</text>
</a>
</g>
</g>
<!-- Node0&#45;&gt;Node1 -->
<g id="edge1_Node000000_Node000001" class="edge">
<title>Node0&#45;&gt;Node1</title>
<g id="a_edge1_Node000000_Node000001"><a xlink:title=" ">
<path fill="none" stroke="#63b8ff" d="M103.3,-58.69C121.63,-63.62 142.49,-69.24 159.73,-73.88"/>
<polygon fill="#63b8ff" stroke="#63b8ff" points="103.98,-55.25 93.41,-56.03 102.16,-62.01 103.98,-55.25"/>
</a>
</g>
</g>
<!-- Node2 -->
<g id="Node000002" class="node">
<title>Node2</title>
<g id="a_Node000002"><a xlink:href="structrectInstr.html" target="_top" xlink:title=" ">
<polygon fill="white" stroke="#666666" points="239.5,-56 153.5,-56 153.5,-37 239.5,-37 239.5,-56"/>
<text text-anchor="middle" x="196.5" y="-44" font-family="Helvetica,sans-Serif" font-size="10.00">rectInstr&lt; T &gt;</text>
</a>
</g>
</g>
<!-- Node0&#45;&gt;Node2 -->
<g id="edge2_Node000000_Node000002" class="edge">
<title>Node0&#45;&gt;Node2</title>
<g id="a_edge2_Node000000_Node000002"><a xlink:title=" ">
<path fill="none" stroke="#63b8ff" d="M124.51,-46.5C134.34,-46.5 144.22,-46.5 153.37,-46.5"/>
<polygon fill="#63b8ff" stroke="#63b8ff" points="124.32,-43 114.32,-46.5 124.32,-50 124.32,-43"/>
</a>
</g>
</g>
<!-- Node3 -->
<g id="Node000003" class="node">
<title>Node3</title>
<g id="a_Node000003"><a xlink:href="structtextInstr.html" target="_top" xlink:title=" ">
<polygon fill="white" stroke="#666666" points="239.5,-19 153.5,-19 153.5,0 239.5,0 239.5,-19"/>
<text text-anchor="middle" x="196.5" y="-7" font-family="Helvetica,sans-Serif" font-size="10.00">textInstr&lt; T &gt;</text>
</a>
</g>
</g>
<!-- Node0&#45;&gt;Node3 -->
<g id="edge3_Node000000_Node000003" class="edge">
<title>Node0&#45;&gt;Node3</title>
<g id="a_edge3_Node000000_Node000003"><a xlink:title=" ">
<path fill="none" stroke="#63b8ff" d="M103.3,-34.31C121.63,-29.38 142.49,-23.76 159.73,-19.12"/>
<polygon fill="#63b8ff" stroke="#63b8ff" points="102.16,-30.99 93.41,-36.97 103.98,-37.75 102.16,-30.99"/>
</a>
</g>
</g>
</g>
</svg>
