<?xml version="1.0" encoding="UTF-8" standalone="no"?>
<!DOCTYPE svg PUBLIC "-//W3C//DTD SVG 1.1//EN"
 "http://www.w3.org/Graphics/SVG/1.1/DTD/svg11.dtd">
<!-- Generated by graphviz version 2.43.0 (0)
 -->
<!-- Title: shared/include/Keys.hpp Pages: 1 -->
<svg width="1834pt" height="390pt"
 viewBox="0.00 0.00 1834.00 390.00" xmlns="http://www.w3.org/2000/svg" xmlns:xlink="http://www.w3.org/1999/xlink">
<g id="graph0" class="graph" transform="scale(1 1) rotate(0) translate(4 386)">
<title>shared/include/Keys.hpp</title>
<!-- Node1 -->
<g id="Node000001" class="node">
<title>Node1</title>
<g id="a_Node000001"><a xlink:title=" ">
<polygon fill="#999999" stroke="#666666" points="1521.5,-382 1386.5,-382 1386.5,-363 1521.5,-363 1521.5,-382"/>
<text text-anchor="middle" x="1454" y="-370" font-family="Helvetica,sans-Serif" font-size="10.00">shared/include/Keys.hpp</text>
</a>
</g>
</g>
<!-- Node2 -->
<g id="Node000002" class="node">
<title>Node2</title>
<g id="a_Node000002"><a xlink:href="Snake_8hpp.html" target="_top" xlink:title=" ">
<polygon fill="white" stroke="#666666" points="1551,-140 1431,-140 1431,-110 1551,-110 1551,-140"/>
<text text-anchor="start" x="1439" y="-128" font-family="Helvetica,sans-Serif" font-size="10.00">games/Snake/include</text>
<text text-anchor="middle" x="1491" y="-117" font-family="Helvetica,sans-Serif" font-size="10.00">/Snake.hpp</text>
</a>
</g>
</g>
<!-- Node1&#45;&gt;Node2 -->
<g id="edge1_Node000001_Node000002" class="edge">
<title>Node1&#45;&gt;Node2</title>
<g id="a_edge1_Node000001_Node000002"><a xlink:title=" ">
<path fill="none" stroke="#63b8ff" d="M1531.91,-366.83C1600.6,-358.42 1698.34,-335.28 1755,-272 1775,-249.66 1765.87,-235.82 1769,-206 1770.39,-192.74 1777.55,-186.23 1769,-176 1741.79,-143.46 1624.4,-132.07 1551.14,-128.1"/>
<polygon fill="#63b8ff" stroke="#63b8ff" points="1531.11,-363.4 1521.57,-368.01 1531.9,-370.35 1531.11,-363.4"/>
</a>
</g>
</g>
<!-- Node3 -->
<g id="Node000003" class="node">
<title>Node3</title>
<g id="a_Node000003"><a xlink:href="Snake_8cpp.html" target="_top" xlink:title=" ">
<polygon fill="white" stroke="#666666" points="1479,-74 1327,-74 1327,-55 1479,-55 1479,-74"/>
<text text-anchor="middle" x="1403" y="-62" font-family="Helvetica,sans-Serif" font-size="10.00">games/Snake/src/Snake.cpp</text>
</a>
</g>
</g>
<!-- Node1&#45;&gt;Node3 -->
<g id="edge3_Node000001_Node000003" class="edge">
<title>Node1&#45;&gt;Node3</title>
<g id="a_edge3_Node000001_Node000003"><a xlink:title=" ">
<path fill="none" stroke="#63b8ff" d="M1531.78,-363.63C1640.84,-350.41 1826,-318.98 1826,-258 1826,-258 1826,-258 1826,-190 1826,-118.52 1600.9,-85.07 1479.11,-72.21"/>
<polygon fill="#63b8ff" stroke="#63b8ff" points="1531.32,-360.16 1521.8,-364.82 1532.14,-367.11 1531.32,-360.16"/>
</a>
</g>
</g>
<!-- Node4 -->
<g id="Node000004" class="node">
<title>Node4</title>
<g id="a_Node000004"><a xlink:href="SDL2_8cpp.html" target="_top" xlink:title=" ">
<polygon fill="white" stroke="#666666" points="158.5,-74 7.5,-74 7.5,-55 158.5,-55 158.5,-74"/>
<text text-anchor="middle" x="83" y="-62" font-family="Helvetica,sans-Serif" font-size="10.00">graphics/SDL2/src/SDL2.cpp</text>
</a>
</g>
</g>
<!-- Node1&#45;&gt;Node4 -->
<g id="edge4_Node000001_Node000004" class="edge">
<title>Node1&#45;&gt;Node4</title>
<g id="a_edge4_Node000001_Node000004"><a xlink:title=" ">
<path fill="none" stroke="#63b8ff" d="M1375.89,-369.53C1073.97,-361.41 0,-327.63 0,-258 0,-258 0,-258 0,-190 0,-138.82 49.15,-92.69 71.81,-74.14"/>
<polygon fill="#63b8ff" stroke="#63b8ff" points="1376.21,-373.04 1386.3,-369.81 1376.4,-366.04 1376.21,-373.04"/>
</a>
</g>
</g>
<!-- Node5 -->
<g id="Node000005" class="node">
<title>Node5</title>
<g id="a_Node000005"><a xlink:href="gfx_8hpp.html" target="_top" xlink:title=" ">
<polygon fill="white" stroke="#666666" points="1184,-327 1056,-327 1056,-308 1184,-308 1184,-327"/>
<text text-anchor="middle" x="1120" y="-315" font-family="Helvetica,sans-Serif" font-size="10.00">shared/include/gfx.hpp</text>
</a>
</g>
</g>
<!-- Node1&#45;&gt;Node5 -->
<g id="edge5_Node000001_Node000005" class="edge">
<title>Node1&#45;&gt;Node5</title>
<g id="a_edge5_Node000001_Node000005"><a xlink:title=" ">
<path fill="none" stroke="#63b8ff" d="M1390.17,-361.37C1327.45,-351.42 1232.82,-336.4 1173.81,-327.04"/>
<polygon fill="#63b8ff" stroke="#63b8ff" points="1389.91,-364.87 1400.34,-362.98 1391.01,-357.96 1389.91,-364.87"/>
</a>
</g>
</g>
<!-- Node2&#45;&gt;Node3 -->
<g id="edge2_Node000002_Node000003" class="edge">
<title>Node2&#45;&gt;Node3</title>
<g id="a_edge2_Node000002_Node000003"><a xlink:title=" ">
<path fill="none" stroke="#63b8ff" d="M1461.01,-104.06C1445.65,-93.85 1427.74,-81.95 1415.93,-74.09"/>
<polygon fill="#63b8ff" stroke="#63b8ff" points="1459.43,-107.22 1469.7,-109.84 1463.31,-101.39 1459.43,-107.22"/>
</a>
</g>
</g>
<!-- Node5&#45;&gt;Node2 -->
<g id="edge16_Node000005_Node000002" class="edge">
<title>Node5&#45;&gt;Node2</title>
<g id="a_edge16_Node000005_Node000002"><a xlink:title=" ">
<path fill="none" stroke="#63b8ff" d="M1194.38,-308.69C1304.9,-295.29 1503.63,-263.61 1542,-206 1557.16,-183.24 1531.21,-156.36 1511.1,-140.27"/>
<polygon fill="#63b8ff" stroke="#63b8ff" points="1193.81,-305.24 1184.29,-309.9 1194.64,-312.19 1193.81,-305.24"/>
</a>
</g>
</g>
<!-- Node5&#45;&gt;Node3 -->
<g id="edge17_Node000005_Node000003" class="edge">
<title>Node5&#45;&gt;Node3</title>
<g id="a_edge17_Node000005_Node000003"><a xlink:title=" ">
<path fill="none" stroke="#63b8ff" d="M1115.07,-297.77C1105.72,-257.55 1090.44,-162.36 1139,-110 1163.89,-83.16 1258.08,-72.5 1326.88,-68.27"/>
<polygon fill="#63b8ff" stroke="#63b8ff" points="1111.69,-298.7 1117.49,-307.57 1118.49,-297.02 1111.69,-298.7"/>
</a>
</g>
</g>
<!-- Node5&#45;&gt;Node4 -->
<g id="edge20_Node000005_Node000004" class="edge">
<title>Node5&#45;&gt;Node4</title>
<g id="a_edge20_Node000005_Node000004"><a xlink:title=" ">
<path fill="none" stroke="#63b8ff" d="M1045.62,-315.83C840.35,-313.57 276.03,-304.44 199,-272 119.59,-238.56 91.42,-218.99 57,-140 46.93,-116.89 64.77,-88.52 75.6,-74.38"/>
<polygon fill="#63b8ff" stroke="#63b8ff" points="1045.67,-319.33 1055.7,-315.94 1045.74,-312.33 1045.67,-319.33"/>
</a>
</g>
</g>
<!-- Node6 -->
<g id="Node000006" class="node">
<title>Node6</title>
<g id="a_Node000006"><a xlink:href="Arcade_8hpp.html" target="_top" xlink:title=" ">
<polygon fill="white" stroke="#666666" points="787,-74 653,-74 653,-55 787,-55 787,-74"/>
<text text-anchor="middle" x="720" y="-62" font-family="Helvetica,sans-Serif" font-size="10.00">core/include/Arcade.hpp</text>
</a>
</g>
</g>
<!-- Node5&#45;&gt;Node6 -->
<g id="edge6_Node000005_Node000006" class="edge">
<title>Node5&#45;&gt;Node6</title>
<g id="a_edge6_Node000005_Node000006"><a xlink:title=" ">
<path fill="none" stroke="#63b8ff" d="M1054.71,-306.28C956.96,-289.6 779.58,-253.56 738,-206 704.17,-167.31 713.58,-98.15 718.18,-74.06"/>
<polygon fill="#63b8ff" stroke="#63b8ff" points="1054.33,-309.76 1064.78,-307.97 1055.5,-302.86 1054.33,-309.76"/>
</a>
</g>
</g>
<!-- Node7 -->
<g id="Node000007" class="node">
<title>Node7</title>
<g id="a_Node000007"><a xlink:href="Arcade_8cpp.html" target="_top" xlink:title=" ">
<polygon fill="white" stroke="#666666" points="889,-19 777,-19 777,0 889,0 889,-19"/>
<text text-anchor="middle" x="833" y="-7" font-family="Helvetica,sans-Serif" font-size="10.00">core/src/Arcade.cpp</text>
</a>
</g>
</g>
<!-- Node5&#45;&gt;Node7 -->
<g id="edge9_Node000005_Node000007" class="edge">
<title>Node5&#45;&gt;Node7</title>
<g id="a_edge9_Node000005_Node000007"><a xlink:title=" ">
<path fill="none" stroke="#63b8ff" d="M1112.53,-298.53C1092.04,-251.39 1030.32,-123.17 939,-55 916.29,-38.05 886.16,-26.21 863.83,-19.03"/>
<polygon fill="#63b8ff" stroke="#63b8ff" points="1109.33,-299.94 1116.47,-307.77 1115.77,-297.2 1109.33,-299.94"/>
</a>
</g>
</g>
<!-- Node9 -->
<g id="Node000009" class="node">
<title>Node9</title>
<g id="a_Node000009"><a xlink:href="Menu_8hpp.html" target="_top" xlink:title=" ">
<polygon fill="white" stroke="#666666" points="1266,-206 1148,-206 1148,-176 1266,-176 1266,-206"/>
<text text-anchor="start" x="1156" y="-194" font-family="Helvetica,sans-Serif" font-size="10.00">games/Menu/include</text>
<text text-anchor="middle" x="1207" y="-183" font-family="Helvetica,sans-Serif" font-size="10.00">/Menu.hpp</text>
</a>
</g>
</g>
<!-- Node5&#45;&gt;Node9 -->
<g id="edge10_Node000005_Node000009" class="edge">
<title>Node5&#45;&gt;Node9</title>
<g id="a_edge10_Node000005_Node000009"><a xlink:title=" ">
<path fill="none" stroke="#63b8ff" d="M1131.83,-299.57C1149.12,-274.83 1180.98,-229.23 1197.1,-206.16"/>
<polygon fill="#63b8ff" stroke="#63b8ff" points="1128.84,-297.74 1125.98,-307.94 1134.58,-301.75 1128.84,-297.74"/>
</a>
</g>
</g>
<!-- Node10 -->
<g id="Node000010" class="node">
<title>Node10</title>
<g id="a_Node000010"><a xlink:href="Menu_8cpp.html" target="_top" xlink:title=" ">
<polygon fill="white" stroke="#666666" points="1295.5,-134.5 1148.5,-134.5 1148.5,-115.5 1295.5,-115.5 1295.5,-134.5"/>
<text text-anchor="middle" x="1222" y="-122.5" font-family="Helvetica,sans-Serif" font-size="10.00">games/Menu/src/Menu.cpp</text>
</a>
</g>
</g>
<!-- Node5&#45;&gt;Node10 -->
<g id="edge14_Node000005_Node000010" class="edge">
<title>Node5&#45;&gt;Node10</title>
<g id="a_edge14_Node000005_Node000010"><a xlink:title=" ">
<path fill="none" stroke="#63b8ff" d="M1153.04,-303.93C1190.45,-287.69 1249.5,-255.49 1275,-206 1281.11,-194.15 1280.28,-188.24 1275,-176 1267.18,-157.88 1249.21,-143.28 1236.37,-134.63"/>
<polygon fill="#63b8ff" stroke="#63b8ff" points="1151.44,-300.81 1143.57,-307.9 1154.15,-307.26 1151.44,-300.81"/>
</a>
</g>
</g>
<!-- Node11 -->
<g id="Node000011" class="node">
<title>Node11</title>
<g id="a_Node000011"><a xlink:href="MenuUtils_8hpp.html" target="_top" xlink:title=" ">
<polygon fill="white" stroke="#666666" points="1746,-272 1628,-272 1628,-242 1746,-242 1746,-272"/>
<text text-anchor="start" x="1636" y="-260" font-family="Helvetica,sans-Serif" font-size="10.00">games/Menu/include</text>
<text text-anchor="middle" x="1687" y="-249" font-family="Helvetica,sans-Serif" font-size="10.00">/MenuUtils.hpp</text>
</a>
</g>
</g>
<!-- Node5&#45;&gt;Node11 -->
<g id="edge12_Node000005_Node000011" class="edge">
<title>Node5&#45;&gt;Node11</title>
<g id="a_edge12_Node000005_Node000011"><a xlink:title=" ">
<path fill="none" stroke="#63b8ff" d="M1194.17,-312.13C1291.04,-305.9 1465.76,-292.84 1614,-272 1618.47,-271.37 1623.09,-270.65 1627.72,-269.88"/>
<polygon fill="#63b8ff" stroke="#63b8ff" points="1193.94,-308.64 1184.18,-312.77 1194.38,-315.62 1193.94,-308.64"/>
</a>
</g>
</g>
<!-- Node12 -->
<g id="Node000012" class="node">
<title>Node12</title>
<g id="a_Node000012"><a xlink:href="MenuUtils_8cpp.html" target="_top" xlink:title=" ">
<polygon fill="white" stroke="#666666" points="1760,-200.5 1590,-200.5 1590,-181.5 1760,-181.5 1760,-200.5"/>
<text text-anchor="middle" x="1675" y="-188.5" font-family="Helvetica,sans-Serif" font-size="10.00">games/Menu/src/MenuUtils.cpp</text>
</a>
</g>
</g>
<!-- Node5&#45;&gt;Node12 -->
<g id="edge15_Node000005_Node000012" class="edge">
<title>Node5&#45;&gt;Node12</title>
<g id="a_edge15_Node000005_Node000012"><a xlink:title=" ">
<path fill="none" stroke="#63b8ff" d="M1194.48,-314.4C1305.57,-310.41 1508.81,-299.5 1576,-272 1596.45,-263.63 1645.37,-219.51 1665.8,-200.61"/>
<polygon fill="#63b8ff" stroke="#63b8ff" points="1194.22,-310.91 1184.35,-314.76 1194.47,-317.91 1194.22,-310.91"/>
</a>
</g>
</g>
<!-- Node13 -->
<g id="Node000013" class="node">
<title>Node13</title>
<g id="a_Node000013"><a xlink:href="SDL2_8hpp.html" target="_top" xlink:title=" ">
<polygon fill="white" stroke="#666666" points="190,-140 66,-140 66,-110 190,-110 190,-140"/>
<text text-anchor="start" x="74" y="-128" font-family="Helvetica,sans-Serif" font-size="10.00">graphics/SDL2/include</text>
<text text-anchor="middle" x="128" y="-117" font-family="Helvetica,sans-Serif" font-size="10.00">/SDL2.hpp</text>
</a>
</g>
</g>
<!-- Node5&#45;&gt;Node13 -->
<g id="edge18_Node000005_Node000013" class="edge">
<title>Node5&#45;&gt;Node13</title>
<g id="a_edge18_Node000005_Node000013"><a xlink:title=" ">
<path fill="none" stroke="#63b8ff" d="M1045.72,-316.25C846.8,-315.09 312.34,-308.55 242,-272 185.21,-242.49 147.83,-170.64 133.99,-140.1"/>
<polygon fill="#63b8ff" stroke="#63b8ff" points="1045.77,-319.75 1055.79,-316.31 1045.81,-312.75 1045.77,-319.75"/>
</a>
</g>
</g>
<!-- Node14 -->
<g id="Node000014" class="node">
<title>Node14</title>
<g id="a_Node000014"><a xlink:href="SFML_8cpp.html" target="_top" xlink:title=" ">
<polygon fill="white" stroke="#666666" points="424,-74 270,-74 270,-55 424,-55 424,-74"/>
<text text-anchor="middle" x="347" y="-62" font-family="Helvetica,sans-Serif" font-size="10.00">graphics/SFML/src/SFML.cpp</text>
</a>
</g>
</g>
<!-- Node5&#45;&gt;Node14 -->
<g id="edge21_Node000005_Node000014" class="edge">
<title>Node5&#45;&gt;Node14</title>
<g id="a_edge21_Node000005_Node000014"><a xlink:title=" ">
<path fill="none" stroke="#63b8ff" d="M1045.88,-314.19C872.14,-307.53 444.45,-283.51 327,-206 286.5,-179.27 251.37,-152.38 275,-110 284.8,-92.42 304.73,-80.91 321.15,-74.01"/>
<polygon fill="#63b8ff" stroke="#63b8ff" points="1045.83,-317.69 1055.96,-314.57 1046.09,-310.7 1045.83,-317.69"/>
</a>
</g>
</g>
<!-- Node15 -->
<g id="Node000015" class="node">
<title>Node15</title>
<g id="a_Node000015"><a xlink:href="GameMatrix_8hpp.html" target="_top" xlink:title=" ">
<polygon fill="white" stroke="#666666" points="1533.5,-200.5 1360.5,-200.5 1360.5,-181.5 1533.5,-181.5 1533.5,-200.5"/>
<text text-anchor="middle" x="1447" y="-188.5" font-family="Helvetica,sans-Serif" font-size="10.00">shared/include/GameMatrix.hpp</text>
</a>
</g>
</g>
<!-- Node5&#45;&gt;Node15 -->
<g id="edge22_Node000005_Node000015" class="edge">
<title>Node5&#45;&gt;Node15</title>
<g id="a_edge22_Node000005_Node000015"><a xlink:title=" ">
<path fill="none" stroke="#63b8ff" d="M1194.43,-310.8C1239.88,-305.17 1298.23,-294.03 1346,-272 1385.41,-253.82 1423.09,-217.25 1439.03,-200.61"/>
<polygon fill="#63b8ff" stroke="#63b8ff" points="1193.88,-307.34 1184.35,-311.98 1194.69,-314.29 1193.88,-307.34"/>
</a>
</g>
</g>
<!-- Node16 -->
<g id="Node000016" class="node">
<title>Node16</title>
<g id="a_Node000016"><a xlink:href="IDisplay_8hpp.html" target="_top" xlink:title=" ">
<polygon fill="white" stroke="#666666" points="486,-200.5 336,-200.5 336,-181.5 486,-181.5 486,-200.5"/>
<text text-anchor="middle" x="411" y="-188.5" font-family="Helvetica,sans-Serif" font-size="10.00">shared/include/IDisplay.hpp</text>
</a>
</g>
</g>
<!-- Node5&#45;&gt;Node16 -->
<g id="edge25_Node000005_Node000016" class="edge">
<title>Node5&#45;&gt;Node16</title>
<g id="a_edge25_Node000005_Node000016"><a xlink:title=" ">
<path fill="none" stroke="#63b8ff" d="M1045.51,-312.69C959.67,-307.39 814.65,-295.65 692,-272 595.38,-253.37 483.83,-217.03 435.46,-200.53"/>
<polygon fill="#63b8ff" stroke="#63b8ff" points="1045.49,-316.19 1055.68,-313.3 1045.91,-309.21 1045.49,-316.19"/>
</a>
</g>
</g>
<!-- Node20 -->
<g id="Node000020" class="node">
<title>Node20</title>
<g id="a_Node000020"><a xlink:href="IGame_8hpp.html" target="_top" xlink:title=" ">
<polygon fill="white" stroke="#666666" points="1047,-266.5 903,-266.5 903,-247.5 1047,-247.5 1047,-266.5"/>
<text text-anchor="middle" x="975" y="-254.5" font-family="Helvetica,sans-Serif" font-size="10.00">shared/include/IGame.hpp</text>
</a>
</g>
</g>
<!-- Node5&#45;&gt;Node20 -->
<g id="edge36_Node000005_Node000020" class="edge">
<title>Node5&#45;&gt;Node20</title>
<g id="a_edge36_Node000005_Node000020"><a xlink:title=" ">
<path fill="none" stroke="#63b8ff" d="M1089.59,-304.23C1061.57,-292.92 1020.71,-276.44 996.11,-266.52"/>
<polygon fill="#63b8ff" stroke="#63b8ff" points="1088.33,-307.5 1098.92,-307.99 1090.95,-301.01 1088.33,-307.5"/>
</a>
</g>
</g>
<!-- Node6&#45;&gt;Node7 -->
<g id="edge7_Node000006_Node000007" class="edge">
<title>Node6&#45;&gt;Node7</title>
<g id="a_edge7_Node000006_Node000007"><a xlink:title=" ">
<path fill="none" stroke="#63b8ff" d="M747.43,-50.63C768.25,-40.87 796.3,-27.71 814.51,-19.17"/>
<polygon fill="#63b8ff" stroke="#63b8ff" points="745.72,-47.57 738.16,-54.98 748.7,-53.91 745.72,-47.57"/>
</a>
</g>
</g>
<!-- Node8 -->
<g id="Node000008" class="node">
<title>Node8</title>
<g id="a_Node000008"><a xlink:href="main_8cpp.html" target="_top" xlink:title=" ">
<polygon fill="white" stroke="#666666" points="758.5,-19 655.5,-19 655.5,0 758.5,0 758.5,-19"/>
<text text-anchor="middle" x="707" y="-7" font-family="Helvetica,sans-Serif" font-size="10.00">core/src/main.cpp</text>
</a>
</g>
</g>
<!-- Node6&#45;&gt;Node8 -->
<g id="edge8_Node000006_Node000008" class="edge">
<title>Node6&#45;&gt;Node8</title>
<g id="a_edge8_Node000006_Node000008"><a xlink:title=" ">
<path fill="none" stroke="#63b8ff" d="M715.45,-44.95C713.29,-36.15 710.82,-26.06 709.11,-19.09"/>
<polygon fill="#63b8ff" stroke="#63b8ff" points="712.07,-45.87 717.85,-54.75 718.87,-44.2 712.07,-45.87"/>
</a>
</g>
</g>
<!-- Node9&#45;&gt;Node10 -->
<g id="edge11_Node000009_Node000010" class="edge">
<title>Node9&#45;&gt;Node10</title>
<g id="a_edge11_Node000009_Node000010"><a xlink:title=" ">
<path fill="none" stroke="#63b8ff" d="M1212.64,-165.94C1215.19,-155.06 1218.05,-142.86 1219.93,-134.84"/>
<polygon fill="#63b8ff" stroke="#63b8ff" points="1209.2,-165.26 1210.33,-175.8 1216.02,-166.86 1209.2,-165.26"/>
</a>
</g>
</g>
<!-- Node11&#45;&gt;Node12 -->
<g id="edge13_Node000011_Node000012" class="edge">
<title>Node11&#45;&gt;Node12</title>
<g id="a_edge13_Node000011_Node000012"><a xlink:title=" ">
<path fill="none" stroke="#63b8ff" d="M1682.49,-231.94C1680.45,-221.06 1678.16,-208.86 1676.66,-200.84"/>
<polygon fill="#63b8ff" stroke="#63b8ff" points="1679.05,-232.61 1684.34,-241.8 1685.93,-231.32 1679.05,-232.61"/>
</a>
</g>
</g>
<!-- Node13&#45;&gt;Node4 -->
<g id="edge19_Node000013_Node000004" class="edge">
<title>Node13&#45;&gt;Node4</title>
<g id="a_edge19_Node000013_Node000004"><a xlink:title=" ">
<path fill="none" stroke="#63b8ff" d="M110.92,-101.8C103.54,-92.21 95.34,-81.54 89.74,-74.27"/>
<polygon fill="#63b8ff" stroke="#63b8ff" points="108.24,-104.05 117.11,-109.84 113.78,-99.78 108.24,-104.05"/>
</a>
</g>
</g>
<!-- Node15&#45;&gt;Node2 -->
<g id="edge23_Node000015_Node000002" class="edge">
<title>Node15&#45;&gt;Node2</title>
<g id="a_edge23_Node000015_Node000002"><a xlink:title=" ">
<path fill="none" stroke="#63b8ff" d="M1458.74,-172.92C1465.73,-162.76 1474.5,-150.01 1481.13,-140.36"/>
<polygon fill="#63b8ff" stroke="#63b8ff" points="1455.72,-171.15 1452.93,-181.37 1461.48,-175.11 1455.72,-171.15"/>
</a>
</g>
</g>
<!-- Node15&#45;&gt;Node3 -->
<g id="edge24_Node000015_Node000003" class="edge">
<title>Node15&#45;&gt;Node3</title>
<g id="a_edge24_Node000015_Node000003"><a xlink:title=" ">
<path fill="none" stroke="#63b8ff" d="M1437.17,-172.64C1432.12,-163.21 1426.17,-151.2 1422,-140 1413.42,-116.99 1407.36,-88.57 1404.63,-74.4"/>
<polygon fill="#63b8ff" stroke="#63b8ff" points="1434.1,-174.33 1441.99,-181.4 1440.24,-170.95 1434.1,-174.33"/>
</a>
</g>
</g>
<!-- Node16&#45;&gt;Node4 -->
<g id="edge32_Node000016_Node000004" class="edge">
<title>Node16&#45;&gt;Node4</title>
<g id="a_edge32_Node000016_Node000004"><a xlink:title=" ">
<path fill="none" stroke="#63b8ff" d="M377.79,-178.04C350.21,-168.04 309.96,-153.33 275,-140 241.07,-127.07 232.84,-123.17 199,-110 166.64,-97.41 129.1,-83.05 105.7,-74.13"/>
<polygon fill="#63b8ff" stroke="#63b8ff" points="376.76,-181.39 387.35,-181.5 379.14,-174.8 376.76,-181.39"/>
</a>
</g>
</g>
<!-- Node16&#45;&gt;Node13 -->
<g id="edge31_Node000016_Node000013" class="edge">
<title>Node16&#45;&gt;Node13</title>
<g id="a_edge31_Node000016_Node000013"><a xlink:title=" ">
<path fill="none" stroke="#63b8ff" d="M363.37,-179.23C315.72,-168.45 242.2,-151.83 190.02,-140.02"/>
<polygon fill="#63b8ff" stroke="#63b8ff" points="362.6,-182.64 373.13,-181.44 364.15,-175.82 362.6,-182.64"/>
</a>
</g>
</g>
<!-- Node16&#45;&gt;Node14 -->
<g id="edge35_Node000016_Node000014" class="edge">
<title>Node16&#45;&gt;Node14</title>
<g id="a_edge35_Node000016_Node000014"><a xlink:title=" ">
<path fill="none" stroke="#63b8ff" d="M418.21,-171.58C423.64,-154.53 428.52,-129.01 418,-110 408.35,-92.56 388.69,-81.04 372.51,-74.1"/>
<polygon fill="#63b8ff" stroke="#63b8ff" points="414.76,-170.82 414.71,-181.41 421.36,-173.16 414.76,-170.82"/>
</a>
</g>
</g>
<!-- Node17 -->
<g id="Node000017" class="node">
<title>Node17</title>
<g id="a_Node000017"><a xlink:href="Display_8hpp.html" target="_top" xlink:title=" ">
<polygon fill="white" stroke="#666666" points="677.5,-134.5 542.5,-134.5 542.5,-115.5 677.5,-115.5 677.5,-134.5"/>
<text text-anchor="middle" x="610" y="-122.5" font-family="Helvetica,sans-Serif" font-size="10.00">core/include/Display.hpp</text>
</a>
</g>
</g>
<!-- Node16&#45;&gt;Node17 -->
<g id="edge26_Node000016_Node000017" class="edge">
<title>Node16&#45;&gt;Node17</title>
<g id="a_edge26_Node000016_Node000017"><a xlink:title=" ">
<path fill="none" stroke="#63b8ff" d="M447.56,-178.24C486.83,-165.61 548.29,-145.85 583.27,-134.6"/>
<polygon fill="#63b8ff" stroke="#63b8ff" points="446.29,-174.98 437.84,-181.37 448.43,-181.64 446.29,-174.98"/>
</a>
</g>
</g>
<!-- Node18 -->
<g id="Node000018" class="node">
<title>Node18</title>
<g id="a_Node000018"><a xlink:href="Display_8cpp.html" target="_top" xlink:title=" ">
<polygon fill="white" stroke="#666666" points="570.5,-74 457.5,-74 457.5,-55 570.5,-55 570.5,-74"/>
<text text-anchor="middle" x="514" y="-62" font-family="Helvetica,sans-Serif" font-size="10.00">core/src/Display.cpp</text>
</a>
</g>
</g>
<!-- Node16&#45;&gt;Node18 -->
<g id="edge30_Node000016_Node000018" class="edge">
<title>Node16&#45;&gt;Node18</title>
<g id="a_edge30_Node000016_Node000018"><a xlink:title=" ">
<path fill="none" stroke="#63b8ff" d="M424.46,-173.74C446.57,-147.01 489.84,-94.7 506.87,-74.12"/>
<polygon fill="#63b8ff" stroke="#63b8ff" points="421.76,-171.51 418.08,-181.44 427.15,-175.97 421.76,-171.51"/>
</a>
</g>
</g>
<!-- Node19 -->
<g id="Node000019" class="node">
<title>Node19</title>
<g id="a_Node000019"><a xlink:href="SFML_8hpp.html" target="_top" xlink:title=" ">
<polygon fill="white" stroke="#666666" points="409.5,-140 284.5,-140 284.5,-110 409.5,-110 409.5,-140"/>
<text text-anchor="start" x="292.5" y="-128" font-family="Helvetica,sans-Serif" font-size="10.00">graphics/SFML/include</text>
<text text-anchor="middle" x="347" y="-117" font-family="Helvetica,sans-Serif" font-size="10.00">/SFML.hpp</text>
</a>
</g>
</g>
<!-- Node16&#45;&gt;Node19 -->
<g id="edge33_Node000016_Node000019" class="edge">
<title>Node16&#45;&gt;Node19</title>
<g id="a_edge33_Node000016_Node000019"><a xlink:title=" ">
<path fill="none" stroke="#63b8ff" d="M395.16,-174.16C384.81,-163.81 371.4,-150.4 361.36,-140.36"/>
<polygon fill="#63b8ff" stroke="#63b8ff" points="392.82,-176.77 402.37,-181.37 397.77,-171.82 392.82,-176.77"/>
</a>
</g>
</g>
<!-- Node17&#45;&gt;Node6 -->
<g id="edge27_Node000017_Node000006" class="edge">
<title>Node17&#45;&gt;Node6</title>
<g id="a_edge27_Node000017_Node000006"><a xlink:title=" ">
<path fill="none" stroke="#63b8ff" d="M635.24,-110.58C656.28,-99.38 685.64,-83.77 703.7,-74.17"/>
<polygon fill="#63b8ff" stroke="#63b8ff" points="633.42,-107.58 626.23,-115.37 636.7,-113.76 633.42,-107.58"/>
</a>
</g>
</g>
<!-- Node17&#45;&gt;Node7 -->
<g id="edge28_Node000017_Node000007" class="edge">
<title>Node17&#45;&gt;Node7</title>
<g id="a_edge28_Node000017_Node000007"><a xlink:title=" ">
<path fill="none" stroke="#63b8ff" d="M614.34,-105.58C619.02,-89.81 628.04,-67.7 644,-55 664.31,-38.84 728.58,-26.02 776.57,-18.37"/>
<polygon fill="#63b8ff" stroke="#63b8ff" points="610.95,-104.73 611.76,-115.29 617.71,-106.52 610.95,-104.73"/>
</a>
</g>
</g>
<!-- Node17&#45;&gt;Node18 -->
<g id="edge29_Node000017_Node000018" class="edge">
<title>Node17&#45;&gt;Node18</title>
<g id="a_edge29_Node000017_Node000018"><a xlink:title=" ">
<path fill="none" stroke="#63b8ff" d="M587.22,-110.12C568.92,-98.96 543.77,-83.64 528.22,-74.17"/>
<polygon fill="#63b8ff" stroke="#63b8ff" points="585.47,-113.15 595.83,-115.37 589.12,-107.18 585.47,-113.15"/>
</a>
</g>
</g>
<!-- Node19&#45;&gt;Node14 -->
<g id="edge34_Node000019_Node000014" class="edge">
<title>Node19&#45;&gt;Node14</title>
<g id="a_edge34_Node000019_Node000014"><a xlink:title=" ">
<path fill="none" stroke="#63b8ff" d="M347,-99.75C347,-90.72 347,-81.03 347,-74.27"/>
<polygon fill="#63b8ff" stroke="#63b8ff" points="343.5,-99.84 347,-109.84 350.5,-99.84 343.5,-99.84"/>
</a>
</g>
</g>
<!-- Node20&#45;&gt;Node2 -->
<g id="edge47_Node000020_Node000002" class="edge">
<title>Node20&#45;&gt;Node2</title>
<g id="a_edge47_Node000020_Node000002"><a xlink:title=" ">
<path fill="none" stroke="#63b8ff" d="M1057.09,-247.06C1117.96,-239.29 1202.58,-226.09 1275,-206 1309.99,-196.29 1317.01,-188.78 1351,-176 1384.34,-163.47 1422.42,-149.92 1450.44,-140.09"/>
<polygon fill="#63b8ff" stroke="#63b8ff" points="1056.63,-243.59 1047.15,-248.31 1057.5,-250.54 1056.63,-243.59"/>
</a>
</g>
</g>
<!-- Node20&#45;&gt;Node3 -->
<g id="edge48_Node000020_Node000003" class="edge">
<title>Node20&#45;&gt;Node3</title>
<g id="a_edge48_Node000020_Node000003"><a xlink:title=" ">
<path fill="none" stroke="#63b8ff" d="M985.15,-238.21C1004.28,-206.52 1048.92,-140.75 1106,-110 1143.12,-90 1251.9,-77.51 1326.97,-71.02"/>
<polygon fill="#63b8ff" stroke="#63b8ff" points="981.91,-236.82 979.86,-247.21 987.94,-240.37 981.91,-236.82"/>
</a>
</g>
</g>
<!-- Node20&#45;&gt;Node6 -->
<g id="edge37_Node000020_Node000006" class="edge">
<title>Node20&#45;&gt;Node6</title>
<g id="a_edge37_Node000020_Node000006"><a xlink:title=" ">
<path fill="none" stroke="#63b8ff" d="M897.56,-245.94C845.34,-237.66 782.54,-224.31 763,-206 724.09,-169.55 720.05,-98.97 719.88,-74.28"/>
<polygon fill="#63b8ff" stroke="#63b8ff" points="897.09,-249.41 907.51,-247.48 898.16,-242.49 897.09,-249.41"/>
</a>
</g>
</g>
<!-- Node20&#45;&gt;Node7 -->
<g id="edge42_Node000020_Node000007" class="edge">
<title>Node20&#45;&gt;Node7</title>
<g id="a_edge42_Node000020_Node000007"><a xlink:title=" ">
<path fill="none" stroke="#63b8ff" d="M978.21,-237.42C982.27,-208.3 986.3,-151 964,-110 939.16,-64.34 883.43,-33.31 853.28,-19.19"/>
<polygon fill="#63b8ff" stroke="#63b8ff" points="974.73,-237.01 976.65,-247.42 981.65,-238.08 974.73,-237.01"/>
</a>
</g>
</g>
<!-- Node20&#45;&gt;Node9 -->
<g id="edge45_Node000020_Node000009" class="edge">
<title>Node20&#45;&gt;Node9</title>
<g id="a_edge45_Node000020_Node000009"><a xlink:title=" ">
<path fill="none" stroke="#63b8ff" d="M1016.25,-244.62C1055.24,-233.86 1113.87,-217.69 1155.83,-206.12"/>
<polygon fill="#63b8ff" stroke="#63b8ff" points="1015,-241.34 1006.29,-247.37 1016.86,-248.08 1015,-241.34"/>
</a>
</g>
</g>
<!-- Node20&#45;&gt;Node10 -->
<g id="edge46_Node000020_Node000010" class="edge">
<title>Node20&#45;&gt;Node10</title>
<g id="a_edge46_Node000020_Node000010"><a xlink:title=" ">
<path fill="none" stroke="#63b8ff" d="M1000.18,-242.75C1050.8,-216.11 1163.62,-156.73 1205.73,-134.56"/>
<polygon fill="#63b8ff" stroke="#63b8ff" points="998.43,-239.72 991.21,-247.47 1001.69,-245.91 998.43,-239.72"/>
</a>
</g>
</g>
<!-- Node20&#45;&gt;Node15 -->
<g id="edge49_Node000020_Node000015" class="edge">
<title>Node20&#45;&gt;Node15</title>
<g id="a_edge49_Node000020_Node000015"><a xlink:title=" ">
<path fill="none" stroke="#63b8ff" d="M1048.26,-246.07C1140.45,-233.57 1297.24,-212.31 1384.21,-200.51"/>
<polygon fill="#63b8ff" stroke="#63b8ff" points="1047.61,-242.62 1038.17,-247.44 1048.55,-249.56 1047.61,-242.62"/>
</a>
</g>
</g>
<!-- Node20&#45;&gt;Node16 -->
<g id="edge50_Node000020_Node000016" class="edge">
<title>Node20&#45;&gt;Node16</title>
<g id="a_edge50_Node000020_Node000016"><a xlink:title=" ">
<path fill="none" stroke="#63b8ff" d="M892.74,-248.63C797.91,-239.83 637.43,-224.03 500,-206 487.75,-204.39 474.58,-202.44 462.23,-200.52"/>
<polygon fill="#63b8ff" stroke="#63b8ff" points="892.56,-252.13 902.84,-249.56 893.21,-245.16 892.56,-252.13"/>
</a>
</g>
</g>
<!-- Node20&#45;&gt;Node18 -->
<g id="edge43_Node000020_Node000018" class="edge">
<title>Node20&#45;&gt;Node18</title>
<g id="a_edge43_Node000020_Node000018"><a xlink:title=" ">
<path fill="none" stroke="#63b8ff" d="M900.21,-246.04C787.71,-229.53 582.78,-192.95 533,-140 515.63,-121.52 513.58,-89.43 513.67,-74.12"/>
<polygon fill="#63b8ff" stroke="#63b8ff" points="899.74,-249.51 910.14,-247.48 900.74,-242.58 899.74,-249.51"/>
</a>
</g>
</g>
<!-- Node21 -->
<g id="Node000021" class="node">
<title>Node21</title>
<g id="a_Node000021"><a xlink:href="Game_8hpp.html" target="_top" xlink:title=" ">
<polygon fill="white" stroke="#666666" points="901.5,-200.5 772.5,-200.5 772.5,-181.5 901.5,-181.5 901.5,-200.5"/>
<text text-anchor="middle" x="837" y="-188.5" font-family="Helvetica,sans-Serif" font-size="10.00">core/include/Game.hpp</text>
</a>
</g>
</g>
<!-- Node20&#45;&gt;Node21 -->
<g id="edge38_Node000020_Node000021" class="edge">
<title>Node20&#45;&gt;Node21</title>
<g id="a_edge38_Node000020_Node000021"><a xlink:title=" ">
<path fill="none" stroke="#63b8ff" d="M947.03,-243.03C919.83,-230.42 879.29,-211.61 855.76,-200.7"/>
<polygon fill="#63b8ff" stroke="#63b8ff" points="945.84,-246.34 956.39,-247.37 948.79,-239.99 945.84,-246.34"/>
</a>
</g>
</g>
<!-- Node22 -->
<g id="Node000022" class="node">
<title>Node22</title>
<g id="a_Node000022"><a xlink:href="Game_8cpp.html" target="_top" xlink:title=" ">
<polygon fill="white" stroke="#666666" points="955.5,-134.5 848.5,-134.5 848.5,-115.5 955.5,-115.5 955.5,-134.5"/>
<text text-anchor="middle" x="902" y="-122.5" font-family="Helvetica,sans-Serif" font-size="10.00">core/src/Game.cpp</text>
</a>
</g>
</g>
<!-- Node20&#45;&gt;Node22 -->
<g id="edge44_Node000020_Node000022" class="edge">
<title>Node20&#45;&gt;Node22</title>
<g id="a_edge44_Node000020_Node000022"><a xlink:title=" ">
<path fill="none" stroke="#63b8ff" d="M965.3,-238.73C949.52,-210.62 918.83,-155.97 906.9,-134.73"/>
<polygon fill="#63b8ff" stroke="#63b8ff" points="962.26,-240.46 970.21,-247.47 968.37,-237.04 962.26,-240.46"/>
</a>
</g>
</g>
<!-- Node21&#45;&gt;Node6 -->
<g id="edge39_Node000021_Node000006" class="edge">
<title>Node21&#45;&gt;Node6</title>
<g id="a_edge39_Node000021_Node000006"><a xlink:title=" ">
<path fill="none" stroke="#63b8ff" d="M822.04,-174.08C797.02,-147.46 747.53,-94.79 728.1,-74.12"/>
<polygon fill="#63b8ff" stroke="#63b8ff" points="819.56,-176.55 828.96,-181.44 824.66,-171.76 819.56,-176.55"/>
</a>
</g>
</g>
<!-- Node21&#45;&gt;Node7 -->
<g id="edge40_Node000021_Node000007" class="edge">
<title>Node21&#45;&gt;Node7</title>
<g id="a_edge40_Node000021_Node000007"><a xlink:title=" ">
<path fill="none" stroke="#63b8ff" d="M836.58,-171.03C835.72,-132.52 833.8,-46.49 833.19,-19.07"/>
<polygon fill="#63b8ff" stroke="#63b8ff" points="833.09,-171.42 836.81,-181.34 840.08,-171.27 833.09,-171.42"/>
</a>
</g>
</g>
<!-- Node21&#45;&gt;Node22 -->
<g id="edge41_Node000021_Node000022" class="edge">
<title>Node21&#45;&gt;Node22</title>
<g id="a_edge41_Node000021_Node000022"><a xlink:title=" ">
<path fill="none" stroke="#63b8ff" d="M852.92,-174.33C865.5,-161.94 882.62,-145.09 892.96,-134.91"/>
<polygon fill="#63b8ff" stroke="#63b8ff" points="850.44,-171.86 845.77,-181.37 855.35,-176.85 850.44,-171.86"/>
</a>
</g>
</g>
</g>
</svg>
