<?xml version="1.0" encoding="UTF-8" standalone="no"?>
<!DOCTYPE svg PUBLIC "-//W3C//DTD SVG 1.1//EN"
 "http://www.w3.org/Graphics/SVG/1.1/DTD/svg11.dtd">
<!-- Generated by graphviz version 2.43.0 (0)
 -->
<!-- Title: core/src/main.cpp Pages: 1 -->
<svg width="697pt" height="412pt"
 viewBox="0.00 0.00 696.50 412.00" xmlns="http://www.w3.org/2000/svg" xmlns:xlink="http://www.w3.org/1999/xlink">
<g id="graph0" class="graph" transform="scale(1 1) rotate(0) translate(4 408)">
<title>core/src/main.cpp</title>
<!-- Node1 -->
<g id="Node000001" class="node">
<title>Node1</title>
<g id="a_Node000001"><a xlink:title=" ">
<polygon fill="#999999" stroke="#666666" points="378.5,-404 275.5,-404 275.5,-385 378.5,-385 378.5,-404"/>
<text text-anchor="middle" x="327" y="-392" font-family="Helvetica,sans-Serif" font-size="10.00">core/src/main.cpp</text>
</a>
</g>
</g>
<!-- Node2 -->
<g id="Node000002" class="node">
<title>Node2</title>
<g id="a_Node000002"><a xlink:href="Arcade_8hpp.html" target="_top" xlink:title=" ">
<polygon fill="white" stroke="#666666" points="276.5,-349 205.5,-349 205.5,-330 276.5,-330 276.5,-349"/>
<text text-anchor="middle" x="241" y="-337" font-family="Helvetica,sans-Serif" font-size="10.00">Arcade.hpp</text>
</a>
</g>
</g>
<!-- Node1&#45;&gt;Node2 -->
<g id="edge1_Node000001_Node000002" class="edge">
<title>Node1&#45;&gt;Node2</title>
<g id="a_edge1_Node000001_Node000002"><a xlink:title=" ">
<path fill="none" stroke="#63b8ff" d="M313.18,-384.98C299.85,-376.77 279.42,-364.18 263.69,-354.49"/>
<polygon fill="#63b8ff" stroke="#63b8ff" points="265.42,-351.44 255.07,-349.17 261.75,-357.4 265.42,-351.44"/>
</a>
</g>
</g>
<!-- Node24 -->
<g id="Node000024" class="node">
<title>Node24</title>
<g id="a_Node000024"><a xlink:title=" ">
<polygon fill="#e0e0e0" stroke="#999999" points="359.5,-349 294.5,-349 294.5,-330 359.5,-330 359.5,-349"/>
<text text-anchor="middle" x="327" y="-337" font-family="Helvetica,sans-Serif" font-size="10.00">exception</text>
</a>
</g>
</g>
<!-- Node1&#45;&gt;Node24 -->
<g id="edge33_Node000001_Node000024" class="edge">
<title>Node1&#45;&gt;Node24</title>
<g id="a_edge33_Node000001_Node000024"><a xlink:title=" ">
<path fill="none" stroke="#63b8ff" d="M327,-384.75C327,-377.8 327,-367.85 327,-359.13"/>
<polygon fill="#63b8ff" stroke="#63b8ff" points="330.5,-359.09 327,-349.09 323.5,-359.09 330.5,-359.09"/>
</a>
</g>
</g>
<!-- Node25 -->
<g id="Node000025" class="node">
<title>Node25</title>
<g id="a_Node000025"><a xlink:title=" ">
<polygon fill="#e0e0e0" stroke="#999999" points="438,-349 378,-349 378,-330 438,-330 438,-349"/>
<text text-anchor="middle" x="408" y="-337" font-family="Helvetica,sans-Serif" font-size="10.00">iostream</text>
</a>
</g>
</g>
<!-- Node1&#45;&gt;Node25 -->
<g id="edge34_Node000001_Node000025" class="edge">
<title>Node1&#45;&gt;Node25</title>
<g id="a_edge34_Node000001_Node000025"><a xlink:title=" ">
<path fill="none" stroke="#63b8ff" d="M340.01,-384.98C352.46,-376.84 371.46,-364.41 386.21,-354.76"/>
<polygon fill="#63b8ff" stroke="#63b8ff" points="388.3,-357.57 394.75,-349.17 384.46,-351.72 388.3,-357.57"/>
</a>
</g>
</g>
<!-- Node3 -->
<g id="Node000003" class="node">
<title>Node3</title>
<g id="a_Node000003"><a xlink:href="Display_8hpp.html" target="_top" xlink:title=" ">
<polygon fill="white" stroke="#666666" points="321.5,-294 248.5,-294 248.5,-275 321.5,-275 321.5,-294"/>
<text text-anchor="middle" x="285" y="-282" font-family="Helvetica,sans-Serif" font-size="10.00">Display.hpp</text>
</a>
</g>
</g>
<!-- Node2&#45;&gt;Node3 -->
<g id="edge2_Node000002_Node000003" class="edge">
<title>Node2&#45;&gt;Node3</title>
<g id="a_edge2_Node000002_Node000003"><a xlink:title=" ">
<path fill="none" stroke="#63b8ff" d="M248.27,-329.75C254.54,-322.18 263.79,-311.05 271.43,-301.84"/>
<polygon fill="#63b8ff" stroke="#63b8ff" points="274.17,-304.02 277.87,-294.09 268.79,-299.55 274.17,-304.02"/>
</a>
</g>
</g>
<!-- Node5 -->
<g id="Node000005" class="node">
<title>Node5</title>
<g id="a_Node000005"><a xlink:href="gfx_8hpp.html" target="_top" xlink:title=" ">
<polygon fill="white" stroke="#666666" points="310.5,-129 257.5,-129 257.5,-110 310.5,-110 310.5,-129"/>
<text text-anchor="middle" x="284" y="-117" font-family="Helvetica,sans-Serif" font-size="10.00">gfx.hpp</text>
</a>
</g>
</g>
<!-- Node2&#45;&gt;Node5 -->
<g id="edge29_Node000002_Node000005" class="edge">
<title>Node2&#45;&gt;Node5</title>
<g id="a_edge29_Node000002_Node000005"><a xlink:title=" ">
<path fill="none" stroke="#63b8ff" d="M211.6,-329.97C192.89,-323.11 169.52,-311.66 155,-294 133.63,-268.01 123.32,-249.77 139,-220 162.21,-175.92 214.73,-147.61 249.78,-132.88"/>
<polygon fill="#63b8ff" stroke="#63b8ff" points="251.2,-136.08 259.16,-129.08 248.58,-129.59 251.2,-136.08"/>
</a>
</g>
</g>
<!-- Node15 -->
<g id="Node000015" class="node">
<title>Node15</title>
<g id="a_Node000015"><a xlink:title=" ">
<polygon fill="#e0e0e0" stroke="#999999" points="44,-19 0,-19 0,0 44,0 44,-19"/>
<text text-anchor="middle" x="22" y="-7" font-family="Helvetica,sans-Serif" font-size="10.00">string</text>
</a>
</g>
</g>
<!-- Node2&#45;&gt;Node15 -->
<g id="edge31_Node000002_Node000015" class="edge">
<title>Node2&#45;&gt;Node15</title>
<g id="a_edge31_Node000002_Node000015"><a xlink:title=" ">
<path fill="none" stroke="#63b8ff" d="M205.44,-337.26C141.79,-332.95 15,-313.88 15,-230.5 15,-230.5 15,-230.5 15,-118.5 15,-87.12 17.98,-50.73 20.05,-29.21"/>
<polygon fill="#63b8ff" stroke="#63b8ff" points="23.54,-29.47 21.06,-19.17 16.58,-28.77 23.54,-29.47"/>
</a>
</g>
</g>
<!-- Node18 -->
<g id="Node000018" class="node">
<title>Node18</title>
<g id="a_Node000018"><a xlink:title=" ">
<polygon fill="#e0e0e0" stroke="#999999" points="439.5,-129 392.5,-129 392.5,-110 439.5,-110 439.5,-129"/>
<text text-anchor="middle" x="416" y="-117" font-family="Helvetica,sans-Serif" font-size="10.00">queue</text>
</a>
</g>
</g>
<!-- Node2&#45;&gt;Node18 -->
<g id="edge30_Node000002_Node000018" class="edge">
<title>Node2&#45;&gt;Node18</title>
<g id="a_edge30_Node000002_Node000018"><a xlink:title=" ">
<path fill="none" stroke="#63b8ff" d="M276.89,-330.73C321.55,-319.04 396.51,-292.37 434,-239 453.02,-211.93 450.64,-196.93 442,-165 439.34,-155.19 433.93,-145.33 428.72,-137.39"/>
<polygon fill="#63b8ff" stroke="#63b8ff" points="431.5,-135.25 422.89,-129.07 425.77,-139.27 431.5,-135.25"/>
</a>
</g>
</g>
<!-- Node22 -->
<g id="Node000022" class="node">
<title>Node22</title>
<g id="a_Node000022"><a xlink:href="Game_8hpp.html" target="_top" xlink:title=" ">
<polygon fill="white" stroke="#666666" points="230.5,-294 163.5,-294 163.5,-275 230.5,-275 230.5,-294"/>
<text text-anchor="middle" x="197" y="-282" font-family="Helvetica,sans-Serif" font-size="10.00">Game.hpp</text>
</a>
</g>
</g>
<!-- Node2&#45;&gt;Node22 -->
<g id="edge25_Node000002_Node000022" class="edge">
<title>Node2&#45;&gt;Node22</title>
<g id="a_edge25_Node000002_Node000022"><a xlink:title=" ">
<path fill="none" stroke="#63b8ff" d="M233.73,-329.75C227.46,-322.18 218.21,-311.05 210.57,-301.84"/>
<polygon fill="#63b8ff" stroke="#63b8ff" points="213.21,-299.55 204.13,-294.09 207.83,-304.02 213.21,-299.55"/>
</a>
</g>
</g>
<!-- Node23 -->
<g id="Node000023" class="node">
<title>Node23</title>
<g id="a_Node000023"><a xlink:title=" ">
<polygon fill="#e0e0e0" stroke="#999999" points="548.5,-294 501.5,-294 501.5,-275 548.5,-275 548.5,-294"/>
<text text-anchor="middle" x="525" y="-282" font-family="Helvetica,sans-Serif" font-size="10.00">vector</text>
</a>
</g>
</g>
<!-- Node2&#45;&gt;Node23 -->
<g id="edge32_Node000002_Node000023" class="edge">
<title>Node2&#45;&gt;Node23</title>
<g id="a_edge32_Node000002_Node000023"><a xlink:title=" ">
<path fill="none" stroke="#63b8ff" d="M276.86,-331.7C279.95,-331.12 283.03,-330.55 286,-330 375.26,-313.58 398.03,-311.91 487,-294 488.45,-293.71 489.93,-293.4 491.42,-293.09"/>
<polygon fill="#63b8ff" stroke="#63b8ff" points="492.28,-296.49 501.32,-290.96 490.8,-289.65 492.28,-296.49"/>
</a>
</g>
</g>
<!-- Node4 -->
<g id="Node000004" class="node">
<title>Node4</title>
<g id="a_Node000004"><a xlink:href="IDisplay_8hpp.html" target="_top" xlink:title=" ">
<polygon fill="white" stroke="#666666" points="407,-239 331,-239 331,-220 407,-220 407,-239"/>
<text text-anchor="middle" x="369" y="-227" font-family="Helvetica,sans-Serif" font-size="10.00">IDisplay.hpp</text>
</a>
</g>
</g>
<!-- Node3&#45;&gt;Node4 -->
<g id="edge3_Node000003_Node000004" class="edge">
<title>Node3&#45;&gt;Node4</title>
<g id="a_edge3_Node000003_Node000004"><a xlink:title=" ">
<path fill="none" stroke="#63b8ff" d="M298.5,-274.98C311.4,-266.84 331.1,-254.41 346.4,-244.76"/>
<polygon fill="#63b8ff" stroke="#63b8ff" points="348.67,-247.47 355.26,-239.17 344.93,-241.55 348.67,-247.47"/>
</a>
</g>
</g>
<!-- Node3&#45;&gt;Node18 -->
<g id="edge24_Node000003_Node000018" class="edge">
<title>Node3&#45;&gt;Node18</title>
<g id="a_edge24_Node000003_Node000018"><a xlink:title=" ">
<path fill="none" stroke="#63b8ff" d="M321.77,-282.13C352.54,-278.8 394.74,-268.68 416,-239 437.19,-209.43 429.1,-164.17 422.08,-139"/>
<polygon fill="#63b8ff" stroke="#63b8ff" points="425.38,-137.82 419.13,-129.27 418.68,-139.85 425.38,-137.82"/>
</a>
</g>
</g>
<!-- Node20 -->
<g id="Node000020" class="node">
<title>Node20</title>
<g id="a_Node000020"><a xlink:href="DlLoader_8hpp.html" target="_top" xlink:title=" ">
<polygon fill="white" stroke="#666666" points="237,-239 157,-239 157,-220 237,-220 237,-239"/>
<text text-anchor="middle" x="197" y="-227" font-family="Helvetica,sans-Serif" font-size="10.00">DlLoader.hpp</text>
</a>
</g>
</g>
<!-- Node3&#45;&gt;Node20 -->
<g id="edge21_Node000003_Node000020" class="edge">
<title>Node3&#45;&gt;Node20</title>
<g id="a_edge21_Node000003_Node000020"><a xlink:title=" ">
<path fill="none" stroke="#63b8ff" d="M270.86,-274.98C257.21,-266.77 236.31,-254.18 220.22,-244.49"/>
<polygon fill="#63b8ff" stroke="#63b8ff" points="221.77,-241.33 211.4,-239.17 218.16,-247.33 221.77,-241.33"/>
</a>
</g>
</g>
<!-- Node21 -->
<g id="Node000021" class="node">
<title>Node21</title>
<g id="a_Node000021"><a xlink:title=" ">
<polygon fill="#e0e0e0" stroke="#999999" points="313,-239 255,-239 255,-220 313,-220 313,-239"/>
<text text-anchor="middle" x="284" y="-227" font-family="Helvetica,sans-Serif" font-size="10.00">memory</text>
</a>
</g>
</g>
<!-- Node3&#45;&gt;Node21 -->
<g id="edge23_Node000003_Node000021" class="edge">
<title>Node3&#45;&gt;Node21</title>
<g id="a_edge23_Node000003_Node000021"><a xlink:title=" ">
<path fill="none" stroke="#63b8ff" d="M284.83,-274.75C284.7,-267.8 284.52,-257.85 284.35,-249.13"/>
<polygon fill="#63b8ff" stroke="#63b8ff" points="287.85,-249.02 284.16,-239.09 280.85,-249.15 287.85,-249.02"/>
</a>
</g>
</g>
<!-- Node4&#45;&gt;Node5 -->
<g id="edge4_Node000004_Node000005" class="edge">
<title>Node4&#45;&gt;Node5</title>
<g id="a_edge4_Node000004_Node000005"><a xlink:title=" ">
<path fill="none" stroke="#63b8ff" d="M340.1,-219.87C322.6,-213.05 301.49,-201.69 290,-184 281.42,-170.8 280.52,-152.67 281.42,-139.16"/>
<polygon fill="#63b8ff" stroke="#63b8ff" points="284.91,-139.42 282.46,-129.11 277.95,-138.7 284.91,-139.42"/>
</a>
</g>
</g>
<!-- Node4&#45;&gt;Node18 -->
<g id="edge17_Node000004_Node000018" class="edge">
<title>Node4&#45;&gt;Node18</title>
<g id="a_edge17_Node000004_Node000018"><a xlink:title=" ">
<path fill="none" stroke="#63b8ff" d="M372.85,-219.66C380.53,-202.01 397.9,-162.09 408.11,-138.64"/>
<polygon fill="#63b8ff" stroke="#63b8ff" points="411.45,-139.72 412.23,-129.16 405.03,-136.93 411.45,-139.72"/>
</a>
</g>
</g>
<!-- Node19 -->
<g id="Node000019" class="node">
<title>Node19</title>
<g id="a_Node000019"><a xlink:href="IGame_8hpp.html" target="_top" xlink:title=" ">
<polygon fill="white" stroke="#666666" points="369,-184 299,-184 299,-165 369,-165 369,-184"/>
<text text-anchor="middle" x="334" y="-172" font-family="Helvetica,sans-Serif" font-size="10.00">IGame.hpp</text>
</a>
</g>
</g>
<!-- Node4&#45;&gt;Node19 -->
<g id="edge18_Node000004_Node000019" class="edge">
<title>Node4&#45;&gt;Node19</title>
<g id="a_edge18_Node000004_Node000019"><a xlink:title=" ">
<path fill="none" stroke="#63b8ff" d="M363.22,-219.75C358.38,-212.42 351.32,-201.73 345.36,-192.7"/>
<polygon fill="#63b8ff" stroke="#63b8ff" points="348.1,-190.5 339.67,-184.09 342.26,-194.36 348.1,-190.5"/>
</a>
</g>
</g>
<!-- Node6 -->
<g id="Node000006" class="node">
<title>Node6</title>
<g id="a_Node000006"><a xlink:title=" ">
<polygon fill="#e0e0e0" stroke="#999999" points="522.5,-74 469.5,-74 469.5,-55 522.5,-55 522.5,-74"/>
<text text-anchor="middle" x="496" y="-62" font-family="Helvetica,sans-Serif" font-size="10.00">cstddef</text>
</a>
</g>
</g>
<!-- Node5&#45;&gt;Node6 -->
<g id="edge5_Node000005_Node000006" class="edge">
<title>Node5&#45;&gt;Node6</title>
<g id="a_edge5_Node000005_Node000006"><a xlink:title=" ">
<path fill="none" stroke="#63b8ff" d="M310.85,-111.79C348.52,-102.37 417.19,-85.2 459.48,-74.63"/>
<polygon fill="#63b8ff" stroke="#63b8ff" points="460.52,-77.98 469.37,-72.16 458.82,-71.19 460.52,-77.98"/>
</a>
</g>
</g>
<!-- Node7 -->
<g id="Node000007" class="node">
<title>Node7</title>
<g id="a_Node000007"><a xlink:href="Keys_8hpp.html" target="_top" xlink:title=" ">
<polygon fill="white" stroke="#666666" points="307.5,-74 246.5,-74 246.5,-55 307.5,-55 307.5,-74"/>
<text text-anchor="middle" x="277" y="-62" font-family="Helvetica,sans-Serif" font-size="10.00">Keys.hpp</text>
</a>
</g>
</g>
<!-- Node5&#45;&gt;Node7 -->
<g id="edge6_Node000005_Node000007" class="edge">
<title>Node5&#45;&gt;Node7</title>
<g id="a_edge6_Node000005_Node000007"><a xlink:title=" ">
<path fill="none" stroke="#63b8ff" d="M282.84,-109.75C281.93,-102.8 280.61,-92.85 279.46,-84.13"/>
<polygon fill="#63b8ff" stroke="#63b8ff" points="282.91,-83.54 278.13,-74.09 275.97,-84.46 282.91,-83.54"/>
</a>
</g>
</g>
<!-- Node13 -->
<g id="Node000013" class="node">
<title>Node13</title>
<g id="a_Node000013"><a xlink:href="shape_8hpp.html" target="_top" xlink:title=" ">
<polygon fill="white" stroke="#666666" points="148.5,-74 81.5,-74 81.5,-55 148.5,-55 148.5,-74"/>
<text text-anchor="middle" x="115" y="-62" font-family="Helvetica,sans-Serif" font-size="10.00">shape.hpp</text>
</a>
</g>
</g>
<!-- Node5&#45;&gt;Node13 -->
<g id="edge12_Node000005_Node000013" class="edge">
<title>Node5&#45;&gt;Node13</title>
<g id="a_edge12_Node000005_Node000013"><a xlink:title=" ">
<path fill="none" stroke="#63b8ff" d="M257.22,-110.1C228.83,-101.2 183.8,-87.08 152.03,-77.11"/>
<polygon fill="#63b8ff" stroke="#63b8ff" points="152.8,-73.69 142.21,-74.03 150.71,-80.37 152.8,-73.69"/>
</a>
</g>
</g>
<!-- Node16 -->
<g id="Node000016" class="node">
<title>Node16</title>
<g id="a_Node000016"><a xlink:title=" ">
<polygon fill="#e0e0e0" stroke="#999999" points="382,-74 326,-74 326,-55 382,-55 382,-74"/>
<text text-anchor="middle" x="354" y="-62" font-family="Helvetica,sans-Serif" font-size="10.00">optional</text>
</a>
</g>
</g>
<!-- Node5&#45;&gt;Node16 -->
<g id="edge15_Node000005_Node000016" class="edge">
<title>Node5&#45;&gt;Node16</title>
<g id="a_edge15_Node000005_Node000016"><a xlink:title=" ">
<path fill="none" stroke="#63b8ff" d="M295.25,-109.98C305.8,-102 321.8,-89.88 334.44,-80.31"/>
<polygon fill="#63b8ff" stroke="#63b8ff" points="336.69,-83 342.55,-74.17 332.46,-77.42 336.69,-83"/>
</a>
</g>
</g>
<!-- Node17 -->
<g id="Node000017" class="node">
<title>Node17</title>
<g id="a_Node000017"><a xlink:title=" ">
<polygon fill="#e0e0e0" stroke="#999999" points="451.5,-74 400.5,-74 400.5,-55 451.5,-55 451.5,-74"/>
<text text-anchor="middle" x="426" y="-62" font-family="Helvetica,sans-Serif" font-size="10.00">variant</text>
</a>
</g>
</g>
<!-- Node5&#45;&gt;Node17 -->
<g id="edge16_Node000005_Node000017" class="edge">
<title>Node5&#45;&gt;Node17</title>
<g id="a_edge16_Node000005_Node000017"><a xlink:title=" ">
<path fill="none" stroke="#63b8ff" d="M306.81,-109.98C330.17,-101.27 366.7,-87.63 393.17,-77.75"/>
<polygon fill="#63b8ff" stroke="#63b8ff" points="394.63,-80.95 402.77,-74.17 392.18,-74.39 394.63,-80.95"/>
</a>
</g>
</g>
<!-- Node8 -->
<g id="Node000008" class="node">
<title>Node8</title>
<g id="a_Node000008"><a xlink:title=" ">
<polygon fill="#e0e0e0" stroke="#999999" points="238.5,-19 145.5,-19 145.5,0 238.5,0 238.5,-19"/>
<text text-anchor="middle" x="192" y="-7" font-family="Helvetica,sans-Serif" font-size="10.00">unordered_map</text>
</a>
</g>
</g>
<!-- Node7&#45;&gt;Node8 -->
<g id="edge7_Node000007_Node000008" class="edge">
<title>Node7&#45;&gt;Node8</title>
<g id="a_edge7_Node000007_Node000008"><a xlink:title=" ">
<path fill="none" stroke="#63b8ff" d="M263.34,-54.98C250.16,-46.77 229.97,-34.18 214.43,-24.49"/>
<polygon fill="#63b8ff" stroke="#63b8ff" points="216.24,-21.49 205.91,-19.17 212.54,-27.43 216.24,-21.49"/>
</a>
</g>
</g>
<!-- Node9 -->
<g id="Node000009" class="node">
<title>Node9</title>
<g id="a_Node000009"><a xlink:title=" ">
<polygon fill="#e0e0e0" stroke="#999999" points="297.5,-19 256.5,-19 256.5,0 297.5,0 297.5,-19"/>
<text text-anchor="middle" x="277" y="-7" font-family="Helvetica,sans-Serif" font-size="10.00">tuple</text>
</a>
</g>
</g>
<!-- Node7&#45;&gt;Node9 -->
<g id="edge8_Node000007_Node000009" class="edge">
<title>Node7&#45;&gt;Node9</title>
<g id="a_edge8_Node000007_Node000009"><a xlink:title=" ">
<path fill="none" stroke="#63b8ff" d="M277,-54.75C277,-47.8 277,-37.85 277,-29.13"/>
<polygon fill="#63b8ff" stroke="#63b8ff" points="280.5,-29.09 277,-19.09 273.5,-29.09 280.5,-29.09"/>
</a>
</g>
</g>
<!-- Node10 -->
<g id="Node000010" class="node">
<title>Node10</title>
<g id="a_Node000010"><a xlink:title=" ">
<polygon fill="#e0e0e0" stroke="#999999" points="434,-19 316,-19 316,0 434,0 434,-19"/>
<text text-anchor="middle" x="375" y="-7" font-family="Helvetica,sans-Serif" font-size="10.00">SDL2/SDL_keycode.h</text>
</a>
</g>
</g>
<!-- Node7&#45;&gt;Node10 -->
<g id="edge9_Node000007_Node000010" class="edge">
<title>Node7&#45;&gt;Node10</title>
<g id="a_edge9_Node000007_Node000010"><a xlink:title=" ">
<path fill="none" stroke="#63b8ff" d="M292.75,-54.98C308.23,-46.61 332.09,-33.7 350.14,-23.95"/>
<polygon fill="#63b8ff" stroke="#63b8ff" points="351.84,-27.01 358.97,-19.17 348.51,-20.85 351.84,-27.01"/>
</a>
</g>
</g>
<!-- Node11 -->
<g id="Node000011" class="node">
<title>Node11</title>
<g id="a_Node000011"><a xlink:title=" ">
<polygon fill="#e0e0e0" stroke="#999999" points="607.5,-19 452.5,-19 452.5,0 607.5,0 607.5,-19"/>
<text text-anchor="middle" x="530" y="-7" font-family="Helvetica,sans-Serif" font-size="10.00">SFML/Window/Keyboard.hpp</text>
</a>
</g>
</g>
<!-- Node7&#45;&gt;Node11 -->
<g id="edge10_Node000007_Node000011" class="edge">
<title>Node7&#45;&gt;Node11</title>
<g id="a_edge10_Node000007_Node000011"><a xlink:title=" ">
<path fill="none" stroke="#63b8ff" d="M307.57,-56.99C310.76,-56.32 313.94,-55.64 317,-55 372.27,-43.35 435.63,-30.13 478.79,-21.15"/>
<polygon fill="#63b8ff" stroke="#63b8ff" points="479.68,-24.54 488.76,-19.07 478.26,-17.68 479.68,-24.54"/>
</a>
</g>
</g>
<!-- Node12 -->
<g id="Node000012" class="node">
<title>Node12</title>
<g id="a_Node000012"><a xlink:title=" ">
<polygon fill="#e0e0e0" stroke="#999999" points="688.5,-19 625.5,-19 625.5,0 688.5,0 688.5,-19"/>
<text text-anchor="middle" x="657" y="-7" font-family="Helvetica,sans-Serif" font-size="10.00">ncurses.h</text>
</a>
</g>
</g>
<!-- Node7&#45;&gt;Node12 -->
<g id="edge11_Node000007_Node000012" class="edge">
<title>Node7&#45;&gt;Node12</title>
<g id="a_edge11_Node000007_Node000012"><a xlink:title=" ">
<path fill="none" stroke="#63b8ff" d="M307.52,-56.72C310.71,-56.1 313.92,-55.51 317,-55 446.24,-33.56 482.75,-40.61 615.06,-19.2"/>
<polygon fill="#63b8ff" stroke="#63b8ff" points="615.87,-22.61 625.17,-17.53 614.74,-15.7 615.87,-22.61"/>
</a>
</g>
</g>
<!-- Node14 -->
<g id="Node000014" class="node">
<title>Node14</title>
<g id="a_Node000014"><a xlink:title=" ">
<polygon fill="#e0e0e0" stroke="#999999" points="127.5,-19 62.5,-19 62.5,0 127.5,0 127.5,-19"/>
<text text-anchor="middle" x="95" y="-7" font-family="Helvetica,sans-Serif" font-size="10.00">functional</text>
</a>
</g>
</g>
<!-- Node13&#45;&gt;Node14 -->
<g id="edge13_Node000013_Node000014" class="edge">
<title>Node13&#45;&gt;Node14</title>
<g id="a_edge13_Node000013_Node000014"><a xlink:title=" ">
<path fill="none" stroke="#63b8ff" d="M111.7,-54.75C109.02,-47.65 105.15,-37.4 101.81,-28.56"/>
<polygon fill="#63b8ff" stroke="#63b8ff" points="105.05,-27.21 98.24,-19.09 98.5,-29.68 105.05,-27.21"/>
</a>
</g>
</g>
<!-- Node13&#45;&gt;Node15 -->
<g id="edge14_Node000013_Node000015" class="edge">
<title>Node13&#45;&gt;Node15</title>
<g id="a_edge14_Node000013_Node000015"><a xlink:title=" ">
<path fill="none" stroke="#63b8ff" d="M100.06,-54.98C85.5,-46.69 63.13,-33.94 46.07,-24.22"/>
<polygon fill="#63b8ff" stroke="#63b8ff" points="47.64,-21.08 37.21,-19.17 44.17,-27.16 47.64,-21.08"/>
</a>
</g>
</g>
<!-- Node19&#45;&gt;Node5 -->
<g id="edge19_Node000019_Node000005" class="edge">
<title>Node19&#45;&gt;Node5</title>
<g id="a_edge19_Node000019_Node000005"><a xlink:title=" ">
<path fill="none" stroke="#63b8ff" d="M325.74,-164.75C318.54,-157.11 307.89,-145.82 299.15,-136.56"/>
<polygon fill="#63b8ff" stroke="#63b8ff" points="301.51,-133.96 292.1,-129.09 296.42,-138.76 301.51,-133.96"/>
</a>
</g>
</g>
<!-- Node19&#45;&gt;Node18 -->
<g id="edge20_Node000019_Node000018" class="edge">
<title>Node19&#45;&gt;Node18</title>
<g id="a_edge20_Node000019_Node000018"><a xlink:title=" ">
<path fill="none" stroke="#63b8ff" d="M347.17,-164.98C359.77,-156.84 379,-144.41 393.94,-134.76"/>
<polygon fill="#63b8ff" stroke="#63b8ff" points="396.09,-137.54 402.59,-129.17 392.29,-131.66 396.09,-137.54"/>
</a>
</g>
</g>
<!-- Node20&#45;&gt;Node15 -->
<g id="edge22_Node000020_Node000015" class="edge">
<title>Node20&#45;&gt;Node15</title>
<g id="a_edge22_Node000020_Node000015"><a xlink:title=" ">
<path fill="none" stroke="#63b8ff" d="M189.91,-219.82C170.78,-196.38 116.55,-129.82 72,-74 59.34,-58.14 45.03,-39.93 34.97,-27.09"/>
<polygon fill="#63b8ff" stroke="#63b8ff" points="37.68,-24.87 28.76,-19.16 32.16,-29.19 37.68,-24.87"/>
</a>
</g>
</g>
<!-- Node22&#45;&gt;Node19 -->
<g id="edge26_Node000022_Node000019" class="edge">
<title>Node22&#45;&gt;Node19</title>
<g id="a_edge26_Node000022_Node000019"><a xlink:title=" ">
<path fill="none" stroke="#63b8ff" d="M181.85,-274.83C162.33,-262.56 132.65,-239.46 148,-220 165.18,-198.22 239.19,-185.91 288.52,-179.99"/>
<polygon fill="#63b8ff" stroke="#63b8ff" points="289.1,-183.45 298.64,-178.82 288.3,-176.49 289.1,-183.45"/>
</a>
</g>
</g>
<!-- Node22&#45;&gt;Node20 -->
<g id="edge27_Node000022_Node000020" class="edge">
<title>Node22&#45;&gt;Node20</title>
<g id="a_edge27_Node000022_Node000020"><a xlink:title=" ">
<path fill="none" stroke="#63b8ff" d="M197,-274.75C197,-267.8 197,-257.85 197,-249.13"/>
<polygon fill="#63b8ff" stroke="#63b8ff" points="200.5,-249.09 197,-239.09 193.5,-249.09 200.5,-249.09"/>
</a>
</g>
</g>
<!-- Node22&#45;&gt;Node21 -->
<g id="edge28_Node000022_Node000021" class="edge">
<title>Node22&#45;&gt;Node21</title>
<g id="a_edge28_Node000022_Node000021"><a xlink:title=" ">
<path fill="none" stroke="#63b8ff" d="M210.98,-274.98C224.47,-266.77 245.13,-254.18 261.04,-244.49"/>
<polygon fill="#63b8ff" stroke="#63b8ff" points="263.05,-247.36 269.77,-239.17 259.41,-241.38 263.05,-247.36"/>
</a>
</g>
</g>
</g>
</svg>
