<?xml version="1.0" encoding="UTF-8" standalone="no"?>
<!DOCTYPE svg PUBLIC "-//W3C//DTD SVG 1.1//EN"
 "http://www.w3.org/Graphics/SVG/1.1/DTD/svg11.dtd">
<!-- Generated by graphviz version 2.43.0 (0)
 -->
<!-- Title: graphics/SDL2/include/SDL2.hpp Pages: 1 -->
<svg width="1001pt" height="313pt"
 viewBox="0.00 0.00 1000.50 313.00" xmlns="http://www.w3.org/2000/svg" xmlns:xlink="http://www.w3.org/1999/xlink">
<g id="graph0" class="graph" transform="scale(1 1) rotate(0) translate(4 309)">
<title>graphics/SDL2/include/SDL2.hpp</title>
<!-- Node1 -->
<g id="Node000001" class="node">
<title>Node1</title>
<g id="a_Node000001"><a xlink:title=" ">
<polygon fill="#999999" stroke="#666666" points="683.5,-305 559.5,-305 559.5,-275 683.5,-275 683.5,-305"/>
<text text-anchor="start" x="567.5" y="-293" font-family="Helvetica,sans-Serif" font-size="10.00">graphics/SDL2/include</text>
<text text-anchor="middle" x="621.5" y="-282" font-family="Helvetica,sans-Serif" font-size="10.00">/SDL2.hpp</text>
</a>
</g>
</g>
<!-- Node2 -->
<g id="Node000002" class="node">
<title>Node2</title>
<g id="a_Node000002"><a xlink:href="IDisplay_8hpp.html" target="_top" xlink:title=" ">
<polygon fill="white" stroke="#666666" points="454.5,-239 378.5,-239 378.5,-220 454.5,-220 454.5,-239"/>
<text text-anchor="middle" x="416.5" y="-227" font-family="Helvetica,sans-Serif" font-size="10.00">IDisplay.hpp</text>
</a>
</g>
</g>
<!-- Node1&#45;&gt;Node2 -->
<g id="edge1_Node000001_Node000002" class="edge">
<title>Node1&#45;&gt;Node2</title>
<g id="a_edge1_Node000001_Node000002"><a xlink:title=" ">
<path fill="none" stroke="#63b8ff" d="M572.4,-274.99C536.87,-264.85 489.46,-251.32 456.28,-241.85"/>
<polygon fill="#63b8ff" stroke="#63b8ff" points="457.05,-238.43 446.47,-239.05 455.13,-245.16 457.05,-238.43"/>
</a>
</g>
</g>
<!-- Node3 -->
<g id="Node000003" class="node">
<title>Node3</title>
<g id="a_Node000003"><a xlink:href="gfx_8hpp.html" target="_top" xlink:title=" ">
<polygon fill="white" stroke="#666666" points="370,-129 317,-129 317,-110 370,-110 370,-129"/>
<text text-anchor="middle" x="343.5" y="-117" font-family="Helvetica,sans-Serif" font-size="10.00">gfx.hpp</text>
</a>
</g>
</g>
<!-- Node1&#45;&gt;Node3 -->
<g id="edge19_Node000001_Node000003" class="edge">
<title>Node1&#45;&gt;Node3</title>
<g id="a_edge19_Node000001_Node000003"><a xlink:title=" ">
<path fill="none" stroke="#63b8ff" d="M559.25,-283.17C494.4,-275.97 398.3,-261.82 369.5,-239 339.74,-215.42 339,-166.3 341.17,-139.29"/>
<polygon fill="#63b8ff" stroke="#63b8ff" points="344.66,-139.52 342.2,-129.21 337.7,-138.8 344.66,-139.52"/>
</a>
</g>
</g>
<!-- Node4 -->
<g id="Node000004" class="node">
<title>Node4</title>
<g id="a_Node000004"><a xlink:title=" ">
<polygon fill="#e0e0e0" stroke="#999999" points="526,-74 473,-74 473,-55 526,-55 526,-74"/>
<text text-anchor="middle" x="499.5" y="-62" font-family="Helvetica,sans-Serif" font-size="10.00">cstddef</text>
</a>
</g>
</g>
<!-- Node1&#45;&gt;Node4 -->
<g id="edge22_Node000001_Node000004" class="edge">
<title>Node1&#45;&gt;Node4</title>
<g id="a_edge22_Node000001_Node000004"><a xlink:title=" ">
<path fill="none" stroke="#63b8ff" d="M569.37,-274.99C550.75,-267.37 531.45,-255.91 519.5,-239 486.03,-191.6 491.42,-118.12 496.28,-84.03"/>
<polygon fill="#63b8ff" stroke="#63b8ff" points="499.75,-84.5 497.85,-74.08 492.83,-83.41 499.75,-84.5"/>
</a>
</g>
</g>
<!-- Node18 -->
<g id="Node000018" class="node">
<title>Node18</title>
<g id="a_Node000018"><a xlink:title=" ">
<polygon fill="#e0e0e0" stroke="#999999" points="600.5,-239 528.5,-239 528.5,-220 600.5,-220 600.5,-239"/>
<text text-anchor="middle" x="564.5" y="-227" font-family="Helvetica,sans-Serif" font-size="10.00">SDL2/SDL.h</text>
</a>
</g>
</g>
<!-- Node1&#45;&gt;Node18 -->
<g id="edge20_Node000001_Node000018" class="edge">
<title>Node1&#45;&gt;Node18</title>
<g id="a_edge20_Node000001_Node000018"><a xlink:title=" ">
<path fill="none" stroke="#63b8ff" d="M607.7,-274.84C599.43,-266.35 588.88,-255.52 580.27,-246.69"/>
<polygon fill="#63b8ff" stroke="#63b8ff" points="582.53,-243.99 573.04,-239.27 577.51,-248.87 582.53,-243.99"/>
</a>
</g>
</g>
<!-- Node19 -->
<g id="Node000019" class="node">
<title>Node19</title>
<g id="a_Node000019"><a xlink:title=" ">
<polygon fill="#e0e0e0" stroke="#999999" points="740,-239 619,-239 619,-220 740,-220 740,-239"/>
<text text-anchor="middle" x="679.5" y="-227" font-family="Helvetica,sans-Serif" font-size="10.00">SDL2/SDL_test_font.h</text>
</a>
</g>
</g>
<!-- Node1&#45;&gt;Node19 -->
<g id="edge21_Node000001_Node000019" class="edge">
<title>Node1&#45;&gt;Node19</title>
<g id="a_edge21_Node000001_Node000019"><a xlink:title=" ">
<path fill="none" stroke="#63b8ff" d="M635.54,-274.84C644.05,-266.26 654.91,-255.3 663.72,-246.42"/>
<polygon fill="#63b8ff" stroke="#63b8ff" points="666.25,-248.83 670.81,-239.27 661.28,-243.9 666.25,-248.83"/>
</a>
</g>
</g>
<!-- Node20 -->
<g id="Node000020" class="node">
<title>Node20</title>
<g id="a_Node000020"><a xlink:href="DisplayVariable_8hpp.html" target="_top" xlink:title=" ">
<polygon fill="white" stroke="#666666" points="872.5,-239 758.5,-239 758.5,-220 872.5,-220 872.5,-239"/>
<text text-anchor="middle" x="815.5" y="-227" font-family="Helvetica,sans-Serif" font-size="10.00">DisplayVariable.hpp</text>
</a>
</g>
</g>
<!-- Node1&#45;&gt;Node20 -->
<g id="edge23_Node000001_Node000020" class="edge">
<title>Node1&#45;&gt;Node20</title>
<g id="a_edge23_Node000001_Node000020"><a xlink:title=" ">
<path fill="none" stroke="#63b8ff" d="M667.97,-274.99C701.45,-264.89 746.07,-251.44 777.44,-241.98"/>
<polygon fill="#63b8ff" stroke="#63b8ff" points="778.57,-245.29 787.13,-239.05 776.55,-238.59 778.57,-245.29"/>
</a>
</g>
</g>
<!-- Node22 -->
<g id="Node000022" class="node">
<title>Node22</title>
<g id="a_Node000022"><a xlink:title=" ">
<polygon fill="#e0e0e0" stroke="#999999" points="936.5,-239 890.5,-239 890.5,-220 936.5,-220 936.5,-239"/>
<text text-anchor="middle" x="913.5" y="-227" font-family="Helvetica,sans-Serif" font-size="10.00">cstdio</text>
</a>
</g>
</g>
<!-- Node1&#45;&gt;Node22 -->
<g id="edge25_Node000001_Node000022" class="edge">
<title>Node1&#45;&gt;Node22</title>
<g id="a_edge25_Node000001_Node000022"><a xlink:title=" ">
<path fill="none" stroke="#63b8ff" d="M683.74,-278.29C734.3,-269.3 807.65,-255.61 880.65,-239.07"/>
<polygon fill="#63b8ff" stroke="#63b8ff" points="881.51,-242.46 890.48,-236.82 879.95,-235.64 881.51,-242.46"/>
</a>
</g>
</g>
<!-- Node23 -->
<g id="Node000023" class="node">
<title>Node23</title>
<g id="a_Node000023"><a xlink:title=" ">
<polygon fill="#e0e0e0" stroke="#999999" points="992.5,-239 954.5,-239 954.5,-220 992.5,-220 992.5,-239"/>
<text text-anchor="middle" x="973.5" y="-227" font-family="Helvetica,sans-Serif" font-size="10.00">map</text>
</a>
</g>
</g>
<!-- Node1&#45;&gt;Node23 -->
<g id="edge26_Node000001_Node000023" class="edge">
<title>Node1&#45;&gt;Node23</title>
<g id="a_edge26_Node000001_Node000023"><a xlink:title=" ">
<path fill="none" stroke="#63b8ff" d="M683.5,-282.08C746.9,-274.41 848.31,-260.5 944.43,-238.96"/>
<polygon fill="#63b8ff" stroke="#63b8ff" points="945.34,-242.34 954.32,-236.71 943.79,-235.52 945.34,-242.34"/>
</a>
</g>
</g>
<!-- Node2&#45;&gt;Node3 -->
<g id="edge2_Node000002_Node000003" class="edge">
<title>Node2&#45;&gt;Node3</title>
<g id="a_edge2_Node000002_Node000003"><a xlink:title=" ">
<path fill="none" stroke="#63b8ff" d="M398.06,-219.87C384.13,-212.38 365.73,-200.18 355.5,-184 347.06,-170.65 344.28,-152.78 343.48,-139.4"/>
<polygon fill="#63b8ff" stroke="#63b8ff" points="346.96,-138.92 343.19,-129.02 339.97,-139.12 346.96,-138.92"/>
</a>
</g>
</g>
<!-- Node16 -->
<g id="Node000016" class="node">
<title>Node16</title>
<g id="a_Node000016"><a xlink:title=" ">
<polygon fill="#e0e0e0" stroke="#999999" points="453,-129 406,-129 406,-110 453,-110 453,-129"/>
<text text-anchor="middle" x="429.5" y="-117" font-family="Helvetica,sans-Serif" font-size="10.00">queue</text>
</a>
</g>
</g>
<!-- Node2&#45;&gt;Node16 -->
<g id="edge15_Node000002_Node000016" class="edge">
<title>Node2&#45;&gt;Node16</title>
<g id="a_edge15_Node000002_Node000016"><a xlink:title=" ">
<path fill="none" stroke="#63b8ff" d="M423.65,-219.97C430.27,-211.48 439.65,-197.75 443.5,-184 447.73,-168.88 443.23,-151.45 438.24,-138.68"/>
<polygon fill="#63b8ff" stroke="#63b8ff" points="441.32,-136.97 434.11,-129.2 434.9,-139.77 441.32,-136.97"/>
</a>
</g>
</g>
<!-- Node17 -->
<g id="Node000017" class="node">
<title>Node17</title>
<g id="a_Node000017"><a xlink:href="IGame_8hpp.html" target="_top" xlink:title=" ">
<polygon fill="white" stroke="#666666" points="434.5,-184 364.5,-184 364.5,-165 434.5,-165 434.5,-184"/>
<text text-anchor="middle" x="399.5" y="-172" font-family="Helvetica,sans-Serif" font-size="10.00">IGame.hpp</text>
</a>
</g>
</g>
<!-- Node2&#45;&gt;Node17 -->
<g id="edge16_Node000002_Node000017" class="edge">
<title>Node2&#45;&gt;Node17</title>
<g id="a_edge16_Node000002_Node000017"><a xlink:title=" ">
<path fill="none" stroke="#63b8ff" d="M413.69,-219.75C411.44,-212.72 408.2,-202.62 405.38,-193.84"/>
<polygon fill="#63b8ff" stroke="#63b8ff" points="408.64,-192.54 402.25,-184.09 401.98,-194.68 408.64,-192.54"/>
</a>
</g>
</g>
<!-- Node3&#45;&gt;Node4 -->
<g id="edge3_Node000003_Node000004" class="edge">
<title>Node3&#45;&gt;Node4</title>
<g id="a_edge3_Node000003_Node000004"><a xlink:title=" ">
<path fill="none" stroke="#63b8ff" d="M368.56,-109.98C394.53,-101.16 435.31,-87.31 464.46,-77.41"/>
<polygon fill="#63b8ff" stroke="#63b8ff" points="465.9,-80.61 474.24,-74.08 463.65,-73.99 465.9,-80.61"/>
</a>
</g>
</g>
<!-- Node5 -->
<g id="Node000005" class="node">
<title>Node5</title>
<g id="a_Node000005"><a xlink:href="Keys_8hpp.html" target="_top" xlink:title=" ">
<polygon fill="white" stroke="#666666" points="453,-74 392,-74 392,-55 453,-55 453,-74"/>
<text text-anchor="middle" x="422.5" y="-62" font-family="Helvetica,sans-Serif" font-size="10.00">Keys.hpp</text>
</a>
</g>
</g>
<!-- Node3&#45;&gt;Node5 -->
<g id="edge4_Node000003_Node000005" class="edge">
<title>Node3&#45;&gt;Node5</title>
<g id="a_edge4_Node000003_Node000005"><a xlink:title=" ">
<path fill="none" stroke="#63b8ff" d="M356.19,-109.98C368.33,-101.84 386.86,-89.41 401.25,-79.76"/>
<polygon fill="#63b8ff" stroke="#63b8ff" points="403.22,-82.65 409.58,-74.17 399.32,-76.84 403.22,-82.65"/>
</a>
</g>
</g>
<!-- Node11 -->
<g id="Node000011" class="node">
<title>Node11</title>
<g id="a_Node000011"><a xlink:href="shape_8hpp.html" target="_top" xlink:title=" ">
<polygon fill="white" stroke="#666666" points="139,-74 72,-74 72,-55 139,-55 139,-74"/>
<text text-anchor="middle" x="105.5" y="-62" font-family="Helvetica,sans-Serif" font-size="10.00">shape.hpp</text>
</a>
</g>
</g>
<!-- Node3&#45;&gt;Node11 -->
<g id="edge10_Node000003_Node000011" class="edge">
<title>Node3&#45;&gt;Node11</title>
<g id="a_edge10_Node000003_Node000011"><a xlink:title=" ">
<path fill="none" stroke="#63b8ff" d="M316.66,-112.52C275.92,-103.45 198.03,-86.11 149.09,-75.21"/>
<polygon fill="#63b8ff" stroke="#63b8ff" points="149.63,-71.74 139.11,-72.98 148.11,-78.57 149.63,-71.74"/>
</a>
</g>
</g>
<!-- Node14 -->
<g id="Node000014" class="node">
<title>Node14</title>
<g id="a_Node000014"><a xlink:title=" ">
<polygon fill="#e0e0e0" stroke="#999999" points="300.5,-74 244.5,-74 244.5,-55 300.5,-55 300.5,-74"/>
<text text-anchor="middle" x="272.5" y="-62" font-family="Helvetica,sans-Serif" font-size="10.00">optional</text>
</a>
</g>
</g>
<!-- Node3&#45;&gt;Node14 -->
<g id="edge13_Node000003_Node000014" class="edge">
<title>Node3&#45;&gt;Node14</title>
<g id="a_edge13_Node000003_Node000014"><a xlink:title=" ">
<path fill="none" stroke="#63b8ff" d="M332.09,-109.98C321.39,-102 305.16,-89.88 292.34,-80.31"/>
<polygon fill="#63b8ff" stroke="#63b8ff" points="294.22,-77.35 284.11,-74.17 290.03,-82.96 294.22,-77.35"/>
</a>
</g>
</g>
<!-- Node15 -->
<g id="Node000015" class="node">
<title>Node15</title>
<g id="a_Node000015"><a xlink:title=" ">
<polygon fill="#e0e0e0" stroke="#999999" points="370,-74 319,-74 319,-55 370,-55 370,-74"/>
<text text-anchor="middle" x="344.5" y="-62" font-family="Helvetica,sans-Serif" font-size="10.00">variant</text>
</a>
</g>
</g>
<!-- Node3&#45;&gt;Node15 -->
<g id="edge14_Node000003_Node000015" class="edge">
<title>Node3&#45;&gt;Node15</title>
<g id="a_edge14_Node000003_Node000015"><a xlink:title=" ">
<path fill="none" stroke="#63b8ff" d="M343.67,-109.75C343.8,-102.8 343.98,-92.85 344.15,-84.13"/>
<polygon fill="#63b8ff" stroke="#63b8ff" points="347.65,-84.15 344.34,-74.09 340.65,-84.02 347.65,-84.15"/>
</a>
</g>
</g>
<!-- Node6 -->
<g id="Node000006" class="node">
<title>Node6</title>
<g id="a_Node000006"><a xlink:title=" ">
<polygon fill="#e0e0e0" stroke="#999999" points="629,-19 536,-19 536,0 629,0 629,-19"/>
<text text-anchor="middle" x="582.5" y="-7" font-family="Helvetica,sans-Serif" font-size="10.00">unordered_map</text>
</a>
</g>
</g>
<!-- Node5&#45;&gt;Node6 -->
<g id="edge5_Node000005_Node000006" class="edge">
<title>Node5&#45;&gt;Node6</title>
<g id="a_edge5_Node000005_Node000006"><a xlink:title=" ">
<path fill="none" stroke="#63b8ff" d="M448.21,-54.98C474.95,-46.13 517.03,-32.19 546.95,-22.28"/>
<polygon fill="#63b8ff" stroke="#63b8ff" points="548.2,-25.55 556.59,-19.08 546,-18.9 548.2,-25.55"/>
</a>
</g>
</g>
<!-- Node7 -->
<g id="Node000007" class="node">
<title>Node7</title>
<g id="a_Node000007"><a xlink:title=" ">
<polygon fill="#e0e0e0" stroke="#999999" points="688,-19 647,-19 647,0 688,0 688,-19"/>
<text text-anchor="middle" x="667.5" y="-7" font-family="Helvetica,sans-Serif" font-size="10.00">tuple</text>
</a>
</g>
</g>
<!-- Node5&#45;&gt;Node7 -->
<g id="edge6_Node000005_Node000007" class="edge">
<title>Node5&#45;&gt;Node7</title>
<g id="a_edge6_Node000005_Node000007"><a xlink:title=" ">
<path fill="none" stroke="#63b8ff" d="M453.39,-57.09C456.8,-56.39 460.23,-55.68 463.5,-55 537.81,-39.61 559.15,-37.89 637.1,-18.95"/>
<polygon fill="#63b8ff" stroke="#63b8ff" points="638.01,-22.33 646.9,-16.55 636.35,-15.53 638.01,-22.33"/>
</a>
</g>
</g>
<!-- Node8 -->
<g id="Node000008" class="node">
<title>Node8</title>
<g id="a_Node000008"><a xlink:title=" ">
<polygon fill="#e0e0e0" stroke="#999999" points="263.5,-19 145.5,-19 145.5,0 263.5,0 263.5,-19"/>
<text text-anchor="middle" x="204.5" y="-7" font-family="Helvetica,sans-Serif" font-size="10.00">SDL2/SDL_keycode.h</text>
</a>
</g>
</g>
<!-- Node5&#45;&gt;Node8 -->
<g id="edge7_Node000005_Node000008" class="edge">
<title>Node5&#45;&gt;Node8</title>
<g id="a_edge7_Node000005_Node000008"><a xlink:title=" ">
<path fill="none" stroke="#63b8ff" d="M391.73,-56.02C354.68,-47.01 292.14,-31.81 249.62,-21.47"/>
<polygon fill="#63b8ff" stroke="#63b8ff" points="250.35,-18.05 239.81,-19.08 248.7,-24.85 250.35,-18.05"/>
</a>
</g>
</g>
<!-- Node9 -->
<g id="Node000009" class="node">
<title>Node9</title>
<g id="a_Node000009"><a xlink:title=" ">
<polygon fill="#e0e0e0" stroke="#999999" points="437,-19 282,-19 282,0 437,0 437,-19"/>
<text text-anchor="middle" x="359.5" y="-7" font-family="Helvetica,sans-Serif" font-size="10.00">SFML/Window/Keyboard.hpp</text>
</a>
</g>
</g>
<!-- Node5&#45;&gt;Node9 -->
<g id="edge8_Node000005_Node000009" class="edge">
<title>Node5&#45;&gt;Node9</title>
<g id="a_edge8_Node000005_Node000009"><a xlink:title=" ">
<path fill="none" stroke="#63b8ff" d="M412.38,-54.98C403.06,-47.15 389.03,-35.34 377.76,-25.86"/>
<polygon fill="#63b8ff" stroke="#63b8ff" points="379.71,-22.93 369.81,-19.17 375.21,-28.29 379.71,-22.93"/>
</a>
</g>
</g>
<!-- Node10 -->
<g id="Node000010" class="node">
<title>Node10</title>
<g id="a_Node000010"><a xlink:title=" ">
<polygon fill="#e0e0e0" stroke="#999999" points="518,-19 455,-19 455,0 518,0 518,-19"/>
<text text-anchor="middle" x="486.5" y="-7" font-family="Helvetica,sans-Serif" font-size="10.00">ncurses.h</text>
</a>
</g>
</g>
<!-- Node5&#45;&gt;Node10 -->
<g id="edge9_Node000005_Node000010" class="edge">
<title>Node5&#45;&gt;Node10</title>
<g id="a_edge9_Node000005_Node000010"><a xlink:title=" ">
<path fill="none" stroke="#63b8ff" d="M432.78,-54.98C442.34,-47.07 456.78,-35.11 468.28,-25.58"/>
<polygon fill="#63b8ff" stroke="#63b8ff" points="470.56,-28.24 476.03,-19.17 466.1,-22.85 470.56,-28.24"/>
</a>
</g>
</g>
<!-- Node12 -->
<g id="Node000012" class="node">
<title>Node12</title>
<g id="a_Node000012"><a xlink:title=" ">
<polygon fill="#e0e0e0" stroke="#999999" points="65,-19 0,-19 0,0 65,0 65,-19"/>
<text text-anchor="middle" x="32.5" y="-7" font-family="Helvetica,sans-Serif" font-size="10.00">functional</text>
</a>
</g>
</g>
<!-- Node11&#45;&gt;Node12 -->
<g id="edge11_Node000011_Node000012" class="edge">
<title>Node11&#45;&gt;Node12</title>
<g id="a_edge11_Node000011_Node000012"><a xlink:title=" ">
<path fill="none" stroke="#63b8ff" d="M93.77,-54.98C82.77,-47 66.08,-34.88 52.9,-25.31"/>
<polygon fill="#63b8ff" stroke="#63b8ff" points="54.59,-22.21 44.44,-19.17 50.48,-27.88 54.59,-22.21"/>
</a>
</g>
</g>
<!-- Node13 -->
<g id="Node000013" class="node">
<title>Node13</title>
<g id="a_Node000013"><a xlink:title=" ">
<polygon fill="#e0e0e0" stroke="#999999" points="127.5,-19 83.5,-19 83.5,0 127.5,0 127.5,-19"/>
<text text-anchor="middle" x="105.5" y="-7" font-family="Helvetica,sans-Serif" font-size="10.00">string</text>
</a>
</g>
</g>
<!-- Node11&#45;&gt;Node13 -->
<g id="edge12_Node000011_Node000013" class="edge">
<title>Node11&#45;&gt;Node13</title>
<g id="a_edge12_Node000011_Node000013"><a xlink:title=" ">
<path fill="none" stroke="#63b8ff" d="M105.5,-54.75C105.5,-47.8 105.5,-37.85 105.5,-29.13"/>
<polygon fill="#63b8ff" stroke="#63b8ff" points="109,-29.09 105.5,-19.09 102,-29.09 109,-29.09"/>
</a>
</g>
</g>
<!-- Node17&#45;&gt;Node3 -->
<g id="edge17_Node000017_Node000003" class="edge">
<title>Node17&#45;&gt;Node3</title>
<g id="a_edge17_Node000017_Node000003"><a xlink:title=" ">
<path fill="none" stroke="#63b8ff" d="M390.5,-164.98C382.31,-157.23 369.99,-145.58 360.03,-136.14"/>
<polygon fill="#63b8ff" stroke="#63b8ff" points="362.33,-133.5 352.66,-129.17 357.52,-138.59 362.33,-133.5"/>
</a>
</g>
</g>
<!-- Node17&#45;&gt;Node16 -->
<g id="edge18_Node000017_Node000016" class="edge">
<title>Node17&#45;&gt;Node16</title>
<g id="a_edge18_Node000017_Node000016"><a xlink:title=" ">
<path fill="none" stroke="#63b8ff" d="M404.45,-164.75C408.56,-157.49 414.53,-146.95 419.6,-137.98"/>
<polygon fill="#63b8ff" stroke="#63b8ff" points="422.76,-139.52 424.64,-129.09 416.67,-136.07 422.76,-139.52"/>
</a>
</g>
</g>
<!-- Node21 -->
<g id="Node000021" class="node">
<title>Node21</title>
<g id="a_Node000021"><a xlink:title=" ">
<polygon fill="#e0e0e0" stroke="#999999" points="843.5,-184 787.5,-184 787.5,-165 843.5,-165 843.5,-184"/>
<text text-anchor="middle" x="815.5" y="-172" font-family="Helvetica,sans-Serif" font-size="10.00">stddef.h</text>
</a>
</g>
</g>
<!-- Node20&#45;&gt;Node21 -->
<g id="edge24_Node000020_Node000021" class="edge">
<title>Node20&#45;&gt;Node21</title>
<g id="a_edge24_Node000020_Node000021"><a xlink:title=" ">
<path fill="none" stroke="#63b8ff" d="M815.5,-219.75C815.5,-212.8 815.5,-202.85 815.5,-194.13"/>
<polygon fill="#63b8ff" stroke="#63b8ff" points="819,-194.09 815.5,-184.09 812,-194.09 819,-194.09"/>
</a>
</g>
</g>
</g>
</svg>
