<?xml version="1.0" encoding="UTF-8" standalone="no"?>
<!DOCTYPE svg PUBLIC "-//W3C//DTD SVG 1.1//EN"
 "http://www.w3.org/Graphics/SVG/1.1/DTD/svg11.dtd">
<!-- Generated by graphviz version 2.43.0 (0)
 -->
<!-- Title: shared/include/shape.hpp Pages: 1 -->
<svg width="1255pt" height="368pt"
 viewBox="0.00 0.00 1254.56 368.00" xmlns="http://www.w3.org/2000/svg" xmlns:xlink="http://www.w3.org/1999/xlink">
<g id="graph0" class="graph" transform="scale(1 1) rotate(0) translate(4 364)">
<title>shared/include/shape.hpp</title>
<!-- Node1 -->
<g id="Node000001" class="node">
<title>Node1</title>
<g id="a_Node000001"><a xlink:title=" ">
<polygon fill="#999999" stroke="#666666" points="617.25,-360 476.25,-360 476.25,-341 617.25,-341 617.25,-360"/>
<text text-anchor="middle" x="546.75" y="-348" font-family="Helvetica,sans-Serif" font-size="10.00">shared/include/shape.hpp</text>
</a>
</g>
</g>
<!-- Node2 -->
<g id="Node000002" class="node">
<title>Node2</title>
<g id="a_Node000002"><a xlink:href="gfx_8hpp.html" target="_top" xlink:title=" ">
<polygon fill="white" stroke="#666666" points="610.75,-305 482.75,-305 482.75,-286 610.75,-286 610.75,-305"/>
<text text-anchor="middle" x="546.75" y="-293" font-family="Helvetica,sans-Serif" font-size="10.00">shared/include/gfx.hpp</text>
</a>
</g>
</g>
<!-- Node1&#45;&gt;Node2 -->
<g id="edge1_Node000001_Node000002" class="edge">
<title>Node1&#45;&gt;Node2</title>
<g id="a_edge1_Node000001_Node000002"><a xlink:title=" ">
<path fill="none" stroke="#63b8ff" d="M546.75,-330.66C546.75,-321.93 546.75,-311.99 546.75,-305.09"/>
<polygon fill="#63b8ff" stroke="#63b8ff" points="543.25,-330.75 546.75,-340.75 550.25,-330.75 543.25,-330.75"/>
</a>
</g>
</g>
<!-- Node3 -->
<g id="Node000003" class="node">
<title>Node3</title>
<g id="a_Node000003"><a xlink:href="Arcade_8hpp.html" target="_top" xlink:title=" ">
<polygon fill="white" stroke="#666666" points="526.75,-74 392.75,-74 392.75,-55 526.75,-55 526.75,-74"/>
<text text-anchor="middle" x="459.75" y="-62" font-family="Helvetica,sans-Serif" font-size="10.00">core/include/Arcade.hpp</text>
</a>
</g>
</g>
<!-- Node2&#45;&gt;Node3 -->
<g id="edge2_Node000002_Node000003" class="edge">
<title>Node2&#45;&gt;Node3</title>
<g id="a_edge2_Node000002_Node000003"><a xlink:title=" ">
<path fill="none" stroke="#63b8ff" d="M533.45,-277.79C512.85,-250.74 474.13,-194.84 459.75,-140 453.72,-116.98 456.36,-88.56 458.32,-74.4"/>
<polygon fill="#63b8ff" stroke="#63b8ff" points="530.78,-280.06 539.68,-285.82 536.31,-275.77 530.78,-280.06"/>
</a>
</g>
</g>
<!-- Node4 -->
<g id="Node000004" class="node">
<title>Node4</title>
<g id="a_Node000004"><a xlink:href="Arcade_8cpp.html" target="_top" xlink:title=" ">
<polygon fill="white" stroke="#666666" points="710.75,-19 598.75,-19 598.75,0 710.75,0 710.75,-19"/>
<text text-anchor="middle" x="654.75" y="-7" font-family="Helvetica,sans-Serif" font-size="10.00">core/src/Arcade.cpp</text>
</a>
</g>
</g>
<!-- Node2&#45;&gt;Node4 -->
<g id="edge5_Node000002_Node000004" class="edge">
<title>Node2&#45;&gt;Node4</title>
<g id="a_edge5_Node000002_Node000004"><a xlink:title=" ">
<path fill="none" stroke="#63b8ff" d="M564.03,-278.48C599.01,-244.74 677.29,-162.15 705.75,-74 708.35,-65.96 709.25,-62.69 705.75,-55 698.56,-39.17 682.63,-26.77 670.48,-19.12"/>
<polygon fill="#63b8ff" stroke="#63b8ff" points="561.35,-276.21 556.5,-285.64 566.17,-281.29 561.35,-276.21"/>
</a>
</g>
</g>
<!-- Node6 -->
<g id="Node000006" class="node">
<title>Node6</title>
<g id="a_Node000006"><a xlink:href="Snake_8hpp.html" target="_top" xlink:title=" ">
<polygon fill="white" stroke="#666666" points="1105.75,-140 985.75,-140 985.75,-110 1105.75,-110 1105.75,-140"/>
<text text-anchor="start" x="993.75" y="-128" font-family="Helvetica,sans-Serif" font-size="10.00">games/Snake/include</text>
<text text-anchor="middle" x="1045.75" y="-117" font-family="Helvetica,sans-Serif" font-size="10.00">/Snake.hpp</text>
</a>
</g>
</g>
<!-- Node2&#45;&gt;Node6 -->
<g id="edge6_Node000002_Node000006" class="edge">
<title>Node2&#45;&gt;Node6</title>
<g id="a_edge6_Node000002_Node000006"><a xlink:title=" ">
<path fill="none" stroke="#63b8ff" d="M620.9,-292.88C720.75,-289.57 892.23,-279.64 946.75,-250 993.46,-224.61 1026.01,-167.02 1039.2,-140.22"/>
<polygon fill="#63b8ff" stroke="#63b8ff" points="620.76,-289.38 610.87,-293.19 620.98,-296.38 620.76,-289.38"/>
</a>
</g>
</g>
<!-- Node7 -->
<g id="Node000007" class="node">
<title>Node7</title>
<g id="a_Node000007"><a xlink:href="Snake_8cpp.html" target="_top" xlink:title=" ">
<polygon fill="white" stroke="#666666" points="1169.75,-74 1017.75,-74 1017.75,-55 1169.75,-55 1169.75,-74"/>
<text text-anchor="middle" x="1093.75" y="-62" font-family="Helvetica,sans-Serif" font-size="10.00">games/Snake/src/Snake.cpp</text>
</a>
</g>
</g>
<!-- Node2&#45;&gt;Node7 -->
<g id="edge8_Node000002_Node000007" class="edge">
<title>Node2&#45;&gt;Node7</title>
<g id="a_edge8_Node000002_Node000007"><a xlink:title=" ">
<path fill="none" stroke="#63b8ff" d="M621.42,-293.79C724.28,-291.55 914.89,-282.85 1073.75,-250 1149.04,-234.43 1192.86,-257.41 1237.75,-195 1276.63,-140.96 1169.23,-93.04 1118.57,-74.11"/>
<polygon fill="#63b8ff" stroke="#63b8ff" points="621.07,-290.3 611.14,-294 621.21,-297.3 621.07,-290.3"/>
</a>
</g>
</g>
<!-- Node8 -->
<g id="Node000008" class="node">
<title>Node8</title>
<g id="a_Node000008"><a xlink:href="SDL2_8hpp.html" target="_top" xlink:title=" ">
<polygon fill="white" stroke="#666666" points="137.75,-140 13.75,-140 13.75,-110 137.75,-110 137.75,-140"/>
<text text-anchor="start" x="21.75" y="-128" font-family="Helvetica,sans-Serif" font-size="10.00">graphics/SDL2/include</text>
<text text-anchor="middle" x="75.75" y="-117" font-family="Helvetica,sans-Serif" font-size="10.00">/SDL2.hpp</text>
</a>
</g>
</g>
<!-- Node2&#45;&gt;Node8 -->
<g id="edge9_Node000002_Node000008" class="edge">
<title>Node2&#45;&gt;Node8</title>
<g id="a_edge9_Node000002_Node000008"><a xlink:title=" ">
<path fill="none" stroke="#63b8ff" d="M472.27,-291.23C382.44,-286.25 237.54,-274.62 189.75,-250 139.58,-224.15 100.26,-166.8 83.95,-140.14"/>
<polygon fill="#63b8ff" stroke="#63b8ff" points="472.23,-294.73 482.41,-291.77 472.61,-287.74 472.23,-294.73"/>
</a>
</g>
</g>
<!-- Node9 -->
<g id="Node000009" class="node">
<title>Node9</title>
<g id="a_Node000009"><a xlink:href="SDL2_8cpp.html" target="_top" xlink:title=" ">
<polygon fill="white" stroke="#666666" points="151.25,-74 0.25,-74 0.25,-55 151.25,-55 151.25,-74"/>
<text text-anchor="middle" x="75.75" y="-62" font-family="Helvetica,sans-Serif" font-size="10.00">graphics/SDL2/src/SDL2.cpp</text>
</a>
</g>
</g>
<!-- Node2&#45;&gt;Node9 -->
<g id="edge11_Node000002_Node000009" class="edge">
<title>Node2&#45;&gt;Node9</title>
<g id="a_edge11_Node000002_Node000009"><a xlink:title=" ">
<path fill="none" stroke="#63b8ff" d="M472.42,-290.41C376.21,-284.36 214.32,-271.37 158.75,-250 80.25,-219.8 43.24,-214.79 4.75,-140 -1.35,-128.14 -1.7,-121.67 4.75,-110 14.4,-92.56 34.06,-81.04 50.25,-74.1"/>
<polygon fill="#63b8ff" stroke="#63b8ff" points="472.47,-293.92 482.67,-291.05 472.91,-286.94 472.47,-293.92"/>
</a>
</g>
</g>
<!-- Node10 -->
<g id="Node000010" class="node">
<title>Node10</title>
<g id="a_Node000010"><a xlink:href="SFML_8cpp.html" target="_top" xlink:title=" ">
<polygon fill="white" stroke="#666666" points="371.75,-74 217.75,-74 217.75,-55 371.75,-55 371.75,-74"/>
<text text-anchor="middle" x="294.75" y="-62" font-family="Helvetica,sans-Serif" font-size="10.00">graphics/SFML/src/SFML.cpp</text>
</a>
</g>
</g>
<!-- Node2&#45;&gt;Node10 -->
<g id="edge12_Node000002_Node000010" class="edge">
<title>Node2&#45;&gt;Node10</title>
<g id="a_edge12_Node000002_Node000010"><a xlink:title=" ">
<path fill="none" stroke="#63b8ff" d="M472.44,-291.52C401.24,-284.49 296.1,-262.44 236.75,-195 211.46,-166.26 204.11,-143.44 222.75,-110 232.56,-92.42 252.49,-80.91 268.9,-74.01"/>
<polygon fill="#63b8ff" stroke="#63b8ff" points="472.42,-295.03 482.69,-292.45 473.05,-288.06 472.42,-295.03"/>
</a>
</g>
</g>
<!-- Node11 -->
<g id="Node000011" class="node">
<title>Node11</title>
<g id="a_Node000011"><a xlink:href="GameMatrix_8hpp.html" target="_top" xlink:title=" ">
<polygon fill="white" stroke="#666666" points="1228.25,-195 1055.25,-195 1055.25,-176 1228.25,-176 1228.25,-195"/>
<text text-anchor="middle" x="1141.75" y="-183" font-family="Helvetica,sans-Serif" font-size="10.00">shared/include/GameMatrix.hpp</text>
</a>
</g>
</g>
<!-- Node2&#45;&gt;Node11 -->
<g id="edge13_Node000002_Node000011" class="edge">
<title>Node2&#45;&gt;Node11</title>
<g id="a_edge13_Node000002_Node000011"><a xlink:title=" ">
<path fill="none" stroke="#63b8ff" d="M621.12,-292.05C739.47,-287.45 965.04,-275.56 1040.75,-250 1077.45,-237.61 1114.43,-209.44 1131.69,-195.15"/>
<polygon fill="#63b8ff" stroke="#63b8ff" points="620.91,-288.56 611.05,-292.44 621.18,-295.55 620.91,-288.56"/>
</a>
</g>
</g>
<!-- Node12 -->
<g id="Node000012" class="node">
<title>Node12</title>
<g id="a_Node000012"><a xlink:href="IDisplay_8hpp.html" target="_top" xlink:title=" ">
<polygon fill="white" stroke="#666666" points="395.75,-195 245.75,-195 245.75,-176 395.75,-176 395.75,-195"/>
<text text-anchor="middle" x="320.75" y="-183" font-family="Helvetica,sans-Serif" font-size="10.00">shared/include/IDisplay.hpp</text>
</a>
</g>
</g>
<!-- Node2&#45;&gt;Node12 -->
<g id="edge16_Node000002_Node000012" class="edge">
<title>Node2&#45;&gt;Node12</title>
<g id="a_edge16_Node000002_Node000012"><a xlink:title=" ">
<path fill="none" stroke="#63b8ff" d="M500.7,-283.33C473.44,-275.81 438.69,-264.59 409.75,-250 378.57,-234.28 346.23,-208.35 330.51,-195.01"/>
<polygon fill="#63b8ff" stroke="#63b8ff" points="499.81,-286.72 510.37,-285.94 501.63,-279.96 499.81,-286.72"/>
</a>
</g>
</g>
<!-- Node16 -->
<g id="Node000016" class="node">
<title>Node16</title>
<g id="a_Node000016"><a xlink:href="IGame_8hpp.html" target="_top" xlink:title=" ">
<polygon fill="white" stroke="#666666" points="937.75,-250 793.75,-250 793.75,-231 937.75,-231 937.75,-250"/>
<text text-anchor="middle" x="865.75" y="-238" font-family="Helvetica,sans-Serif" font-size="10.00">shared/include/IGame.hpp</text>
</a>
</g>
</g>
<!-- Node2&#45;&gt;Node16 -->
<g id="edge27_Node000002_Node000016" class="edge">
<title>Node2&#45;&gt;Node16</title>
<g id="a_edge27_Node000002_Node000016"><a xlink:title=" ">
<path fill="none" stroke="#63b8ff" d="M608.09,-284.31C667.99,-274.36 758.12,-259.38 814.36,-250.04"/>
<polygon fill="#63b8ff" stroke="#63b8ff" points="607.3,-280.89 598.01,-285.98 608.44,-287.8 607.3,-280.89"/>
</a>
</g>
</g>
<!-- Node3&#45;&gt;Node4 -->
<g id="edge3_Node000003_Node000004" class="edge">
<title>Node3&#45;&gt;Node4</title>
<g id="a_edge3_Node000003_Node000004"><a xlink:title=" ">
<path fill="none" stroke="#63b8ff" d="M500.92,-52.31C537.41,-42.39 589.92,-28.12 623.18,-19.08"/>
<polygon fill="#63b8ff" stroke="#63b8ff" points="499.82,-48.98 491.08,-54.98 501.65,-55.74 499.82,-48.98"/>
</a>
</g>
</g>
<!-- Node5 -->
<g id="Node000005" class="node">
<title>Node5</title>
<g id="a_Node000005"><a xlink:href="main_8cpp.html" target="_top" xlink:title=" ">
<polygon fill="white" stroke="#666666" points="511.25,-19 408.25,-19 408.25,0 511.25,0 511.25,-19"/>
<text text-anchor="middle" x="459.75" y="-7" font-family="Helvetica,sans-Serif" font-size="10.00">core/src/main.cpp</text>
</a>
</g>
</g>
<!-- Node3&#45;&gt;Node5 -->
<g id="edge4_Node000003_Node000005" class="edge">
<title>Node3&#45;&gt;Node5</title>
<g id="a_edge4_Node000003_Node000005"><a xlink:title=" ">
<path fill="none" stroke="#63b8ff" d="M459.75,-44.66C459.75,-35.93 459.75,-25.99 459.75,-19.09"/>
<polygon fill="#63b8ff" stroke="#63b8ff" points="456.25,-44.75 459.75,-54.75 463.25,-44.75 456.25,-44.75"/>
</a>
</g>
</g>
<!-- Node6&#45;&gt;Node7 -->
<g id="edge7_Node000006_Node000007" class="edge">
<title>Node6&#45;&gt;Node7</title>
<g id="a_edge7_Node000006_Node000007"><a xlink:title=" ">
<path fill="none" stroke="#63b8ff" d="M1063.73,-102.09C1071.66,-92.42 1080.53,-81.61 1086.56,-74.27"/>
<polygon fill="#63b8ff" stroke="#63b8ff" points="1061.01,-99.89 1057.37,-109.84 1066.42,-104.33 1061.01,-99.89"/>
</a>
</g>
</g>
<!-- Node8&#45;&gt;Node9 -->
<g id="edge10_Node000008_Node000009" class="edge">
<title>Node8&#45;&gt;Node9</title>
<g id="a_edge10_Node000008_Node000009"><a xlink:title=" ">
<path fill="none" stroke="#63b8ff" d="M75.75,-99.75C75.75,-90.72 75.75,-81.03 75.75,-74.27"/>
<polygon fill="#63b8ff" stroke="#63b8ff" points="72.25,-99.84 75.75,-109.84 79.25,-99.84 72.25,-99.84"/>
</a>
</g>
</g>
<!-- Node11&#45;&gt;Node6 -->
<g id="edge14_Node000011_Node000006" class="edge">
<title>Node11&#45;&gt;Node6</title>
<g id="a_edge14_Node000011_Node000006"><a xlink:title=" ">
<path fill="none" stroke="#63b8ff" d="M1118.87,-170.55C1103.77,-161.36 1084.07,-149.35 1068.92,-140.11"/>
<polygon fill="#63b8ff" stroke="#63b8ff" points="1117.23,-173.65 1127.59,-175.87 1120.87,-167.68 1117.23,-173.65"/>
</a>
</g>
</g>
<!-- Node11&#45;&gt;Node7 -->
<g id="edge15_Node000011_Node000007" class="edge">
<title>Node11&#45;&gt;Node7</title>
<g id="a_edge15_Node000011_Node000007"><a xlink:title=" ">
<path fill="none" stroke="#63b8ff" d="M1135.57,-165.97C1130.38,-150.78 1122.58,-128.81 1114.75,-110 1109.5,-97.38 1102.61,-83.15 1098.18,-74.26"/>
<polygon fill="#63b8ff" stroke="#63b8ff" points="1132.34,-167.33 1138.86,-175.68 1138.97,-165.09 1132.34,-167.33"/>
</a>
</g>
</g>
<!-- Node12&#45;&gt;Node8 -->
<g id="edge22_Node000012_Node000008" class="edge">
<title>Node12&#45;&gt;Node8</title>
<g id="a_edge22_Node000012_Node000008"><a xlink:title=" ">
<path fill="none" stroke="#63b8ff" d="M275.21,-173.62C235.55,-164.16 177.81,-150.37 134.65,-140.06"/>
<polygon fill="#63b8ff" stroke="#63b8ff" points="274.59,-177.08 285.13,-175.99 276.21,-170.27 274.59,-177.08"/>
</a>
</g>
</g>
<!-- Node12&#45;&gt;Node9 -->
<g id="edge23_Node000012_Node000009" class="edge">
<title>Node12&#45;&gt;Node9</title>
<g id="a_edge23_Node000012_Node000009"><a xlink:title=" ">
<path fill="none" stroke="#63b8ff" d="M291.82,-171.75C272.23,-163.02 245.81,-151.07 222.75,-140 175.04,-117.09 119.52,-88.39 92.39,-74.23"/>
<polygon fill="#63b8ff" stroke="#63b8ff" points="290.56,-175.02 301.12,-175.88 293.4,-168.62 290.56,-175.02"/>
</a>
</g>
</g>
<!-- Node12&#45;&gt;Node10 -->
<g id="edge26_Node000012_Node000010" class="edge">
<title>Node12&#45;&gt;Node10</title>
<g id="a_edge26_Node000012_Node000010"><a xlink:title=" ">
<path fill="none" stroke="#63b8ff" d="M342.28,-169.45C351.34,-161.8 360.89,-151.64 365.75,-140 370.89,-127.7 372.21,-121.67 365.75,-110 356.1,-92.56 336.45,-81.04 320.26,-74.1"/>
<polygon fill="#63b8ff" stroke="#63b8ff" points="339.95,-166.83 334.24,-175.75 344.27,-172.33 339.95,-166.83"/>
</a>
</g>
</g>
<!-- Node13 -->
<g id="Node000013" class="node">
<title>Node13</title>
<g id="a_Node000013"><a xlink:href="Display_8hpp.html" target="_top" xlink:title=" ">
<polygon fill="white" stroke="#666666" points="625.25,-134.5 490.25,-134.5 490.25,-115.5 625.25,-115.5 625.25,-134.5"/>
<text text-anchor="middle" x="557.75" y="-122.5" font-family="Helvetica,sans-Serif" font-size="10.00">core/include/Display.hpp</text>
</a>
</g>
</g>
<!-- Node12&#45;&gt;Node13 -->
<g id="edge17_Node000012_Node000013" class="edge">
<title>Node12&#45;&gt;Node13</title>
<g id="a_edge17_Node000012_Node000013"><a xlink:title=" ">
<path fill="none" stroke="#63b8ff" d="M365.16,-173.54C410.97,-162.23 481.46,-144.83 523.25,-134.52"/>
<polygon fill="#63b8ff" stroke="#63b8ff" points="364.09,-170.2 355.22,-175.99 365.76,-177 364.09,-170.2"/>
</a>
</g>
</g>
<!-- Node14 -->
<g id="Node000014" class="node">
<title>Node14</title>
<g id="a_Node000014"><a xlink:href="Display_8cpp.html" target="_top" xlink:title=" ">
<polygon fill="white" stroke="#666666" points="696.25,-74 583.25,-74 583.25,-55 696.25,-55 696.25,-74"/>
<text text-anchor="middle" x="639.75" y="-62" font-family="Helvetica,sans-Serif" font-size="10.00">core/src/Display.cpp</text>
</a>
</g>
</g>
<!-- Node12&#45;&gt;Node14 -->
<g id="edge21_Node000012_Node000014" class="edge">
<title>Node12&#45;&gt;Node14</title>
<g id="a_edge21_Node000012_Node000014"><a xlink:title=" ">
<path fill="none" stroke="#63b8ff" d="M405.88,-183.95C487.78,-181.46 603.51,-172.14 633.75,-140 650.65,-122.04 645.77,-89.7 642.13,-74.22"/>
<polygon fill="#63b8ff" stroke="#63b8ff" points="405.72,-180.45 395.82,-184.23 405.91,-187.45 405.72,-180.45"/>
</a>
</g>
</g>
<!-- Node15 -->
<g id="Node000015" class="node">
<title>Node15</title>
<g id="a_Node000015"><a xlink:href="SFML_8hpp.html" target="_top" xlink:title=" ">
<polygon fill="white" stroke="#666666" points="357.25,-140 232.25,-140 232.25,-110 357.25,-110 357.25,-140"/>
<text text-anchor="start" x="240.25" y="-128" font-family="Helvetica,sans-Serif" font-size="10.00">graphics/SFML/include</text>
<text text-anchor="middle" x="294.75" y="-117" font-family="Helvetica,sans-Serif" font-size="10.00">/SFML.hpp</text>
</a>
</g>
</g>
<!-- Node12&#45;&gt;Node15 -->
<g id="edge24_Node000012_Node000015" class="edge">
<title>Node12&#45;&gt;Node15</title>
<g id="a_edge24_Node000012_Node000015"><a xlink:title=" ">
<path fill="none" stroke="#63b8ff" d="M312.75,-166.5C308.98,-158.01 304.55,-148.04 301.03,-140.11"/>
<polygon fill="#63b8ff" stroke="#63b8ff" points="309.66,-168.15 316.92,-175.87 316.05,-165.31 309.66,-168.15"/>
</a>
</g>
</g>
<!-- Node13&#45;&gt;Node3 -->
<g id="edge18_Node000013_Node000003" class="edge">
<title>Node13&#45;&gt;Node3</title>
<g id="a_edge18_Node000013_Node000003"><a xlink:title=" ">
<path fill="none" stroke="#63b8ff" d="M534.5,-110.12C515.81,-98.96 490.15,-83.64 474.27,-74.17"/>
<polygon fill="#63b8ff" stroke="#63b8ff" points="532.91,-113.25 543.29,-115.37 536.5,-107.24 532.91,-113.25"/>
</a>
</g>
</g>
<!-- Node13&#45;&gt;Node4 -->
<g id="edge19_Node000013_Node000004" class="edge">
<title>Node13&#45;&gt;Node4</title>
<g id="a_edge19_Node000013_Node000004"><a xlink:title=" ">
<path fill="none" stroke="#63b8ff" d="M558.02,-105.33C559.12,-90.37 562.75,-69.53 573.75,-55 587.02,-37.48 609.29,-25.96 627.12,-19.05"/>
<polygon fill="#63b8ff" stroke="#63b8ff" points="554.52,-105.29 557.59,-115.43 561.51,-105.59 554.52,-105.29"/>
</a>
</g>
</g>
<!-- Node13&#45;&gt;Node14 -->
<g id="edge20_Node000013_Node000014" class="edge">
<title>Node13&#45;&gt;Node14</title>
<g id="a_edge20_Node000013_Node000014"><a xlink:title=" ">
<path fill="none" stroke="#63b8ff" d="M578.29,-109.35C593.82,-98.27 614.62,-83.43 627.6,-74.17"/>
<polygon fill="#63b8ff" stroke="#63b8ff" points="575.96,-106.71 569.85,-115.37 580.03,-112.41 575.96,-106.71"/>
</a>
</g>
</g>
<!-- Node15&#45;&gt;Node10 -->
<g id="edge25_Node000015_Node000010" class="edge">
<title>Node15&#45;&gt;Node10</title>
<g id="a_edge25_Node000015_Node000010"><a xlink:title=" ">
<path fill="none" stroke="#63b8ff" d="M294.75,-99.75C294.75,-90.72 294.75,-81.03 294.75,-74.27"/>
<polygon fill="#63b8ff" stroke="#63b8ff" points="291.25,-99.84 294.75,-109.84 298.25,-99.84 291.25,-99.84"/>
</a>
</g>
</g>
<!-- Node16&#45;&gt;Node6 -->
<g id="edge34_Node000016_Node000006" class="edge">
<title>Node16&#45;&gt;Node6</title>
<g id="a_edge34_Node000016_Node000006"><a xlink:title=" ">
<path fill="none" stroke="#63b8ff" d="M899.42,-227.14C919.16,-219.22 944.18,-208.01 964.75,-195 990.36,-178.8 1016.4,-155.04 1031.81,-140.05"/>
<polygon fill="#63b8ff" stroke="#63b8ff" points="897.95,-223.95 889.92,-230.86 900.51,-230.47 897.95,-223.95"/>
</a>
</g>
</g>
<!-- Node16&#45;&gt;Node7 -->
<g id="edge35_Node000016_Node000007" class="edge">
<title>Node16&#45;&gt;Node7</title>
<g id="a_edge35_Node000016_Node000007"><a xlink:title=" ">
<path fill="none" stroke="#63b8ff" d="M881.36,-223.55C889.4,-215.18 899.27,-204.69 907.75,-195 939.81,-158.39 937.33,-138.52 976.75,-110 1000.97,-92.49 1032.92,-80.95 1057.32,-74.02"/>
<polygon fill="#63b8ff" stroke="#63b8ff" points="878.76,-221.2 874.32,-230.81 883.79,-226.07 878.76,-221.2"/>
</a>
</g>
</g>
<!-- Node16&#45;&gt;Node11 -->
<g id="edge36_Node000016_Node000011" class="edge">
<title>Node16&#45;&gt;Node11</title>
<g id="a_edge36_Node000016_Node000011"><a xlink:title=" ">
<path fill="none" stroke="#63b8ff" d="M920.09,-229.07C971.84,-219.13 1048.78,-204.35 1097.06,-195.08"/>
<polygon fill="#63b8ff" stroke="#63b8ff" points="919.26,-225.66 910.1,-230.98 920.58,-232.54 919.26,-225.66"/>
</a>
</g>
</g>
<!-- Node16&#45;&gt;Node12 -->
<g id="edge37_Node000016_Node000012" class="edge">
<title>Node16&#45;&gt;Node12</title>
<g id="a_edge37_Node000016_Node000012"><a xlink:title=" ">
<path fill="none" stroke="#63b8ff" d="M783.42,-231.49C678.28,-221.27 497.83,-203.72 396.14,-193.83"/>
<polygon fill="#63b8ff" stroke="#63b8ff" points="783.37,-235 793.66,-232.49 784.05,-228.04 783.37,-235"/>
</a>
</g>
</g>
<!-- Node16&#45;&gt;Node14 -->
<g id="edge32_Node000016_Node000014" class="edge">
<title>Node16&#45;&gt;Node14</title>
<g id="a_edge32_Node000016_Node000014"><a xlink:title=" ">
<path fill="none" stroke="#63b8ff" d="M818.86,-228.15C795.75,-221.07 768.29,-210.34 746.75,-195 697.59,-159.97 657.97,-96.92 644.61,-74.07"/>
<polygon fill="#63b8ff" stroke="#63b8ff" points="817.89,-231.51 828.47,-230.96 819.86,-224.79 817.89,-231.51"/>
</a>
</g>
</g>
<!-- Node17 -->
<g id="Node000017" class="node">
<title>Node17</title>
<g id="a_Node000017"><a xlink:href="Game_8hpp.html" target="_top" xlink:title=" ">
<polygon fill="white" stroke="#666666" points="884.25,-195 755.25,-195 755.25,-176 884.25,-176 884.25,-195"/>
<text text-anchor="middle" x="819.75" y="-183" font-family="Helvetica,sans-Serif" font-size="10.00">core/include/Game.hpp</text>
</a>
</g>
</g>
<!-- Node16&#45;&gt;Node17 -->
<g id="edge28_Node000016_Node000017" class="edge">
<title>Node16&#45;&gt;Node17</title>
<g id="a_edge28_Node000016_Node000017"><a xlink:title=" ">
<path fill="none" stroke="#63b8ff" d="M851.39,-222.96C843.38,-213.72 833.73,-202.6 827.21,-195.09"/>
<polygon fill="#63b8ff" stroke="#63b8ff" points="848.96,-225.49 858.16,-230.75 854.25,-220.9 848.96,-225.49"/>
</a>
</g>
</g>
<!-- Node18 -->
<g id="Node000018" class="node">
<title>Node18</title>
<g id="a_Node000018"><a xlink:href="Game_8cpp.html" target="_top" xlink:title=" ">
<polygon fill="white" stroke="#666666" points="919.25,-134.5 812.25,-134.5 812.25,-115.5 919.25,-115.5 919.25,-134.5"/>
<text text-anchor="middle" x="865.75" y="-122.5" font-family="Helvetica,sans-Serif" font-size="10.00">core/src/Game.cpp</text>
</a>
</g>
</g>
<!-- Node16&#45;&gt;Node18 -->
<g id="edge33_Node000016_Node000018" class="edge">
<title>Node16&#45;&gt;Node18</title>
<g id="a_edge33_Node000016_Node000018"><a xlink:title=" ">
<path fill="none" stroke="#63b8ff" d="M879.48,-222.71C885.07,-214.8 890.89,-204.94 893.75,-195 900.2,-172.64 883.74,-147.61 873.4,-134.72"/>
<polygon fill="#63b8ff" stroke="#63b8ff" points="876.67,-220.61 873.43,-230.7 882.25,-224.84 876.67,-220.61"/>
</a>
</g>
</g>
<!-- Node17&#45;&gt;Node3 -->
<g id="edge29_Node000017_Node000003" class="edge">
<title>Node17&#45;&gt;Node3</title>
<g id="a_edge29_Node000017_Node000003"><a xlink:title=" ">
<path fill="none" stroke="#63b8ff" d="M744.75,-184.01C657.07,-181.88 519.07,-173.16 480.75,-140 461.34,-123.21 459.21,-90 459.37,-74.22"/>
<polygon fill="#63b8ff" stroke="#63b8ff" points="744.84,-187.52 754.91,-184.24 744.99,-180.52 744.84,-187.52"/>
</a>
</g>
</g>
<!-- Node17&#45;&gt;Node4 -->
<g id="edge30_Node000017_Node000004" class="edge">
<title>Node17&#45;&gt;Node4</title>
<g id="a_edge30_Node000017_Node000004"><a xlink:title=" ">
<path fill="none" stroke="#63b8ff" d="M812.19,-166.47C800.08,-139.38 774.06,-87.86 738.75,-55 721.24,-38.7 696.61,-26.59 678.56,-19.15"/>
<polygon fill="#63b8ff" stroke="#63b8ff" points="809.08,-168.09 816.27,-175.87 815.5,-165.3 809.08,-168.09"/>
</a>
</g>
</g>
<!-- Node17&#45;&gt;Node18 -->
<g id="edge31_Node000017_Node000018" class="edge">
<title>Node17&#45;&gt;Node18</title>
<g id="a_edge31_Node000017_Node000018"><a xlink:title=" ">
<path fill="none" stroke="#63b8ff" d="M832.77,-167.95C841.28,-157.12 852.06,-143.41 858.94,-134.67"/>
<polygon fill="#63b8ff" stroke="#63b8ff" points="829.97,-165.84 826.54,-175.87 835.47,-170.17 829.97,-165.84"/>
</a>
</g>
</g>
</g>
</svg>
